<?xml version="1.0" encoding="UTF-8" standalone="no"?><!DOCTYPE svg PUBLIC "-//W3C//DTD SVG 1.1//EN" "http://www.w3.org/Graphics/SVG/1.1/DTD/svg11.dtd"><svg width="100%" height="100%" viewBox="0 0 1277 1284" version="1.1" xmlns="http://www.w3.org/2000/svg" xmlns:xlink="http://www.w3.org/1999/xlink" xml:space="preserve" xmlns:serif="http://www.serif.com/" style="fill-rule:evenodd;clip-rule:evenodd;stroke-linecap:round;stroke-linejoin:round;stroke-miterlimit:1.5;"><g><g><circle id="Oval" cx="638.32" cy="638.32" r="638.32" style="fill:#ebf7ff;"/><g><path d="M737.399,659.192c-0,0 119.93,8.895 208.767,180.11c88.838,171.215 168.791,329.088 168.791,329.088c0,-0 31.093,100.061 -71.07,102.284c-102.162,2.224 -113.267,6.671 -113.267,6.671c-0,-0 17.767,-100.061 -22.209,-117.849l-39.977,-135.638c-0,-0 -117.71,-337.983 -131.035,-364.666Z" style="fill:#ffbd74;"/><g><path id="Path" d="M380.873,349.38c-0,0 33.098,99.393 72.118,145.207c39.021,45.814 54.855,63.439 66.033,113.109c11.178,49.669 5.816,82.978 30.13,100.256c24.315,17.278 40.576,47.479 43.134,100.711c2.557,53.232 -14.258,65.526 -0.259,95.326c14,29.799 81.583,122.349 34.241,147.745c-47.341,25.396 -390.282,94.834 -390.502,-109.944c-0.092,-86.425 58.1,-148.176 55.287,-205.374c-1.929,-39.198 -64.26,-118.503 -47.868,-173.598c42.649,-143.342 11.816,-200.413 21.917,-287.589c8.008,-69.114 24.708,-80.899 45.758,-115.59c21.051,-34.691 107.682,-68.855 150.93,-75.07c43.247,-6.214 193.777,13.554 228.151,128.451c34.374,114.898 -28.941,133.293 -43.636,149.204c-14.695,15.911 -56.247,20.574 -56.247,20.574l-96.244,26.903l-58.231,-1.074l-54.712,-59.247Z" style="fill:#e68182;"/><path id="Path1" serif:id="Path" d="M644.618,307.813c-21.499,6.246 -31.585,36.741 -22.509,68.055c9.077,31.315 30.851,68.106 62.044,57.25c36.592,-12.735 24.939,-48.568 15.863,-79.883c-9.076,-31.315 -33.9,-51.668 -55.398,-45.422Z" style="fill:#565656;"/><path id="Path2" serif:id="Path" d="M680.457,286.685c0,0 -6.902,90.906 10.347,113.412c17.248,22.506 -11.779,59.426 24.692,85.343c36.472,25.917 6.793,87.678 22.629,112.711c15.836,25.033 68.849,102.693 68.849,102.693c-0,0 45.365,60.326 30.191,139.348c-15.174,79.021 -25.391,89.591 -25.391,89.591c0,0 -85.097,-76.554 -91.953,-79.854c-6.856,-3.3 -100.946,-122.545 -100.946,-122.545l-84.914,-161.599l2.875,-88.148l28.44,-155.372l43.027,-42.134l45.229,4.323l26.925,2.231Z" style="fill:#e68182;"/><path d="M479.771,642.33c-0,0 -43.679,21.495 -74.031,42.989c-27.618,19.558 -51.452,39.654 -67.739,61.89c0,-0 10.863,45.391 25.495,109.784c32.542,143.201 83.728,380.376 75.558,421.278l488.605,0c-0,0 -54.783,-217.909 -63.667,-257.934c-8.884,-40.024 25.171,-57.813 0,-117.108c-25.171,-59.295 -34.054,-65.224 -51.822,-94.872c-17.767,-29.648 -34.054,-56.331 -34.054,-56.331l-35.535,-93.389c0,-0 -39.977,-23.719 -66.628,-29.648c-26.651,-5.93 -87.357,5.929 -87.357,5.929l-108.825,7.412Z" style="fill:#eeb06c;"/><path d="M469.483,528.68c0,-0 11.251,96.68 13.309,133.378c0.321,5.725 34.57,21.974 34.57,21.974c25.441,20.641 108.942,76.01 130.537,-41.678c-0,-0 -19.707,-33.802 -17.771,-63.943c1.936,-30.14 -64.89,-85.992 -64.89,-85.992l-99.635,-42.462l-36.345,1.474l40.225,77.249Z" style="fill:#eab6a6;"/><path id="Path3" serif:id="Path" d="M465.347,171.775c-88.043,25.579 -99.732,213.205 -84.991,233.186c78.975,107.042 112.562,192.254 203.112,178.059c130.551,-20.465 130.707,-145.767 94.168,-271.834c-36.539,-126.068 -124.246,-164.989 -212.289,-139.411Z" style="fill:#fcd8cd;"/><path id="Path4" serif:id="Path" d="M404.09,404.592c-0,-0 -42.847,-84.92 -30.991,-147.631c11.857,-62.712 84.914,-117.804 144.98,-128.905c60.065,-11.1 115.332,5.652 115.332,5.652c0,0 -15.551,-16.648 -28.556,-24.512c-13.005,-7.864 -41.839,-11.128 -41.839,-11.128c0,-0 -117.03,-11.509 -178.634,64.597c-61.603,76.106 -51.13,134.447 -47.731,160.977c3.399,26.529 35.215,88.195 35.215,88.195l32.224,-7.245Z" style="fill:#565656;"/><path id="Path5" serif:id="Path" d="M428.509,228.78c0,0 38.713,86.385 23.461,133.679c-15.253,47.294 -48.643,51.439 -48.643,51.439l-16.246,29.061c-0,0 -57.042,-188.481 6.65,-250.907c80.007,-78.415 143.09,-55.858 181.044,-35.928c37.954,19.93 81.955,57.947 89.91,77.067c7.955,19.12 14.852,45.692 10.51,61.241c-0,-0 -27.148,-43.707 -68.489,-42.016c-41.341,1.692 -114.901,25.444 -178.197,-23.636Z" style="fill:#e68182;"/><path id="Path6" serif:id="Path" d="M377.083,380.247c-21.498,6.246 -31.584,36.74 -22.508,68.055c9.076,31.315 30.851,68.105 62.044,57.249c36.591,-12.734 24.939,-48.568 15.863,-79.883c-9.077,-31.314 -33.9,-51.667 -55.399,-45.421Z" style="fill:#565656;"/><path id="Path7" serif:id="Path" d="M584.133,338.649c-0,0 10.279,20.166 17.583,40.356c3.619,10.004 6.508,20.006 7.11,27.617c2.155,0.807 6.888,2.741 9.799,5.125c2.102,1.722 3.256,3.726 2.762,5.662c-0.518,2.023 -3.198,4.404 -10.114,6.232c-0.538,0.157 -1.106,-0.166 -1.266,-0.72c-0.161,-0.554 0.146,-1.13 0.685,-1.286c5.476,-1.737 7.865,-3.22 8.205,-4.864c0.217,-1.051 -0.775,-1.888 -1.945,-2.758c-3.642,-2.708 -10.179,-4.523 -10.179,-4.523c-0.673,-0.207 -1.154,-0.82 -1.206,-1.535c-0.713,-7.404 -4.091,-17.33 -8.197,-27.236c-8.083,-19.496 -19.083,-38.828 -19.083,-38.828c-0.897,-1.665 -0.315,-3.744 1.298,-4.639c1.613,-0.894 3.651,-0.268 4.548,1.397Z" style="fill:#eaa692;"/><path id="Path8" serif:id="Path" d="M510.928,297.177c-0,-0 -21.84,7.369 -39.516,21.244c-8.02,6.295 -15.197,13.872 -19.03,22.749c-0.278,0.725 -1.091,1.071 -1.815,0.771c-0.723,-0.299 -1.085,-1.131 -0.807,-1.856c3.282,-9.763 10.19,-18.461 18.122,-25.857c17.314,-16.144 39.565,-25.788 39.565,-25.788c2.358,-0.914 5.053,0.302 6.014,2.713c0.96,2.411 -0.174,5.11 -2.533,6.024Z" style="fill:#e68182;"/><path id="Path9" serif:id="Path" d="M600.418,266.629c-0,0 18.436,0.086 35.573,5.952c7.877,2.696 15.46,6.537 20.874,12.154c0.568,0.528 0.609,1.435 0.091,2.023c-0.519,0.587 -1.401,0.636 -1.969,0.108c-5.541,-4.607 -12.916,-7.331 -20.439,-8.995c-16.574,-3.668 -33.783,-1.841 -33.783,-1.841c-2.526,0.118 -4.654,-1.892 -4.75,-4.487c-0.096,-2.594 1.877,-4.796 4.403,-4.914Z" style="fill:#e68182;"/><path id="Oval1" serif:id="Oval" d="M623.145,312.505c-7.352,2.136 -10.028,15.231 -5.973,29.223c4.056,13.993 13.318,23.62 20.67,21.484c7.352,-2.136 10.029,-15.231 5.973,-29.224c-4.056,-13.993 -13.317,-23.619 -20.67,-21.483Z" style="fill:#6a6464;"/><path id="Oval-Copy" d="M505.71,337.322c-7.353,2.136 -10.029,15.231 -5.973,29.223c4.055,13.993 13.317,23.619 20.669,21.483c7.352,-2.136 10.029,-15.23 5.973,-29.223c-4.056,-13.993 -13.317,-23.619 -20.669,-21.483Z" style="fill:#6a6464;"/></g><path d="M585.82,714.04c0,0 88.838,221.246 92.169,254.599c3.331,33.354 -2.221,95.614 -2.221,95.614c-0,-0 -6.663,90.054 -6.663,102.284c0,12.23 6.663,112.29 6.663,112.29l23.32,-1.111c-0,-0 -6.663,-194.563 4.442,-266.829c11.104,-72.266 3.331,-61.148 -3.332,-91.166c-6.663,-30.018 -58.854,-146.756 -58.854,-146.756l-36.646,-65.595l-18.878,6.67Z" style="fill:#fdd999;"/><path d="M594.982,718.766l-18.416,-41.6l-5.459,37.708l23.875,3.892Z" style="fill:#edc57d;"/><path d="M654.392,603.325l-89.948,-83.94c-0,0 -7.218,-8.338 -1.666,-13.897c5.552,-5.559 8.884,-0.556 11.66,1.112c2.776,1.668 96.055,86.719 96.055,86.719l-16.101,10.006Z" style="fill:#eeb06c;"/><path d="M928.399,1157.83c0,0 -39.977,9.636 -58.485,5.188c-18.507,-4.447 -124.562,-12.872 -139.178,-6.67c-6.647,2.82 -51.822,33.353 -60.705,43.73c-8.884,10.377 -18.508,51.142 -18.508,51.142l6.663,25.942l9.624,-0l93.618,-0.377l15.343,-16.01c5.083,-3.657 11.07,-5.057 17.486,-5.38c8.43,5.34 15.125,11.026 20.221,17.032l21.284,5.023l103.742,-2.512c-0,0 22.209,-23.718 18.507,-49.66c-3.701,-25.941 -29.612,-67.448 -29.612,-67.448Z" style="fill:#fcd8cd;stroke:#fcd8cd;stroke-width:1.44px;"/><path d="M760.244,1276.4c-0,0 10,-4.701 13.5,-12.701c3.5,-8 22,-8.5 22,-8.5l18.75,17.25c0,0 14.5,5.5 21.5,4.75" style="fill:none;stroke:#d7a573;stroke-width:3.51px;"/><path d="M511.141,888.128c0,-0 53.303,-86.72 63.297,-113.403c9.994,-26.682 15.547,-86.163 22.209,-115.069c6.663,-28.907 4.442,-23.348 12.771,-33.91c8.328,-10.562 39.976,-27.794 48.305,-31.686c8.328,-3.891 47.75,-10.006 62.741,-6.67c14.992,3.335 21.654,20.012 23.875,25.015c2.221,5.003 18.323,15.009 11.66,30.018c0,-0 21.654,15.009 10.55,26.127c-0,-0 8.328,21.68 3.886,33.909c-4.442,12.23 -4.997,16.677 -13.325,15.009c-8.329,-1.667 -8.884,-6.114 -7.218,-14.453c-0,0 -17.768,7.783 -28.872,10.006c-0,0 -17.768,43.916 -33.87,66.707c-16.101,22.792 -18.322,25.016 -22.764,37.801c-4.442,12.786 -50.526,128.967 -50.526,128.967l-102.719,-58.368Z" style="fill:#fcd8cd;"/><path d="M336.521,751.471c-0,-0 -60.336,116.366 -57.745,284.617c0.921,59.749 -10.364,189.744 29.613,220.874c39.977,31.13 124.372,50.401 183.597,-35.577c59.225,-85.978 112.527,-240.145 125.853,-256.452c13.325,-16.306 5.922,-14.823 -5.923,-29.647c-11.845,-14.824 -102.163,-57.813 -102.163,-57.813c0,-0 -24.194,3.946 -28.131,28.165c-5.183,31.871 -49.601,123.038 -49.601,123.038c-0,-0 -9.624,-32.613 -0.741,-60.778c8.884,-28.165 5.923,-56.33 7.404,-84.496c1.48,-28.165 -26.652,-65.224 -47.38,-85.978c-20.729,-20.753 -54.783,-45.953 -54.783,-45.953Z" style="fill:#ffbd74;"/><path d="M436.139,477.555l0.185,-5.096c-0,-0 73.013,13.063 100.775,15.565l1.85,5.559c0,-0 -90.856,-11.859 -102.81,-16.028Z" style="fill:#565251;"/><ellipse cx="550.731" cy="489.83" rx="16.379" ry="9.45" style="fill:#565251;"/><path d="M562.494,467.976c-0,0 15.397,13.987 32.215,14.464c16.527,0.469 33.079,-11.378 33.079,-11.378" style="fill:none;stroke:#e16d6d;stroke-width:4.36px;"/><path d="M526.318,833.835c-0,0 82.73,29.463 115.488,69.487c0,-0 -8.328,42.804 -19.433,68.375c0,-0 -114.378,-69.487 -129.369,-72.266c-14.991,-2.78 -12.771,-5.559 -12.771,-5.559c0,-0 24.431,-52.81 46.085,-60.037Z" style="fill:#fdd999;"/><path d="M873.616,1153.2c0,-0 37.756,95.613 36.645,125.631l46.64,-1.111c-0,-0 34.424,-70.043 6.663,-100.061c-27.762,-30.018 -34.425,-26.683 -34.425,-26.683l-55.523,2.224Z" style="fill:#fdd999;"/><path d="M475.884,593.782c0,0 6.293,35.207 41.828,61.149c29.108,21.25 58.854,22.235 58.854,22.235l-7.403,48.178c0,-0 -42.938,17.788 -114.008,-46.695c0,-0 -11.104,-11.859 -11.845,-21.495c-0.74,-9.635 32.574,-63.372 32.574,-63.372Z" style="fill:#fdd999;"/></g><path d="M659.846,841.46c5.632,-1.787 11.872,2.02 13.927,8.497c2.055,6.476 -0.848,13.185 -6.48,14.972c-5.632,1.787 -11.872,-2.02 -13.927,-8.497c-2.055,-6.476 0.849,-13.185 6.48,-14.972Z" style="fill:#6a6464;"/><path d="M599.513,905.46c5.631,-1.787 11.872,2.02 13.927,8.497c2.055,6.476 -0.849,13.185 -6.48,14.972c-5.632,1.787 -11.873,-2.02 -13.928,-8.497c-2.054,-6.476 0.849,-13.185 6.481,-14.972Z" style="fill:#6a6464;"/><path d="M936.18,1232.79c5.631,-1.787 11.872,2.02 13.927,8.496c2.055,6.476 -0.849,13.185 -6.481,14.972c-5.631,1.787 -11.872,-2.02 -13.927,-8.496c-2.055,-6.477 0.849,-13.186 6.481,-14.972Z" style="fill:#6a6464;"/><path d="M695.196,957.246c6.063,-0.252 11.221,5.205 11.51,12.177c0.29,6.973 -4.398,12.839 -10.461,13.09c-6.063,0.252 -11.221,-5.204 -11.511,-12.177c-0.289,-6.973 4.398,-12.838 10.462,-13.09Z" style="fill:#6a6464;"/><path d="M686.732,1121.02c5.793,-0.241 10.721,4.973 10.998,11.635c0.276,6.662 -4.202,12.266 -9.995,12.507c-5.794,0.24 -10.722,-4.973 -10.998,-11.635c-0.277,-6.662 4.202,-12.266 9.995,-12.507Z" style="fill:#6a6464;"/></g><path d="M667.81,1277.16l6.088,-26.939c-0,-0 3.846,-20.894 9.346,-32.894c5.5,-12 18.5,-13.5 27,-20.5c8.5,-7 17.5,-15 17.5,-15" style="fill:none;stroke:#d7a573;stroke-width:3.51px;"/><path d="M745.244,613.827c0,0 -32,-7.5 -55.5,-4c-23.5,3.5 -14.5,3 -14.5,3" style="fill:none;stroke:#d7a573;stroke-width:3.51px;"/><path d="M757.244,641.827c0,0 -32,-7.5 -55.5,-4c-23.5,3.5 -14.5,3 -14.5,3" style="fill:none;stroke:#d7a573;stroke-width:3.51px;"/><path d="M765.758,670.619c-0,-0 -32.043,-7.314 -55.522,-3.677c-23.48,3.637 -14.483,3.084 -14.483,3.084" style="fill:none;stroke:#d7a573;stroke-width:3.51px;"/><path d="M698.244,1276.33c0,0 1,-22 15,-40c14,-18 39.5,-30.5 39.5,-30.5" style="fill:none;stroke:#d7a573;stroke-width:3.51px;"/><path d="M730.244,1276.83c0,0 -2.5,-22 23.5,-36c26,-14 31.5,-20 31.5,-20" style="fill:none;stroke:#d7a573;stroke-width:3.51px;"/></g></svg>