<?xml version="1.0" encoding="UTF-8" standalone="no"?><!DOCTYPE svg PUBLIC "-//W3C//DTD SVG 1.1//EN" "http://www.w3.org/Graphics/SVG/1.1/DTD/svg11.dtd"><svg width="100%" height="100%" viewBox="0 0 16431 13195" version="1.1" xmlns="http://www.w3.org/2000/svg" xmlns:xlink="http://www.w3.org/1999/xlink" xml:space="preserve" xmlns:serif="http://www.serif.com/" style="fill-rule:evenodd;clip-rule:evenodd;stroke-linecap:round;stroke-linejoin:round;stroke-miterlimit:1.5;"><g><g><circle cx="6956.75" cy="6537.32" r="6537.32" style="fill:#ebf7ff;"/><g><path d="M11068.5,10109.1l78.432,1169.95c0,-0 0,117.649 339.875,124.185c339.875,6.536 2143.83,274.514 2143.83,274.514l248.371,84.969l-13.072,1352.96l-4620.99,-26.144l124.185,-2189.58l843.152,-640.533l856.224,-150.33Z" style="fill:#fbb47b;"/><path d="M13621.9,11589l-0,1519.63l771.255,0l-22.877,-1287.6c0,-0 -251.638,-232.03 -748.378,-232.03Z" style="fill:#fdd999;"/><path d="M4324.51,6033.78l-1192.35,465.537c-0,-0 -18.661,2562.16 272.988,4646.95c220.21,1574.12 -133.156,1961.64 -133.156,1961.64l6092.45,0l354.221,-6578.23l-273.253,-495.89l-1609.13,-723.104l-1376.16,200.219l-1123.58,87.707l-1012.03,435.178Z" style="fill:#e9aa76;fill-rule:nonzero;"/><path d="M7658.24,12877.3l0,-169.937l189.546,-81.701l-0,169.937l-189.546,81.701Z" style="fill:#d3f6fe;"/><path d="M7883.73,12762.9l0,-169.937l320.267,-114.381l-3.268,196.081l-316.999,88.237Z" style="fill:#d3f6fe;"/><path d="M8253.02,12710.7l-13.073,-261.443l271.247,-91.505l13.506,232.031l-271.68,120.917Z" style="fill:#d3f6fe;"/><path d="M8609.24,12596.3l-13.072,-261.443l271.246,-91.505l13.506,232.03l-271.68,120.918Z" style="fill:#d3f6fe;"/><path d="M8945.84,12478.6l-13.072,-261.443l271.246,-91.505l13.506,232.03l-271.68,120.918Z" style="fill:#d3f6fe;"/><path d="M9288.99,12367.5l6.536,-271.247l313.731,3.268l-9.371,232.03l-310.896,35.949Z" style="fill:#d3f6fe;"/><path d="M9648.47,12357.7l6.536,-271.246l313.731,3.268l-9.371,232.03l-310.896,35.948Z" style="fill:#d3f6fe;"/><path d="M10021,12364.2l6.536,-271.247l313.731,3.268l-9.37,232.03l-310.897,35.949Z" style="fill:#d3f6fe;"/><path d="M10387,12357.7l6.536,-271.246l313.73,3.268l-9.37,232.03l-310.896,35.948Z" style="fill:#d3f6fe;"/><path d="M10743.3,12357.7l6.536,-271.246l313.731,3.268l-9.371,232.03l-310.896,35.948Z" style="fill:#d3f6fe;"/><path d="M11109.3,12354.4l6.536,-271.246l313.731,3.268l-9.371,232.03l-310.896,35.948Z" style="fill:#d3f6fe;"/><path d="M11491.6,12351.2l6.536,-271.246l313.731,3.268l-9.37,232.03l-310.897,35.948Z" style="fill:#d3f6fe;"/><path d="M11883.8,12354.4l6.536,-271.246l313.731,3.268l-9.371,232.03l-310.896,35.948Z" style="fill:#d3f6fe;"/><path d="M12269.4,12354.4l6.536,-271.246l313.731,3.268l-9.37,232.03l-310.897,35.948Z" style="fill:#d3f6fe;"/><path d="M12664.9,12351.2l6.536,-271.246l313.731,3.268l-9.371,232.03l-310.896,35.948Z" style="fill:#d3f6fe;"/><path d="M7522.29,13107.9l-4.358,-257.085l1882.38,-627.462l3695.05,8.715l19.608,871.474l-5592.69,4.358Z" style="fill:#cdd8d1;"/><path d="M9527.55,12459l-3.268,607.854l3245.15,49.02l-22.876,-647.07l-3219.01,-9.804Z" style="fill:#769c82;"/><path d="M9139.75,12536.4l-6.536,539.225l-1379.11,-3.268l3.268,-49.021l1382.38,-486.936Z" style="fill:#789c82;"/><path d="M3143.13,6498.89c0,-0 -590.424,128.542 -1244.03,1278.89c-653.606,1150.35 -1660.16,3202.67 -1660.16,3202.67c-0,-0 -771.255,1856.24 457.524,2078.47c-0,0 2196.12,52.289 2431.41,26.145c235.299,-26.145 2183.04,-13.072 2183.04,-13.072l196.082,-1568.65c-0,-0 -2117.26,-325.741 -2653.22,-299.597l409.065,-1651.87l-87.04,-1508.29l-32.681,-1544.69Z" style="fill:#ffb67b;"/><path d="M6833.82,5898.66l-241.835,2993.51l-281.05,2954.3l13.072,392.163l464.06,0l-13.072,-490.204l215.69,-3117.7l202.618,-2666.71l-39.217,-176.473l-281.05,-117.649l-39.216,228.762Z" style="fill:#f8cd81;"/><path d="M5812.02,11841c-0,-0 570.816,47.931 758.183,8.715c187.367,-39.217 649.248,-283.23 758.183,-326.803c108.934,-43.574 235.298,-95.863 418.307,39.216c183.01,135.079 797.399,549.029 797.399,549.029c0,-0 100.22,135.078 52.289,183.01c-47.931,47.931 -113.292,95.862 -239.656,21.786c-126.363,-74.075 -527.242,-305.016 -527.242,-305.016c0,0 112.203,96.952 116.56,249.46c4.357,152.508 -84.969,114.381 -124.185,166.669c0,0 33.77,206.976 -22.876,259.264c-56.646,52.289 -139.436,61.003 -139.436,61.003c-0,0 -17.43,100.22 -78.433,135.079c-61.003,34.859 -117.649,78.433 -200.439,30.501c-82.79,-47.931 -239.655,-113.291 -239.655,-113.291c-0,-0 -832.259,117.649 -1058.84,139.436c-226.583,21.787 -374.734,34.859 -374.734,34.859l104.577,-1132.92Z" style="fill:#fcd8cd;"/><clipPath id="_clip1"><path d="M5812.02,11841c-0,-0 570.816,47.931 758.183,8.715c187.367,-39.217 649.248,-283.23 758.183,-326.803c108.934,-43.574 235.298,-95.863 418.307,39.216c183.01,135.079 797.399,549.029 797.399,549.029c0,-0 100.22,135.078 52.289,183.01c-47.931,47.931 -113.292,95.862 -239.656,21.786c-126.363,-74.075 -527.242,-305.016 -527.242,-305.016c0,0 112.203,96.952 116.56,249.46c4.357,152.508 -84.969,114.381 -124.185,166.669c0,0 33.77,206.976 -22.876,259.264c-56.646,52.289 -139.436,61.003 -139.436,61.003c-0,0 -17.43,100.22 -78.433,135.079c-61.003,34.859 -117.649,78.433 -200.439,30.501c-82.79,-47.931 -239.655,-113.291 -239.655,-113.291c-0,-0 -832.259,117.649 -1058.84,139.436c-226.583,21.787 -374.734,34.859 -374.734,34.859l104.577,-1132.92Z"/></clipPath><g clip-path="url(#_clip1)"><path d="M7231.43,11849.2c0,-0 274.515,-94.773 607.854,173.205" style="fill:none;stroke:#df8970;stroke-width:17.5px;"/><path d="M7198.26,12099.8c0,-0 481.268,-4.187 685.438,456.534" style="fill:none;stroke:#df8970;stroke-width:17.5px;"/><path d="M7227.68,12433.1c-0,0 288.453,38.299 453.407,404.247" style="fill:none;stroke:#df8970;stroke-width:17.5px;"/></g><path d="M6237.25,5986.54c5.007,7.504 163.99,269.181 245.821,403.916c21.863,35.994 73.969,36.235 96.217,0.483l312.868,-502.701l-546.957,-350.366l-148.433,-26.98l-0,236.134l40.484,239.514Z" style="fill:#fdd999;fill-rule:nonzero;"/><path d="M8491.56,1967.92c0,0 364.333,554.088 463.008,903.238c98.675,349.156 136.623,979.147 113.851,1320.71c-22.771,341.562 349.15,582.344 417.465,890.8c68.308,308.462 -113.852,543.761 -53.132,718.339c60.72,174.578 341.562,136.623 333.973,463.008c-7.588,326.378 -1351.07,83.491 -1351.07,83.491l-804.569,-986.736l-45.544,-1297.94l265.665,-941.192l660.351,-1153.72Z" style="fill:#e68182;fill-rule:nonzero;"/><path d="M7755.3,6064.13c-5.006,7.504 -226.016,215.899 -370.182,326.326c-33.426,25.608 -73.962,36.236 -96.211,0.484l-312.875,-502.701l546.957,-350.366l232.311,-246.259l276.62,465.531l-276.62,306.985Z" style="fill:#fdd999;fill-rule:nonzero;"/><path d="M6092.43,4709.57c-0,0 84.094,271.687 119.52,489.279c35.419,217.585 70.844,344.084 70.844,344.084c0,0 420.988,318.796 562.18,354.215c141.179,35.419 621.899,-80.962 839.484,-430.112l70.845,-136.623l-4.712,-748.921l-1658.16,128.078Z" style="fill:#f8c3b4;fill-rule:nonzero;"/><path d="M8508.58,1905c0,-0 -32.203,-642.972 -571.107,-976.945c-538.905,-333.967 -1153.72,-503.956 -2034.19,-183.663c-880.466,320.293 -1161.31,1231.12 -1176.49,1436.06c-15.177,204.938 -258.063,683.122 -356.745,1032.28c-98.668,349.149 242.893,546.492 265.665,903.237c22.771,356.745 -227.71,796.981 -561.683,1085.4c-333.966,288.43 -273.246,622.403 -341.561,948.787c-68.315,326.378 -622.396,721.078 -599.631,1146.13c22.771,425.053 478.191,1252.39 516.139,1669.85c37.949,417.471 -187.648,1103.58 2.106,1429.97c189.755,326.384 1394.5,1370.84 2047.27,232.301c652.762,-1138.54 447.824,-1753.35 667.939,-2178.4c220.115,-425.06 341.561,-1586.37 242.887,-1882.38c-98.669,-296.018 -174.572,-789.392 -250.475,-941.192c-75.903,-151.807 -138.458,-766.89 -138.458,-766.89l2104.33,-2054.16l184.003,73.374l0,-973.755Z" style="fill:#e68182;fill-rule:nonzero;"/><path d="M5242.16,1768.05c0,-0 316.372,-828.256 1138.98,-973.278c822.609,-145.022 1303.32,37.144 1698.02,366.058c394.693,328.908 500.956,829.864 516.139,1599.01l0,45.537c0,-0 101.198,20.242 121.44,161.931c20.243,141.682 35.426,617.344 -30.353,683.122c-65.785,65.779 -153.349,96.139 -238.599,101.205c-85.256,5.059 -247.187,-0 -247.187,-0l-2828.64,161.924c-0,0 -175.291,5.059 -269.809,-156.865c-94.518,-161.925 -89.459,-652.763 -84.4,-688.182c5.059,-35.425 84.4,-86.028 84.4,-86.028l-28.739,-308.665c0,0 33.883,-541.44 168.748,-905.773" style="fill:#6b6464;fill-rule:nonzero;"/><path d="M8358.26,3005.31c0,1226.16 -736.529,2142.61 -1513.29,2135.35c-720.336,-6.739 -1447.18,-890.123 -1447.18,-2116.28c-0,-1226.16 572.324,-2193.37 1447.18,-2058.37c1740.36,268.56 1513.29,813.141 1513.29,2039.3Z" style="fill:#fcd8cd;fill-rule:nonzero;"/><path d="M6055.09,2805.38l-920.95,-91.086c-0,-0 -40.485,-253.005 -30.36,-425.053c10.117,-172.042 313.73,-855.165 500.956,-1001.91c187.225,-146.741 581.918,-384.575 1153.72,-389.634c571.8,-5.059 881.594,-7.443 1239.74,308.672c561.259,495.392 356.463,1538.52 372.32,1610.73c-0,-0 -498.939,-334.121 -560.967,-797.851c-273.24,-222.645 -464.116,735.531 -1754.46,786.133" style="fill:#e68182;fill-rule:nonzero;"/><path d="M5110.48,11344.3l-278.872,1764.74l845.33,0l291.944,-1481.51c0,-0 -431.38,-305.016 -858.402,-283.23Z" style="fill:#fdd999;"/><circle cx="5269.53" cy="12727.8" r="147.061" style="fill:#6b6464;"/><circle cx="6602.88" cy="11381.3" r="107.845" style="fill:#6b6464;"/><circle cx="6674.78" cy="10342.1" r="107.845" style="fill:#6b6464;"/><circle cx="6753.21" cy="9302.86" r="107.845" style="fill:#6b6464;"/><circle cx="6838.18" cy="8224.41" r="107.845" style="fill:#6b6464;"/><circle cx="6936.22" cy="6976.02" r="107.845" style="fill:#6b6464;"/><circle cx="6975.44" cy="6204.77" r="107.845" style="fill:#6b6464;"/><path d="M8048.44,6109.99c0,-0 26.145,-196.082 339.875,-169.938c313.731,26.145 7137.38,0 7137.38,0c0,0 496.741,-65.36 392.164,392.164c-104.577,457.524 -705.894,4588.31 -705.894,4588.31c-0,0 13.072,248.37 -405.236,248.37l-7346.53,0c0,0 -209.154,0 -156.865,-287.586c52.288,-287.587 745.11,-4771.32 745.11,-4771.32Z" style="fill:#cdd8d1;"/><path d="M11874.9,7578.37c511.427,135.675 810.699,682.868 667.891,1221.18c-142.808,538.314 -673.963,865.206 -1185.39,729.531c-511.427,-135.675 -810.699,-682.869 -667.891,-1221.18c142.808,-538.314 673.963,-865.205 1185.39,-729.53Z" style="fill:#9ebfc2;"/><path d="M11408,9400.9l-372.555,3307.25c0,-0 111.113,124.185 163.402,26.144c52.288,-98.041 437.915,-3346.46 437.915,-3346.46l-228.762,13.072Z" style="fill:#9fbfc2;"/><path d="M9717.32,13097c-0,0 575.173,-740.753 1437.93,-705.894c862.76,34.859 1185.2,461.881 1324.64,705.894l-2762.57,0Z" style="fill:#9fbfc2;"/><path d="M12108.4,8556.66c0,-103.711 -84.2,-187.911 -187.912,-187.911l-568.637,-0c-103.711,-0 -187.911,84.2 -187.911,187.911c-0,103.712 84.2,187.912 187.911,187.912l568.637,-0c103.712,-0 187.912,-84.2 187.912,-187.912Z" style="fill:#cdd8d1;"/><circle cx="11347.5" cy="8549.03" r="86.603" style="fill:#9fbfc2;"/><circle cx="11648.2" cy="8555.57" r="86.603" style="fill:#9fbfc2;"/><circle cx="11926" cy="8558.84" r="86.603" style="fill:#9fbfc2;"/><circle cx="13453.3" cy="10809.7" r="122.006" style="fill:#97c7a5;"/><path d="M13416.7,10829.8c-4.452,-7.892 -6.994,-17.003 -6.994,-26.704c0,-30.061 24.406,-54.467 54.468,-54.467c29.757,-0 53.973,23.915 54.459,53.557l2.187,0.049c-0,0 4.357,727.681 -23.966,1001.97c-28.323,274.286 -165.58,575.173 -416.129,864.939c-250.549,289.765 -681.929,411.771 -681.929,411.771l-0.406,-0.484c-8.906,1.916 -63.182,12.605 -190.72,18.612c-842.38,39.675 -4867.78,1.164 -4867.78,1.164l-75.165,-65.36c0,-0 4856.28,24.487 5067.68,-33.178l-1.143,-1.365l113.292,-26.144c348.589,-117.649 625.283,-420.487 849.687,-753.826c202.279,-300.472 137.252,-1213.44 122.464,-1390.53Z" style="fill:#c8e7e2;"/><path d="M5897.63,13114.7c-0,-0 -0,-588.246 509.812,-575.173c509.813,13.072 832.258,383.448 976.052,570.815l-1485.86,4.358Z" style="fill:#97c7a5;"/><circle cx="13858.5" cy="10809.7" r="122.006" style="fill:#97c7a5;"/><circle cx="13852" cy="10816.2" r="54.467" style="fill:#c3f1e8;"/><path d="M13803.2,10819l19.608,1884.56c-0,-0 10.893,130.721 -130.721,246.192c-141.615,115.47 -311.552,178.652 -474.954,139.435c-163.401,-39.216 -538.135,-727.681 -538.135,-727.681l-78.433,52.289c-0,-0 320.267,562.101 405.235,649.248c84.969,87.148 206.976,165.58 418.308,115.471c211.333,-50.11 479.311,-188.414 479.311,-398.7c0,-211.333 0,-1189.56 0,-1189.56l2.179,-775.612l-102.398,4.357Z" style="fill:#c8e7e2;"/><circle cx="12646.3" cy="12398.6" r="50.11" style="fill:#c8e7e2;"/><path d="M7759.55,13102.8l13.072,-104.577l1352.96,-470.596l13.072,568.637l-1379.11,6.536Z" style="fill:none;"/><path d="M14188.3,12067.8c0,0 570.816,-361.662 810.471,-405.235c239.656,-43.574 152.508,1211.35 152.508,1211.35l45.753,241.834l-925.942,-2.179l-82.79,-1045.77Z" style="fill:#fcd8cd;"/><path d="M14944.3,11410.9l58.825,1581.73c-0,0 39.216,117.649 156.865,124.186c117.649,6.536 830.08,-19.609 830.08,-19.609c-0,0 150.329,0 163.401,-130.721c13.072,-130.721 98.041,-1581.73 98.041,-1581.73c-0,0 32.68,-117.649 -104.577,-111.113c-137.257,6.536 -1130.74,13.072 -1130.74,13.072c-0,0 -78.433,19.608 -71.897,124.185Z" style="fill:#f16b6b;"/><path d="M16269,11762.8c0,0 156.866,4.358 143.794,213.511c-13.072,209.154 -69.718,139.436 -100.22,174.295c0,0 117.649,43.574 117.649,191.725c0,148.15 -56.646,156.865 -104.577,178.652c0,-0 113.292,52.288 100.22,161.223c-13.072,108.934 -47.931,178.652 -100.22,191.724c0,0 47.931,143.793 -39.216,191.724c-87.148,47.932 -257.085,65.361 -352.947,34.859c-95.862,-30.501 -344.233,-82.79 -383.449,-161.222c-39.216,-78.433 -17.429,-69.718 17.429,-78.433c0,-0 -104.576,-56.646 -108.934,-152.508c-4.357,-95.862 34.859,-187.367 87.148,-191.724c-0,-0 -117.649,-61.004 -100.22,-200.44c0,0 -8.715,-122.006 69.718,-135.078c0,-0 -69.718,-108.934 -13.072,-169.938c-0,0 261.442,-204.796 370.377,-230.94l396.52,-17.43Z" style="fill:#fcd8cd;"/><clipPath id="_clip2"><path d="M16269,11762.8c0,0 156.866,4.358 143.794,213.511c-13.072,209.154 -69.718,139.436 -100.22,174.295c0,0 117.649,43.574 117.649,191.725c0,148.15 -56.646,156.865 -104.577,178.652c0,-0 113.292,52.288 100.22,161.223c-13.072,108.934 -47.931,178.652 -100.22,191.724c0,0 47.931,143.793 -39.216,191.724c-87.148,47.932 -257.085,65.361 -352.947,34.859c-95.862,-30.501 -344.233,-82.79 -383.449,-161.222c-39.216,-78.433 -17.429,-69.718 17.429,-78.433c0,-0 -104.576,-56.646 -108.934,-152.508c-4.357,-95.862 34.859,-187.367 87.148,-191.724c-0,-0 -117.649,-61.004 -100.22,-200.44c0,0 -8.715,-122.006 69.718,-135.078c0,-0 -69.718,-108.934 -13.072,-169.938c-0,0 261.442,-204.796 370.377,-230.94l396.52,-17.43Z"/></clipPath><g clip-path="url(#_clip2)"><path d="M15471.6,12174c0,0 689.554,-3.268 924.852,-22.876" style="fill:none;stroke:#e6a592;stroke-width:17.5px;"/><path d="M15520.6,12517.1c0,0 647.07,19.608 882.368,0" style="fill:none;stroke:#e6a592;stroke-width:17.5px;"/><path d="M15510.8,12850.5c20.507,41.014 675.701,99.745 879.1,16.34" style="fill:none;stroke:#e6a592;stroke-width:17.5px;"/></g><path d="M7616.33,3066.53c0,-50.503 -41.002,-91.505 -91.504,-91.505c-50.503,-0 -91.505,41.002 -91.505,91.505l-0,217.868c-0,50.503 41.002,91.505 91.505,91.505c50.502,-0 91.504,-41.002 91.504,-91.505l0,-217.868Z" style="fill:#359a79;"/><path d="M7305.74,2543.03c0,0 151.793,-50.108 324.571,-9.205c94.419,22.353 194.914,71.018 280.762,169.053c9.222,11.358 25.93,13.092 37.288,3.87c11.358,-9.222 13.092,-25.93 3.87,-37.288c-87.953,-116.963 -196.905,-179.192 -300.779,-212.114c-195.603,-61.993 -374.908,-15.88 -374.908,-15.88c-28.028,8.057 -44.241,37.353 -36.184,65.381c8.057,28.027 37.353,44.24 65.38,36.183l0,0Z" style="fill:#e77f81;"/><path d="M6880.65,3089.08c0,0 -8.518,210.529 -31.652,395.426c-13.689,109.407 -31.324,209.786 -56.861,248.468c-41.584,62.986 -34.612,99.857 -11.526,121.675c22.52,21.282 67.629,29.061 111.335,33.929c9.09,1.186 17.434,-5.232 18.619,-14.323c1.186,-9.091 -5.232,-17.434 -14.323,-18.62c-35.013,-5.237 -72.084,-9.755 -89.558,-27.558c-5.418,-5.519 -7.188,-12.99 -5.391,-22.808c2.403,-13.121 10.529,-28.962 24.821,-48.936c23.508,-32.854 44.743,-108.538 61.919,-198.325c37.812,-197.664 58.721,-464.993 58.721,-464.993c1.086,-18.242 -12.843,-33.933 -31.084,-35.019c-18.242,-1.086 -33.934,12.843 -35.02,31.084Z" style="fill:#dd9f8e;"/><path d="M6296.05,4071.45l1192.83,6.537c0,-0 -65.36,535.956 -617.657,526.152c-552.297,-9.804 -575.173,-532.689 -575.173,-532.689Z" style="fill:#be7877;"/><clipPath id="_clip3"><path d="M6296.05,4071.45l1192.83,6.537c0,-0 -65.36,535.956 -617.657,526.152c-552.297,-9.804 -575.173,-532.689 -575.173,-532.689Z"/></clipPath><g clip-path="url(#_clip3)"><ellipse cx="6541.15" cy="4504.47" rx="677.571" ry="331.16" style="fill:#e87f7e;"/></g><path d="M5281.87,3857.4c0,-0 200.439,941.192 640.534,1350.79l69.718,-34.859c-0,-0 -348.59,-181.833 -644.891,-1302.85l-65.361,-13.072Z" style="fill:#6b6464;"/><path d="M6292.35,5238.81c99.678,120.415 104.65,281.05 11.097,358.492c-93.553,77.442 -250.432,42.554 -350.11,-77.861c-99.678,-120.415 -104.651,-281.05 -11.098,-358.492c93.553,-77.442 250.433,-42.554 350.111,77.861Z" style="fill:#6b6464;"/></g><ellipse id="Oval" cx="6172.35" cy="3183.72" rx="119.862" ry="221.788" style="fill:#6a6464;"/><ellipse id="Oval1" serif:id="Oval" cx="7529.28" cy="3160.16" rx="119.862" ry="221.788" style="fill:#6a6464;"/></g></g></svg>