<?xml version="1.0" encoding="UTF-8" standalone="no"?><!DOCTYPE svg PUBLIC "-//W3C//DTD SVG 1.1//EN" "http://www.w3.org/Graphics/SVG/1.1/DTD/svg11.dtd"><svg width="100%" height="100%" viewBox="0 0 4051 4071" version="1.1" xmlns="http://www.w3.org/2000/svg" xmlns:xlink="http://www.w3.org/1999/xlink" xml:space="preserve" xmlns:serif="http://www.serif.com/" style="fill-rule:evenodd;clip-rule:evenodd;stroke-linecap:round;stroke-linejoin:round;stroke-miterlimit:1.5;"><g><circle cx="2025.14" cy="2025.14" r="2025.14" style="fill:#ebf7ff;"/><g><path d="M2315.55,2336.47c-0,-0 162.162,641.787 175.465,663.734c13.302,21.948 64.874,45.234 115.635,30.678c50.76,-14.556 279.102,-18.567 321.68,-23.673c42.578,-5.106 52.833,46.508 69.056,139.412c16.223,92.904 19.976,184.931 10.491,204.7c-9.485,19.769 -15.937,21.051 -46.046,27.033c-30.108,5.982 -74.417,19.256 -91.629,28.265c-17.212,9.008 -61.107,35.613 -95.937,34.709c-34.83,-0.904 -399.558,59.266 -420.21,67.84c-20.651,8.574 -150.116,32.061 -238.505,-120.276c-88.39,-152.337 -84.816,-258.116 -84.816,-258.116l-53.619,-444.273l155.533,-235.451l182.902,-114.582Z" style="fill:#ffb170;"/><path d="M2974.52,3010.04c-0,-0 50.072,55.963 55.227,101.617c5.154,45.654 3.681,193.663 -1.473,217.963c-5.155,24.299 -16.936,47.863 -28.718,52.281c-11.782,4.418 -58.678,19.194 -70.691,30.927c-31.663,30.927 -106.772,34.609 -106.772,34.609c0,-0 -69.218,-108.245 -74.372,-159.054c-5.155,-50.808 -5.155,-138.435 8.1,-187.035c13.254,-48.6 41.972,-107.508 41.972,-107.508l176.727,16.2Z" style="fill:#fcd899;"/><path d="M2946.79,3038.19c-0,0 107.11,-29.105 144.162,-84.53c37.051,-55.425 51.286,-90.668 78.838,-115.144c27.552,-24.476 84.379,-76.006 100.765,-111.676c16.386,-35.67 41.773,-48.539 54.207,-19.712c12.434,28.827 -3.126,91.159 -23.806,122.094c-20.68,30.935 -45.24,70.465 -45.24,70.465l9.863,21.513l332.511,-87.301c0,-0 95.069,-27.831 109.675,-16.202c14.605,11.629 6.409,32.259 6.409,32.259c-0,0 -25.423,40.819 -132.533,69.925c-107.111,29.105 -114.431,37.266 -114.431,37.266c-0,-0 -16.792,16.749 5.141,14.627c21.934,-2.122 260.659,-55.142 260.659,-55.142c0,0 41.289,-5.968 46.416,19.84c5.128,25.807 -26.291,47.698 -53.387,51.964c-27.097,4.266 -229.71,64.641 -229.71,64.641c0,-0 -19.797,12.875 -0.883,18.059c18.914,5.185 248.98,-1.404 248.98,-1.404c0,-0 38.277,-4.252 34.375,21.114c-3.902,25.366 -18.978,45.128 -100.253,46.745c-81.275,1.617 -174.591,4.509 -179.341,19.983c-4.75,15.475 12.882,14.207 30.942,15.09c18.059,0.883 157.807,6.65 157.351,26.86c-0.456,20.21 -9.941,39.979 -39.608,36.931c-29.667,-3.048 -218.907,23.374 -241.275,28.935c-22.368,5.562 -152.729,58.289 -230.13,56.901c-77.4,-1.388 -118.227,-21.221 -153.933,-9.656c-35.705,11.566 -105.38,20.938 -105.38,20.938c-35.675,-103 -39.651,-202.84 29.616,-295.383Z" style="fill:#fcd8cd;"/><g><path d="M2224.71,1028.91c0,0 -85.397,220.74 -57.85,289.065c27.548,68.324 39.825,68.612 114.204,159.273c74.378,90.661 -78.682,266.523 -56.644,340.103c22.038,73.58 195.706,191.545 195.706,191.545c-0,0 107.382,135.026 9.589,320.29c-97.794,185.264 -118.23,248.845 -118.23,248.845c-0,-0 -389.798,-109.056 -404.949,-122.195c-15.151,-13.14 -168.04,-377.097 -168.04,-377.097l-97.793,-462.503l73.001,-216.798l188.7,-365.272l141.87,-73.58l112.945,43.36l67.491,24.964Z" style="fill:#e68182;"/><path d="M1874.02,1809.49c0,0 134.482,116.879 181.074,161.104c46.592,44.225 194.309,380.121 219.723,441.194c25.414,61.072 118.598,526.483 101.656,612.827c-16.943,86.343 -69.888,263.242 -101.656,366.433c-31.767,103.19 -129.187,416.975 -127.069,492.788c2.118,75.814 23.296,92.662 23.296,92.662l27.532,67.39l-1206.18,26.953c0,-0 90.766,-747.163 95.002,-890.367c4.236,-143.203 -282.344,-374.877 -297.168,-488.597c-14.825,-113.721 50.698,-531.577 50.698,-531.577c0,-0 55.356,-163.941 144.305,-201.847c88.948,-37.907 338.687,-233.2 338.687,-233.2c-0,-0 192.721,-54.755 245.667,-50.543c52.945,4.212 304.436,134.78 304.436,134.78Z" style="fill:#e9aa76;"/><path d="M1908.97,1990.29c0,-0 173.661,720.23 199.075,886.599c25.414,166.369 -63.535,665.475 -101.655,800.255c-38.121,134.78 -61.417,246.394 -55.064,317.996l2.118,46.331l-78.359,4.212c0,-0 23.296,-237.971 63.535,-381.175c40.238,-143.203 124.951,-659.157 97.419,-781.302c-27.531,-122.144 -139.776,-633.886 -139.776,-633.886l-29.649,-242.183l-16.943,-33.695l59.299,16.848Z" style="fill:#e9c688;"/><clipPath id="_clip1"><path d="M1908.97,1990.29c0,-0 173.661,720.23 199.075,886.599c25.414,166.369 -63.535,665.475 -101.655,800.255c-38.121,134.78 -61.417,246.394 -55.064,317.996l2.118,46.331l-78.359,4.212c0,-0 23.296,-237.971 63.535,-381.175c40.238,-143.203 124.951,-659.157 97.419,-781.302c-27.531,-122.144 -139.776,-633.886 -139.776,-633.886l-29.649,-242.183l-16.943,-33.695l59.299,16.848Z"/></clipPath><g clip-path="url(#_clip1)"><path d="M1917.24,4020.13c-10.756,-0.613 -20.126,9.941 -20.911,23.555c-0.785,13.613 7.311,25.163 18.067,25.776c10.756,0.613 20.127,-9.941 20.911,-23.554c0.785,-13.613 -7.31,-25.163 -18.067,-25.777Z" style="fill:#6a6464;"/></g><path d="M1939.14,1859.99l25.414,52.122l-30.179,78.973l-58.77,27.903l-20.648,-157.418l-9.53,-74.235l33.355,-42.645c0,0 27.002,12.636 47.651,56.86c20.649,44.225 12.707,58.44 12.707,58.44Z" style="fill:#deb875;"/><path d="M1931.74,2225.67c-14.57,3.233 -23.04,20.827 -18.903,39.267c4.138,18.439 19.326,30.785 33.895,27.553c14.57,-3.233 23.04,-20.828 18.903,-39.267c-4.137,-18.439 -19.325,-30.785 -33.895,-27.553Z" style="fill:#6a6464;"/><path d="M2012.47,2572.53c-14.964,3.32 -23.663,21.391 -19.414,40.33c4.25,18.938 19.848,31.618 34.812,28.298c14.965,-3.32 23.664,-21.391 19.414,-40.329c-4.249,-18.938 -19.848,-31.619 -34.812,-28.299Z" style="fill:#6a6464;"/><path d="M2084.54,2923.99c-10.756,-0.613 -20.126,9.941 -20.911,23.554c-0.785,13.613 7.31,25.163 18.067,25.777c10.756,0.613 20.126,-9.941 20.911,-23.555c0.785,-13.613 -7.311,-25.163 -18.067,-25.776Z" style="fill:#7a7cbb;"/><path d="M1948.04,3785.35c-13.906,-0.793 -26.019,12.851 -27.033,30.45c-1.015,17.598 9.45,32.53 23.356,33.322c13.905,0.793 26.018,-12.851 27.033,-30.449c1.015,-17.599 -9.451,-32.53 -23.356,-33.323Z" style="fill:#6a6464;"/><path d="M2045.23,3311.5c-13.905,-0.793 -26.018,12.851 -27.033,30.45c-1.015,17.598 9.451,32.529 23.356,33.322c13.906,0.793 26.019,-12.851 27.033,-30.449c1.015,-17.599 -9.45,-32.53 -23.356,-33.323Z" style="fill:#6a6464;"/><path d="M1869.26,1742.32c53.477,10.923 134.391,122.475 142.953,221.123l-16.413,74.761l-43.945,-93.714c-0,-0 -19.148,-90.519 -30.708,-117.933c-13.766,-32.642 -51.887,-84.237 -51.887,-84.237Z" style="fill:#fcd899;"/><path d="M1896.14,2016.31c-7.988,1.465 -12.524,13.172 -10.122,26.127c2.402,12.955 10.838,22.284 18.826,20.819c7.988,-1.464 12.523,-13.171 10.121,-26.126c-2.402,-12.955 -10.837,-22.284 -18.825,-20.82Z" style="fill:#6a6464;"/><path d="M2116.93,1055.52c-59.865,0 -108.468,68.443 -108.468,152.745c-0,84.301 28.538,191.359 116.732,186.906c103.458,-5.224 100.205,-102.605 100.205,-186.906c-0,-84.302 -48.603,-152.745 -108.469,-152.745Z" style="fill:#cdd8d1;"/><path d="M1893.83,1641.91c0,0 -17.355,155.66 -15.834,204.135c2.078,66.26 2.849,197.58 2.509,198.505c-7.991,21.737 -10.727,-109.281 -53.337,-130.523c-86.296,-43.019 -79.74,-62.308 -162.815,-99.601c-51.67,-23.195 -130.695,-37.693 -130.695,-37.693l48.631,-237.752l15.197,-82.633c-0,-0 10.638,-8.699 30.394,-1.45c19.756,7.248 265.95,187.012 265.95,187.012Z" style="fill:#f6bcaa;"/><path d="M1897.85,1944.49l-26.473,100.032l-301.789,-151.628l-19.061,-134.779l61.417,-47.384l285.906,233.759Z" style="fill:#fcd899;"/><path d="M1408.61,968.474c-0,-0 11.019,270.669 77.133,412.573c66.114,141.904 285.851,225.807 277.587,357.2c-8.264,131.393 -55.667,115.238 -6.082,175.679c49.586,60.44 139.56,153.787 106.503,287.807c-33.057,134.021 -41.533,607.988 -182.025,636.894c-75.453,15.525 -389.432,-53.226 -346.334,-453.153c85.397,-522.943 -290.876,-284.404 -266.215,-617.399c7.639,-103.149 130.072,-352.866 94.26,-497.398c-35.812,-144.532 -179.059,-386.295 -55.095,-520.315c123.964,-134.021 181.813,-232.565 261.701,-303.517c79.888,-70.953 327.816,-93.289 443.515,-77.522c115.7,15.767 487.591,173.438 490.346,483.525c2.755,310.087 -173.549,310.087 -223.135,338.993c-49.585,28.907 -159.775,10.512 -159.775,10.512l-267.211,-2.628l-148.757,-44.674l-96.416,-186.577Z" style="fill:#e68182;"/><path d="M1757.78,588.42c-245.162,0 -414.85,457.442 -391.863,517.688c123.149,322.755 123.891,386.257 389.109,588.639c350.532,43.36 444.203,-267.652 444.203,-607.034c0,-339.383 -196.286,-499.293 -441.449,-499.293Z" style="fill:#fcd8cd;"/><path d="M1427.14,1122.31c0,0 -46.831,-241.763 30.302,-388.922c77.133,-147.16 305.778,-231.252 468.308,-215.485c162.531,15.768 292.004,97.231 292.004,97.231c-0,0 -27.548,-52.557 -55.095,-81.463c-27.548,-28.907 -99.171,-57.813 -99.171,-57.813c-0,-0 -292.004,-112.998 -506.875,31.534c-214.87,144.532 -231.399,296.948 -242.418,365.272c-11.019,68.324 24.793,244.39 24.793,244.39l88.152,5.256Z" style="fill:#6a6464;"/><path d="M1620.73,703.389c-0,-0 35.123,242.42 -39.256,348.848c-74.378,106.428 -163.219,92.632 -163.219,92.632l-63.359,60.44c-0,0 -6.198,-509.147 203.852,-618.203c263.856,-136.991 409.08,-35.476 491.723,41.389c82.642,76.865 167.351,203.002 173.549,256.216c6.198,53.214 4.132,124.166 -18.594,159.642c-0,0 -37.19,-128.108 -144.625,-153.729c-107.435,-25.622 -314.042,-19.709 -440.071,-187.235Z" style="fill:#e68182;"/><path d="M1375.9,1042.38c-59.865,0 -108.468,68.443 -108.468,152.744c-0,84.302 28.537,191.359 116.732,186.906c103.458,-5.223 100.204,-102.604 100.204,-186.906c0,-84.301 -48.603,-152.744 -108.468,-152.744Z" style="fill:#6a6464;"/><path d="M1919.89,1092.6c0,-0 14.047,55.801 20.479,109.949c3.262,27.458 4.662,54.444 1.062,73.296c-0.463,2.108 0.441,4.281 2.262,5.439c0,-0 15.374,9.083 22.689,18.338c2.21,2.796 4.193,5.331 2.931,7.624c-2.068,3.759 -9.2,5.58 -24.239,5.99c-1.727,0 -3.128,1.402 -3.128,3.128c-0,1.727 1.401,3.129 3.128,3.129c19.339,0.527 28.105,-3.587 31.024,-8.268c2.88,-4.618 1.436,-10.688 -2.834,-16.743c-5.562,-7.887 -15.92,-15.98 -21.036,-19.728c4.11,-19.352 4.216,-46.161 2.472,-73.512c-3.539,-55.499 -14.745,-113.104 -14.745,-113.104c-1.231,-5.537 -6.726,-9.033 -12.263,-7.802c-5.537,1.231 -9.033,6.727 -7.802,12.264Z" style="fill:#eaa692;"/><path d="M1850.92,917.267c-0,0 -64.849,4.413 -123.336,29.094c-26.817,11.316 -52.264,26.681 -69.577,47.833c-1.585,1.759 -1.445,4.474 0.314,6.059c1.759,1.586 4.474,1.445 6.06,-0.314c17.946,-18.097 42.966,-30.033 68.861,-38.157c57.108,-17.918 118.355,-16.329 118.355,-16.329c7.779,-0.187 13.942,-6.653 13.755,-14.432c-0.187,-7.778 -6.654,-13.941 -14.432,-13.754Z" style="fill:#e68182;"/><path d="M2027.24,938.839c0,-0 45.94,-1.645 89.406,10.784c19.714,5.637 38.874,13.914 52.884,26.758c1.642,1.707 4.36,1.759 6.067,0.118c1.706,-1.642 1.759,-4.36 0.117,-6.067c-13.419,-15.827 -32.988,-27.487 -53.57,-36.288c-44.734,-19.128 -94.024,-23.486 -94.024,-23.486c-7.776,-0.243 -14.287,5.874 -14.53,13.65c-0.243,7.777 5.873,14.288 13.65,14.531Z" style="fill:#e68182;"/></g><path d="M944.71,2005.98c-0,0 -140.292,113.512 -188.999,262.003c-48.706,148.492 -223.023,1075.91 -212.769,1242.64c10.254,166.727 -38.453,395.977 281.984,330.849c320.436,-65.127 633.182,-179.752 712.65,-255.3c79.468,-75.549 89.722,-190.173 41.016,-320.429c-48.706,-130.256 -56.397,-166.727 -87.159,-164.122c-30.762,2.605 -153.809,-0 -223.023,26.051c-69.215,26.051 -182.008,62.523 -182.008,62.523c-0,-0 210.206,-510.602 199.952,-677.329c-10.254,-166.727 -128.175,-481.946 -225.587,-526.233c-97.413,-44.286 -116.057,19.349 -116.057,19.349Z" style="fill:#ffb170;"/><path d="M1980.38,1445.6c0,0 -118.85,-6.995 -218.013,-76.243c-0,-0 -13.125,128.704 87.497,153.186c-0,-0 74.372,22.383 130.516,-76.943Z" style="fill:#be7877;"/><clipPath id="_clip2"><path d="M1980.38,1445.6c0,0 -118.85,-6.995 -218.013,-76.243c-0,-0 -13.125,128.704 87.497,153.186c-0,-0 74.372,22.383 130.516,-76.943Z"/></clipPath><g clip-path="url(#_clip2)"><path d="M1827.28,1438.67c-56.035,-18.192 -109.488,-10.398 -119.292,17.394c-9.804,27.792 27.73,65.124 83.765,83.316c56.034,18.191 109.487,10.397 119.291,-17.395c9.804,-27.791 -27.73,-65.124 -83.764,-83.315Z" style="fill:#e89392;"/></g><path d="M1480.75,3132.23c0,0 158.936,-143.281 202.516,-213.619c43.579,-70.338 105.103,-102.902 173.035,-155.004c67.933,-52.102 335.818,-174.543 335.818,-174.543c-0,0 49.988,-13.025 57.678,6.513c7.691,19.539 -14.099,42.985 -29.48,52.102c-15.381,9.118 -237.123,147.189 -237.123,147.189l69.214,7.816c0,-0 15.381,10.42 26.917,29.958c11.536,19.539 10.254,26.051 10.254,26.051l66.651,9.118c-0,0 23.071,16.934 24.353,39.077c1.282,22.143 1.282,20.841 1.282,20.841l3.845,31.261c0,0 24.353,-2.605 32.044,14.328c7.69,16.934 2.563,53.405 2.563,53.405c0,0 -11.536,89.876 -32.043,115.928c-20.508,26.051 -56.446,21.751 -89.723,26.051c-70.143,9.062 -83.778,-2.377 -82.031,-20.841l-127.519,126.589c-0,0 -51.967,62.783 -108.364,67.993c-56.397,5.21 -70.277,-2.553 -107.448,22.196c-37.171,24.749 -142.315,97.806 -142.315,97.806l-50.124,-330.215Z" style="fill:#fcd8cd;stroke:#e5ae95;stroke-width:4.13px;"/><path d="M1445.29,1324.78l7.179,-17.12c0,0 165.129,120.947 275.583,145.247l-0.553,11.045c0,0 -48.599,-12.15 -114.872,-44.181c-66.272,-32.032 -167.337,-94.991 -167.337,-94.991Z" style="fill:#6a6464;"/><path d="M1773.17,1440.89c21.767,5.082 36.589,21.417 33.078,36.456c-3.511,15.039 -24.033,23.124 -45.8,18.042c-21.768,-5.081 -36.589,-21.416 -33.079,-36.456c3.511,-15.039 24.034,-23.123 45.801,-18.042Z" style="fill:#6a6464;"/><ellipse id="Oval" cx="1767" cy="1118.91" rx="32.153" ry="59.496" style="fill:#6a6464;"/><ellipse id="Oval1" serif:id="Oval" cx="2090" cy="1111.91" rx="32.153" ry="59.496" style="fill:#6a6464;"/><path d="M1547.46,3039.86c0,0 76.582,154.636 86.891,216.49c10.309,61.854 17.672,139.908 17.672,166.417c0,26.509 -25.036,113.399 -39.763,132.545c-14.727,19.145 -45.654,35.345 -67.745,50.072c-22.091,14.727 -147.272,1.473 -173.781,-203.235c-26.509,-204.708 11.782,-316.635 11.782,-316.635l164.944,-45.654Z" style="fill:#fcd899;"/><path d="M2090.78,2855.57l-90.324,-14.001c-2.249,-0.302 -4.319,1.279 -4.621,3.528c-0.302,2.249 1.279,4.319 3.528,4.621l90.82,10.299c1.228,0.165 2.358,-0.698 2.522,-1.925c0.165,-1.228 -0.698,-2.358 -1.925,-2.522Z" style="fill:#e5a896;"/><path d="M2183.56,2957.18l-159.844,-23.326c-2.249,-0.302 -4.319,1.279 -4.621,3.527c-0.302,2.249 1.279,4.32 3.528,4.621l160.341,19.626c1.227,0.164 2.357,-0.699 2.522,-1.926c0.164,-1.227 -0.699,-2.357 -1.926,-2.522Z" style="fill:#e5a896;"/><path d="M2017.58,3147.82c0,-0 98.937,-69.523 143.038,-67.722" style="fill:none;stroke:#e5a896;stroke-width:8.33px;"/><path d="M3262.42,2925.62c0.382,0.685 1.86,3.386 3.165,6.226c5.702,12.403 15.765,39.666 17.644,71.436c0.98,16.572 -0.595,34.217 -6.357,51.596c-2.282,6.885 -5.706,11.997 -8.977,16.025c-5.769,7.104 -11.967,9.244 -11.967,9.244c-8.096,3.755 -11.62,13.376 -7.865,21.472c3.755,8.096 13.376,11.621 21.472,7.866l22.084,-22.035c4.064,-6.841 8.063,-15.379 9.989,-26.332c4.626,-26.304 1.66,-52.051 -4.737,-74.387c-7.881,-27.516 -20.149,-49.288 -26.677,-59.071c-1.924,-2.882 -3.33,-4.755 -4.02,-5.48c-0.745,-0.781 -1.356,-1.071 -1.622,-1.126c-1.435,-0.295 -4.115,-0.108 -3.119,3.113c0.142,0.615 0.503,1.124 0.987,1.453Z" style="fill:#e5a896;"/></g></g></svg>