<?xml version="1.0" encoding="UTF-8" standalone="no"?><!DOCTYPE svg PUBLIC "-//W3C//DTD SVG 1.1//EN" "http://www.w3.org/Graphics/SVG/1.1/DTD/svg11.dtd"><svg width="100%" height="100%" viewBox="0 0 3477 3546" version="1.1" xmlns="http://www.w3.org/2000/svg" xmlns:xlink="http://www.w3.org/1999/xlink" xml:space="preserve" xmlns:serif="http://www.serif.com/" style="fill-rule:evenodd;clip-rule:evenodd;stroke-linejoin:round;stroke-miterlimit:2;"><g><circle cx="1738.27" cy="1804.59" r="1738.27" style="fill:#ebf7ff;"/><g><g><path d="M2724.46,2146.97l97.129,-149.431c0,0 99.265,-258.301 123.814,-335.151c24.549,-76.85 138.757,-385.317 138.757,-385.317c-0,0 61.907,10.674 39.492,84.322c-22.414,73.648 -53.368,228.415 -53.368,228.415c0,-0 67.244,38.425 69.379,69.378c2.134,30.954 -2.135,54.436 -2.135,54.436c-0,-0 60.839,69.378 62.974,89.658c2.135,20.28 -6.404,50.166 -6.404,50.166c0,-0 14.943,24.549 11.741,46.964c-3.202,22.414 -28.819,98.197 -37.358,105.668c-8.539,7.472 -38.425,11.741 -50.166,11.741c-11.741,0 -21.347,100.332 -35.222,125.949c-13.876,25.616 -91.793,25.616 -117.41,23.482c-25.617,-2.135 -91.793,153.7 -91.793,153.7c-0,-0 -112.073,-171.845 -149.43,-173.98Z" style="fill:#fcd8cd;"/><path d="M1524.51,1493.78c-0,-0 163.339,41.444 314.489,292.548c151.149,251.103 414.443,636.291 414.443,636.291c-0,0 309.613,-329.116 382.75,-316.927c73.137,12.19 277.92,117.02 290.11,238.915c12.189,121.895 -85.327,304.737 -121.895,404.691c-36.569,99.954 -143.836,265.731 -197.47,304.737c-53.634,39.007 -253.542,165.777 -487.58,26.817c-234.038,-138.96 -341.306,-287.672 -341.306,-287.672l-153.587,-399.815l-70.7,-387.626l-29.254,-511.959Z" style="fill:#ffb170;"/><path d="M1658.6,651.699c-0,-0 -83.766,216.521 -56.745,283.54c27.022,67.018 39.065,67.301 112.022,156.229c72.956,88.929 -77.179,261.43 -55.562,333.604c21.617,72.174 191.966,187.885 191.966,187.885c0,0 105.331,132.445 9.406,314.169c-95.925,181.723 -115.971,244.09 -115.971,244.09c0,-0 -382.348,-106.972 -397.21,-119.86c-14.861,-12.889 -164.828,-369.891 -164.828,-369.891l-95.925,-453.664l71.606,-212.655l185.094,-358.292l139.159,-72.174l110.786,42.531l66.202,24.488Z" style="fill:#e68182;"/><path d="M630.227,3542.7l1289.52,0c-36.97,-360.438 -26.541,-725.695 53.334,-1079l-60.135,-362.434c0,-0 -79.638,-261.668 -113.768,-312.052c-34.131,-50.383 -251.917,-292.547 -251.917,-292.547l-276.295,-84.514l-663.108,81.263l-136.523,121.895l-121.895,99.141l-9.751,17.878l204.783,1285.59l15.227,105.131c45.218,139.894 67.678,279.787 70.527,419.653Z" style="fill:#e9aa76;"/><path d="M1279.76,1595.98c0,0 140.732,266.885 148.858,532.933c8.126,266.049 -21.129,799.47 -27.63,853.739c-6.501,54.269 3.251,533.421 6.501,561.217l81.264,1.324c-0,0 -29.255,-497.683 -21.129,-566.512c8.127,-68.828 26.005,-800.793 24.379,-853.738c-1.625,-52.946 -6.087,-253.629 -156.624,-532.418l-55.619,3.455Z" style="fill:#fcd899;"/><path d="M1684.01,1908.22l-22.979,1230.33c0,0 382.444,87.764 484.21,24.379c101.766,-63.385 244.567,-50.383 244.567,-50.383c0,-0 -132.952,-225.912 -100.125,-485.955c32.828,-260.042 198.608,-897.147 198.608,-897.147c0,0 -192.042,183.655 -351.257,183.655c-159.215,0 -339.768,-48.758 -453.024,-4.875Z" style="fill:#ffeecf;"/><path d="M1378.49,1466.89l24.928,51.126l-29.602,77.463l-57.646,27.37l-20.255,-154.41l-9.348,-72.816l32.719,-41.83c-0,0 26.486,12.394 46.74,55.774c20.254,43.379 12.464,57.323 12.464,57.323Z" style="fill:#deb875;"/><path d="M1309.94,1351.47c52.455,10.714 131.822,120.135 140.22,216.898l-16.099,73.332l-43.105,-91.923c0,-0 -18.782,-88.789 -30.121,-115.679c-13.503,-32.018 -50.895,-82.628 -50.895,-82.628Z" style="fill:#fcd899;"/><path d="M1552.88,677.797c-58.722,0 -106.396,67.135 -106.396,149.826c0,82.69 27.993,187.702 114.502,183.334c101.48,-5.124 98.289,-100.644 98.289,-183.334c0,-82.691 -47.674,-149.826 -106.395,-149.826Z" style="fill:#6a6464;"/><path d="M1334.04,1252.99c0,0 -17.023,152.685 -15.532,200.234c2.039,64.994 -16.708,169.425 -17.042,170.333c-7.838,21.321 8.982,-82.814 -32.814,-103.65c-84.648,-42.198 -78.216,-61.117 -159.704,-97.698c-50.682,-22.752 -128.197,-36.972 -128.197,-36.972l47.701,-233.209l14.907,-81.054c-0,-0 10.435,-8.532 29.813,-1.422c19.379,7.11 260.868,183.438 260.868,183.438Z" style="fill:#f6bcaa;"/><path d="M1337.98,1549.78l-25.967,98.12l-296.022,-148.73l-18.696,-132.204l60.243,-46.478l280.442,229.292Z" style="fill:#fcd899;"/><path d="M858.097,592.413c0,0 10.809,265.497 75.659,404.689c64.851,139.193 280.389,221.492 272.283,350.374c-8.107,128.882 -54.604,113.036 -5.966,172.321c48.638,59.286 136.892,150.849 104.467,282.308c-32.425,131.46 -40.738,596.369 -178.546,624.723c-74.011,15.228 -381.99,-52.209 -339.715,-444.493c83.765,-512.95 -285.318,-278.97 -261.128,-605.601c7.493,-101.178 127.586,-346.123 92.458,-487.893c-35.127,-141.77 -175.637,-378.912 -54.042,-510.372c121.595,-131.459 178.339,-228.12 256.701,-297.717c78.361,-69.596 321.551,-91.506 435.039,-76.04c113.489,15.466 478.273,170.124 480.975,474.285c2.703,304.161 -170.232,304.161 -218.87,332.515c-48.638,28.354 -156.723,10.311 -156.723,10.311l-262.104,-2.578l-145.914,-43.82l-94.574,-183.012Z" style="fill:#e68182;"/><path d="M1200.59,219.623c-240.477,-0 -406.922,448.7 -384.375,507.794c120.796,316.587 121.523,378.876 381.673,577.391c287.991,35.55 435.715,-262.538 435.715,-595.434c0,-332.897 -192.535,-489.751 -433.013,-489.751Z" style="fill:#fcd8cd;"/><path d="M876.269,743.312c0,-0 -45.935,-237.143 29.724,-381.491c75.659,-144.347 299.934,-226.832 459.358,-211.366c159.424,15.466 286.424,95.373 286.424,95.373c-0,-0 -27.022,-51.553 -54.043,-79.907c-27.021,-28.354 -97.276,-56.708 -97.276,-56.708c0,0 -286.423,-110.838 -497.188,30.932c-210.764,141.77 -226.977,291.273 -237.785,358.291c-10.808,67.019 24.319,239.72 24.319,239.72l86.467,5.156Z" style="fill:#6a6464;"/><path d="M1066.16,332.394c0,0 34.452,237.787 -38.505,342.181c-72.957,104.395 -160.1,90.862 -160.1,90.862l-62.148,59.286c-0,-0 -6.08,-499.417 199.956,-606.389c258.814,-134.374 401.263,-34.798 482.326,40.598c81.064,75.395 164.153,199.122 170.233,251.319c6.08,52.197 4.053,121.793 -18.239,156.592c-0,-0 -36.479,-125.66 -141.861,-150.792c-105.382,-25.132 -308.04,-19.332 -431.662,-183.657Z" style="fill:#e68182;"/><path d="M826.01,664.909c-58.722,0 -106.396,67.135 -106.396,149.825c-0,82.691 27.992,187.703 114.502,183.335c101.48,-5.124 98.289,-100.644 98.289,-183.335c0,-82.69 -47.674,-149.825 -106.395,-149.825Z" style="fill:#6a6464;"/><path d="M1359.41,714.212c0,-0 13.806,54.717 20.143,107.818c3.212,26.919 4.602,53.376 1.082,71.862c-0.462,2.108 0.441,4.28 2.262,5.438c0,0 15.071,8.889 22.243,17.955c2.147,2.713 4.1,5.163 2.876,7.391c-2.021,3.677 -9.001,5.444 -23.711,5.854c-1.727,-0 -3.129,1.401 -3.129,3.128c0,1.726 1.402,3.128 3.129,3.128c19.01,0.529 27.624,-3.532 30.496,-8.132c2.841,-4.551 1.427,-10.538 -2.779,-16.509c-5.437,-7.719 -15.549,-15.641 -20.589,-19.341c4.031,-18.985 4.146,-45.266 2.45,-72.081c-3.442,-54.452 -14.407,-110.973 -14.407,-110.973c-1.232,-5.537 -6.727,-9.033 -12.264,-7.802c-5.537,1.232 -9.033,6.727 -7.802,12.264Z" style="fill:#eaa692;"/><path d="M1239.09,547.073c-0,0 -64.435,0.073 -123.948,20.804c-27.339,9.523 -53.557,23.026 -72.089,42.918c-2.295,2.164 -2.402,5.785 -0.237,8.081c2.165,2.295 5.786,2.401 8.081,0.237c19.046,-15.766 44.32,-24.764 70.093,-30.146c56.958,-11.894 115.956,-4.389 115.956,-4.389c10.349,0.591 19.232,-7.331 19.824,-17.681c0.591,-10.349 -7.331,-19.232 -17.68,-19.824Z" style="fill:#e68182;"/><path d="M1444.15,594.452c-0,-0 44.438,-2.574 86.847,8.734c19.183,5.116 37.857,12.613 51.643,24.804c2.177,2.284 5.799,2.37 8.082,0.193c2.284,-2.177 2.37,-5.799 0.193,-8.082c-12.974,-16.163 -32.186,-28.166 -52.5,-37.505c-44.047,-20.251 -92.925,-25.686 -92.925,-25.686c-10.359,-0.37 -19.071,7.741 -19.441,18.101c-0.37,10.36 7.741,19.071 18.101,19.441Z" style="fill:#e68182;"/><path d="M1443.01,3037.18c11.313,0.302 20.185,12.271 19.8,26.713c-0.385,14.442 -9.882,25.922 -21.195,25.621c-11.312,-0.302 -20.185,-12.272 -19.8,-26.714c0.385,-14.441 9.882,-25.921 21.195,-25.62Z" style="fill:#6a6464;"/><path d="M341.315,1726.64c-0,-0 146.274,112.143 204.783,229.162c58.51,117.019 102.392,565.593 102.392,565.593l-4.876,351.057l572.907,-124.333c-0,0 46.32,87.765 95.078,185.281c48.758,97.516 68.261,119.457 68.261,119.457c26.198,133.466 -416.01,449.444 -541.214,431.508c0,0 -455.887,17.431 -565.592,-72.771c-109.706,-90.203 -102.392,-136.523 -114.581,-265.731c-12.19,-129.209 46.32,-716.743 70.699,-872.768c24.379,-156.026 85.326,-500.501 112.143,-546.455Z" style="fill:#ffb170;"/><path d="M2578.9,2128.24c0,-0 302.3,208.44 319.365,299.862c17.065,91.421 23.16,67.042 32.912,58.509c9.751,-8.532 31.692,-53.634 31.692,-88.983c0,-35.35 -13.408,-76.794 10.971,-112.144c24.379,-35.349 40.225,-80.45 28.036,-103.61c-12.19,-23.16 -42.664,-63.386 -104.83,-104.83c-62.166,-41.444 -95.078,-79.232 -121.895,-80.451c-26.817,-1.219 -58.51,14.628 -79.232,37.788c-20.722,23.16 -109.705,79.232 -117.019,93.859Z" style="fill:#fcd899;"/><path d="M1164.92,2754.78c-0,0 186.499,333.992 195.031,368.123c8.533,34.13 58.51,-18.284 70.7,-60.948c12.189,-42.663 14.627,-59.728 40.225,-87.764c25.598,-28.036 20.722,-20.722 4.876,-64.604c-15.847,-43.883 -87.765,-186.5 -104.83,-209.66c-17.065,-23.16 -28.036,-29.254 -48.758,-31.692c-20.722,-2.438 -70.699,25.598 -96.297,39.006c-25.598,13.408 -34.131,28.036 -51.196,28.036c-17.065,-0 -9.751,19.503 -9.751,19.503Z" style="fill:#fcd899;"/><path d="M1467.67,2454.45c11.263,-1.108 21.555,9.665 22.969,24.043c1.414,14.377 -6.581,26.949 -17.844,28.057c-11.262,1.108 -21.554,-9.665 -22.968,-24.043c-1.414,-14.378 6.581,-26.95 17.843,-28.057Z" style="fill:#6a6464;"/><path d="M1445.33,3468.8c11.313,0.301 20.185,12.271 19.8,26.713c-0.385,14.442 -9.882,25.922 -21.195,25.62c-11.313,-0.301 -20.185,-12.271 -19.8,-26.713c0.385,-14.442 9.882,-25.922 21.195,-25.62Z" style="fill:#6a6464;"/><path d="M1378.02,2920.14c18.888,-6.009 40.45,8.688 48.121,32.799c7.672,24.112 -1.434,48.566 -20.321,54.575c-18.888,6.01 -40.45,-8.687 -48.122,-32.799c-7.671,-24.111 1.435,-48.566 20.322,-54.575Z" style="fill:#6a6464;"/><path d="M1353.04,2712.93c0,0 51.196,153.588 99.954,206.003l115.8,-7.314c0,0 247.447,-42.663 275.483,-80.45c28.036,-37.788 67.042,-140.18 75.575,-156.026c8.532,-15.846 6.094,-119.457 6.094,-119.457c0,-0 26.817,-19.503 24.379,-93.859c0,-0 124.333,-188.937 137.742,-206.003c13.408,-17.065 10.97,-15.846 10.97,-15.846c0,0 -35.349,-28.036 -68.261,-3.657c-32.912,24.379 -101.173,101.173 -124.333,124.333c-23.16,23.16 -168.215,98.735 -207.221,112.143c-39.007,13.409 -73.137,14.628 -73.137,14.628c-0,-0 25.598,-75.575 47.539,-97.516l8.532,-110.925l-119.457,81.67c0,0 -35.349,23.16 -63.385,82.889c-28.036,59.728 -146.274,269.387 -146.274,269.387Z" style="fill:#fcd8cd;"/><g><path d="M1416.92,1033.12c0,0 -114.188,-5.593 -209.462,-60.965c0,0 -12.61,102.913 84.065,122.489c0,0 71.455,17.898 125.397,-61.524Z" style="fill:#be7877;"/><clipPath id="_clip1"><path d="M1416.92,1033.12c0,0 -114.188,-5.593 -209.462,-60.965c0,0 -12.61,102.913 84.065,122.489c0,0 71.455,17.898 125.397,-61.524Z"/></clipPath><g clip-path="url(#_clip1)"><path d="M1269.82,1027.58c-53.837,-14.546 -105.192,-8.314 -114.612,13.909c-9.419,22.222 26.642,52.074 80.479,66.62c53.836,14.546 105.192,8.314 114.612,-13.909c9.419,-22.223 -26.642,-52.074 -80.479,-66.62Z" style="fill:#e89392;"/></g><path d="M902.816,936.512l6.898,-13.689c-0,-0 158.651,96.71 264.772,116.141l-0.53,8.832c-0,-0 -46.694,-9.715 -110.367,-35.328c-63.672,-25.613 -160.773,-75.956 -160.773,-75.956Z" style="fill:#6a6464;"/><path d="M1217.84,1029.36c20.913,4.063 35.153,17.125 31.78,29.151c-3.373,12.025 -23.09,18.49 -44.004,14.426c-20.913,-4.063 -35.153,-17.125 -31.78,-29.15c3.373,-12.026 23.09,-18.49 44.004,-14.427Z" style="fill:#6a6464;"/></g><path d="M1336.92,1651.6c10.56,-4.069 23.351,3.571 28.546,17.052c5.195,13.48 0.839,27.729 -9.72,31.798c-10.56,4.07 -23.351,-3.571 -28.546,-17.051c-5.195,-13.481 -0.84,-27.729 9.72,-31.799Z" style="fill:#6a6464;"/><path d="M1451.96,2049.59c11.262,-1.108 21.554,9.665 22.968,24.043c1.414,14.377 -6.581,26.95 -17.844,28.057c-11.262,1.108 -21.554,-9.665 -22.968,-24.043c-1.414,-14.377 6.581,-26.95 17.844,-28.057Z" style="fill:#6a6464;"/></g><ellipse id="Oval" cx="1193.15" cy="735.289" rx="31.033" ry="57.423" style="fill:#6a6464;"/><ellipse id="Oval1" serif:id="Oval" cx="1485.16" cy="731.799" rx="31.033" ry="57.423" style="fill:#6a6464;"/></g><path d="M1921.4,2558.45l-62.912,54.498c-0.908,0.748 -1.037,2.093 -0.289,3.001c0.749,0.908 2.094,1.037 3.002,0.289l65.5,-51.358c1.774,-1.463 2.027,-4.091 0.565,-5.865c-1.463,-1.775 -4.091,-2.028 -5.866,-0.565Z" style="fill:#dd987f;"/><path d="M2903.52,1840.4c-0,0 25.234,-27.683 50.561,-52.043c13.332,-12.824 26.675,-24.737 36.309,-31.074c9.691,-6.375 26.157,-14.315 43.484,-21.975c26.707,-11.806 55.457,-22.914 65.077,-26.581c2.167,6.701 6.657,22.542 6.469,38.255c-0.112,9.333 -1.845,18.646 -6.994,25.768c-4.843,6.698 -9.776,12.085 -14.799,16.865c-12.83,12.211 -26.212,20.594 -40.138,36.154c-6.891,7.699 -14.866,21.385 -22.296,35.995c-13.75,27.037 -25.723,57.21 -25.723,57.21c-0.047,0.117 -0.086,0.236 -0.116,0.358l-7.508,30.388c-0.074,0.298 -0.097,0.607 -0.068,0.913c0,0 5.921,59.615 6.28,104.688c0.155,19.432 -0.664,36.122 -3.562,43.915c-3.27,8.794 -7.678,16.709 -12.051,23.309c-8.343,12.592 -16.559,20.407 -16.559,20.407c-0.855,0.808 -0.894,2.158 -0.086,3.014c0.808,0.855 2.158,0.894 3.014,0.086c-0,-0 8.578,-8.048 17.303,-21.059c4.582,-6.834 9.202,-15.036 12.65,-24.155c3.053,-8.071 4.151,-25.374 4.102,-45.542c-0.103,-42.93 -5.156,-99.023 -5.678,-104.711c0,0.002 7.515,-29.71 7.515,-29.71c0.984,-2.425 12.569,-30.847 25.752,-56.415c7.232,-14.029 14.923,-27.204 21.599,-34.58c13.887,-15.345 27.217,-23.554 39.999,-35.585c5.319,-5.006 10.545,-10.653 15.684,-17.679c5.968,-8.159 8.224,-18.801 8.412,-29.534c0.385,-21.913 -7.8,-44.109 -7.8,-44.109c-0.672,-1.805 -2.679,-2.724 -4.484,-2.053c-0,0 -36.016,13.278 -68.962,27.624c-17.815,7.758 -34.732,15.844 -44.708,22.328c-9.957,6.471 -23.795,18.625 -37.598,31.755c-25.649,24.397 -51.223,52.142 -51.223,52.142c-1.554,1.695 -1.439,4.333 0.256,5.887c1.695,1.554 4.333,1.439 5.887,-0.256Z" style="fill:#dd987f;"/><path d="M2994.61,1974.91c-0,-0 50.022,-2.432 76.506,-9.453c7.098,-1.882 12.601,-4.193 15.449,-6.712c1.981,-1.752 2.969,-3.694 3.108,-5.659c0.341,-4.794 5.562,-31.129 12.254,-63.701c12.946,-63.012 31.437,-149.179 31.437,-149.179c0.013,-0.059 0.024,-0.118 0.032,-0.178l4.678,-34.733c0.163,-1.165 -0.65,-2.244 -1.815,-2.408c-1.165,-0.164 -2.244,0.649 -2.408,1.814l-5.068,34.573c-0.65,2.865 -19.72,86.976 -33.171,148.775c-7.174,32.962 -12.733,59.624 -13.136,64.483c-0.025,0.309 -0.375,0.473 -0.69,0.744c-0.635,0.549 -1.474,1.052 -2.465,1.549c-5.957,2.989 -16.665,5.183 -28.443,6.893c-25.786,3.743 -56.621,4.866 -56.621,4.866c-2.298,0.097 -4.084,2.042 -3.987,4.339c0.098,2.298 2.042,4.084 4.34,3.987Z" style="fill:#dd987f;"/><path d="M3027.01,1972.5c-0,0 9.348,19.189 18.732,32.621c4.128,5.908 8.351,10.706 11.818,12.752c6.81,4.02 16.836,7.932 28.633,3.426c8.87,-3.388 18.975,-11.717 29.302,-29.384c6.745,-11.539 14.498,-24.975 22.005,-38.058c16.95,-29.538 32.645,-57.27 32.645,-57.27c0.01,-0.017 0.019,-0.033 0.028,-0.05l25.686,-47.906c0.564,-1.033 0.183,-2.329 -0.85,-2.892c-1.033,-0.564 -2.33,-0.183 -2.893,0.85l-26.348,47.491c-0.335,0.573 -16.262,27.791 -33.441,56.758c-7.686,12.96 -15.622,26.267 -22.523,37.695c-9.403,15.568 -18.203,23.131 -26.129,26.028c-9.231,3.375 -16.963,0.022 -22.218,-3.183c-3.609,-2.201 -7.901,-8.293 -12.087,-14.994c-7.838,-12.549 -14.843,-27.479 -14.843,-27.479c-0.992,-2.075 -3.482,-2.954 -5.556,-1.961c-2.075,0.992 -2.954,3.482 -1.961,5.556Z" style="fill:#dd987f;"/><path d="M3095.91,2019.88c0,-0 32.578,-0.807 55.392,-6.228c6.577,-1.563 12.37,-3.52 16.475,-5.898c3.073,-1.781 5.288,-3.84 6.5,-6.066c2.519,-4.626 6.852,-15.691 11.605,-28.785c10.454,-28.8 23.081,-67.513 23.081,-67.513c0.12,-0.358 0.162,-0.738 0.123,-1.113c-0,-0 -2.667,-23.562 -6.783,-41.348c-1.748,-7.555 -3.79,-14.088 -5.956,-17.521c-0.62,-1.001 -1.935,-1.31 -2.935,-0.691c-1.001,0.619 -1.31,1.935 -0.691,2.935c2.466,4.061 4.543,12.724 6.27,22.042c2.744,14.799 4.462,31.252 4.792,34.542c-1.621,4.683 -13.811,39.816 -23.975,66.404c-4.809,12.578 -9.14,23.218 -11.651,27.649c-0.957,1.688 -3.065,2.974 -5.753,4.206c-5.184,2.377 -12.463,4.085 -20.276,5.372c-21.231,3.497 -46.352,3.681 -46.352,3.681c-2.299,0.037 -4.136,1.934 -4.099,4.233c0.037,2.299 1.934,4.136 4.233,4.099Z" style="fill:#dd987f;"/><path d="M3054.79,1669.67l-6.67,51.314c-0.198,1.16 0.584,2.262 1.744,2.459c1.16,0.198 2.262,-0.584 2.46,-1.744l10.681,-50.631c0.386,-2.267 -1.141,-4.42 -3.408,-4.806c-2.267,-0.386 -4.421,1.141 -4.807,3.408Z" style="fill:#dd987f;"/><path d="M1947.25,2462.15l-84.979,68.774c-0.929,0.723 -1.095,2.064 -0.372,2.992c0.723,0.928 2.064,1.095 2.992,0.372l87.48,-65.563c1.814,-1.414 2.14,-4.034 0.727,-5.848c-1.413,-1.814 -4.034,-2.14 -5.848,-0.727Z" style="fill:#dd987f;"/></g></svg>