<?xml version="1.0" encoding="UTF-8" standalone="no"?><!DOCTYPE svg PUBLIC "-//W3C//DTD SVG 1.1//EN" "http://www.w3.org/Graphics/SVG/1.1/DTD/svg11.dtd"><svg width="100%" height="100%" viewBox="0 0 3917 3836" version="1.1" xmlns="http://www.w3.org/2000/svg" xmlns:xlink="http://www.w3.org/1999/xlink" xml:space="preserve" xmlns:serif="http://www.serif.com/" style="fill-rule:evenodd;clip-rule:evenodd;stroke-linejoin:round;stroke-miterlimit:2;"><g><g><g id="Group-2"><circle id="Oval" cx="2004" cy="1990.12" r="1771.65" style="fill:#ebf7ff;"/><path d="M1364.38,2086.12l-0.093,-0.001c-0.795,0.03 -1.295,1.178 -1.363,2.502l-0.008,0.308c0,3.312 2.689,6 6,6c-1.811,-6.563 -3.435,-8.732 -4.536,-8.809Z" style="fill:#ebebeb;"/><path id="Path" d="M2033.29,780.922c67.276,-0 121.895,77.348 121.895,172.62c0,95.271 -32.07,216.26 -131.182,211.228c-116.265,-5.904 -112.608,-115.957 -112.608,-211.228c-0,-95.272 54.62,-172.62 121.895,-172.62Z" style="fill:#565656;"/><path id="Path1" serif:id="Path" d="M1912.17,750.852c0,0 95.969,249.464 65.012,326.68c-30.958,77.215 -100.613,40.092 -184.198,142.551c-83.586,102.458 7.74,213.826 -17.027,296.981c-24.765,83.154 -164.075,253.919 -164.075,253.919c0,0 -145.501,221.251 -35.601,430.623c109.899,209.372 238.373,299.951 238.373,299.951c0,0 438.049,-123.247 455.076,-138.096c17.026,-14.849 188.841,-426.168 188.841,-426.168l109.899,-522.687l-82.037,-245.01l-212.059,-412.804l-159.432,-83.155l-126.925,49.002l-75.847,28.213Z" style="fill:#e68182;"/><path id="Path2" serif:id="Path" d="M1595.67,2484.26c-53.834,81.154 -238.405,306.171 -238.405,306.171c-0,0 -307.62,-597.587 -372.988,-663.985c-65.37,-66.399 -92.286,-18.445 -176.882,-3.689c-84.595,14.755 -353.761,-55.332 -353.761,-55.332l-42.298,92.22c-0,0 16.372,199.588 151.974,541.507c135.602,341.918 298.078,717.266 489.933,842.15c191.855,124.884 396.017,-0 396.017,-0l437.702,-333.488l127.839,-784.573l-123.048,-391.016c0,0 -242.25,368.881 -296.083,450.035Z" style="fill:#ffbd74;"/><path id="Path3" serif:id="Path" d="M2284.01,1443.62c-0,-0 15.369,173.666 -11.956,221.178c-27.325,47.513 -92.223,85.195 -95.638,132.708c-3.416,47.512 -3.416,83.556 95.638,39.32c99.055,-44.236 176.481,-156.095 269.839,-198.241c58.066,-26.214 146.873,-42.598 146.873,-42.598l-54.65,-268.691l-17.078,-93.386c-0,-0 -11.956,-9.83 -34.157,-1.638c-22.202,8.191 -298.871,211.348 -298.871,211.348Z" style="fill:#f6bcaa;"/><path id="Path4" serif:id="Path" d="M3072.26,2647.06c-23.071,-215.795 131.892,-545.199 131.892,-545.199c0,-0 -130.296,-473.554 -242.251,-497.989c-100.925,-22.028 -716.025,150.695 -723.866,82.998c0,-0 -86.518,58.099 -222.062,85.765c-135.545,27.666 -163.336,121.73 -229.665,232.395c-66.331,110.664 -158.636,310.393 -173.057,412.757c-14.419,102.365 41.686,396.017 41.686,396.017c0,-0 3.19,165.335 9.57,496.006l-72.099,296.027l1438.17,104.215c-0,-0 4.316,-9.516 4.175,-27.632c-4.175,-535.129 58.063,-843.128 37.511,-1035.36Z" style="fill:#eeb06c;"/><path id="Path5" serif:id="Path" d="M3886.78,3086.92c83.634,362.426 -16.779,472.529 -221.539,588.726c-204.759,116.198 -613.828,159.465 -905.63,159.465c-291.802,-0 -484.947,-86.972 -568.581,-98.039c-83.634,-11.066 -46.143,-80.231 -46.143,-80.231c-0,-0 161.5,-260.061 193.223,-307.094c31.723,-47.032 187.456,-41.498 245.134,-55.331c57.678,-13.833 357.607,-35.966 415.286,-77.466c57.679,-41.498 66.33,-71.931 135.544,-71.931c69.215,-0 54.795,-30.432 54.795,-30.432l-95.77,-300.782c-0,-0 -199.694,-692.73 310.761,-941.724c0,-0 399.286,852.418 482.92,1214.84Z" style="fill:#ffbd74;"/><path id="Path6" serif:id="Path" d="M2289.13,1687.12c-0,-0 15.37,168.341 8.966,202.746c-6.404,34.406 356.084,-163.426 356.084,-163.426l40.988,-89.7l-20.494,-79.869l-48.674,-29.491c0,0 -203.659,131.479 -336.87,159.74Z" style="fill:#fdd999;"/><path id="Path7" serif:id="Path" d="M2829.29,682.547c-0,-0 -12.383,305.89 -86.681,466.26c-74.298,160.37 -105.256,222.736 -95.969,371.226c9.288,148.491 52.628,237.586 -3.095,305.892c-55.724,68.305 -77.394,166.309 -40.246,317.77c37.15,151.46 95.969,172.248 80.491,267.283c-15.479,95.034 -133.118,409.834 24.765,442.502c157.884,32.668 845.142,-225.706 749.174,-816.699c-95.969,-590.993 -179.554,-528.627 -269.331,-602.872c-89.777,-74.245 -123.831,-246.495 -83.586,-409.834c40.245,-163.34 201.225,-436.563 61.915,-588.023c-139.309,-151.461 -204.32,-262.829 -294.097,-343.014c-89.777,-80.185 -368.394,-105.428 -498.416,-87.609c-130.022,17.819 -547.949,196.008 -551.045,546.445c-3.095,350.438 195.033,350.438 250.757,383.106c55.724,32.669 179.554,11.879 179.554,11.879l300.288,-2.969l167.17,-50.487l108.352,-210.856Z" style="fill:#e68182;"/><path id="Path8" serif:id="Path" d="M2436.91,253.037c275.511,0 466.203,516.968 440.371,585.053c-138.394,364.755 -164.052,631.251 -437.275,665.239c-393.923,49.001 -499.191,-302.482 -499.191,-686.027c-0,-383.546 220.584,-564.265 496.095,-564.265Z" style="fill:#fcd8cd;"/><path id="Path9" serif:id="Path" d="M2808.47,856.403c0,0 52.629,-273.222 -34.053,-439.532c-86.681,-166.309 -343.628,-261.343 -526.279,-243.525c-182.649,17.819 -328.15,109.883 -328.15,109.883c0,0 30.959,-59.395 61.916,-92.064c30.958,-32.668 111.447,-65.335 111.447,-65.335c0,-0 328.15,-127.703 569.619,35.638c241.469,163.339 260.044,335.588 272.427,412.803c12.382,77.215 -27.862,276.193 -27.862,276.193l-99.065,5.939Z" style="fill:#565656;"/><path id="Path10" serif:id="Path" d="M2590.91,382.966c-0,0 -39.471,273.966 44.114,394.244c83.586,120.277 183.424,104.685 183.424,104.685l71.202,68.306c0,-0 6.965,-575.401 -229.085,-698.649c-296.519,-154.818 -459.721,-40.093 -552.593,46.775c-92.872,86.867 -188.067,229.418 -195.033,289.557c-6.965,60.138 -4.643,140.323 20.897,180.416c-0,-0 41.793,-144.779 162.527,-173.735c120.734,-28.955 352.916,-22.273 494.547,-211.599Z" style="fill:#e68182;"/><path id="Path11" serif:id="Path" d="M2866.05,766.072c67.275,-0 121.895,77.349 121.895,172.621c0,95.272 -32.07,216.26 -131.183,211.227c-116.264,-5.902 -112.609,-115.955 -112.609,-211.227c0,-95.272 54.621,-172.621 121.897,-172.621Z" style="fill:#565656;"/><path id="Path12" serif:id="Path" d="M2291.27,1615.65l-2.135,71.473l-112.29,143.152c-0,-0 -68.313,-50.79 -44.405,-103.217c23.91,-52.428 158.83,-111.408 158.83,-111.408Z" style="fill:#fdd999;"/><path id="Path13" serif:id="Path" d="M2280.16,1694.7c0,-0 -315.096,525.912 -330.467,862.595c-15.37,336.683 2.562,579.979 2.562,653.705c-0,73.726 -12.808,189.231 -12.808,189.231l58.92,2.457c0,-0 12.808,-61.438 15.37,-149.909c2.562,-88.472 -7.686,-582.437 -0,-678.281c7.685,-95.844 79.415,-422.697 143.458,-545.574c64.045,-122.876 166.515,-334.224 166.515,-334.224l-43.55,-0Z" style="fill:#fdd999;"/><g id="Group"><circle id="Oval1" serif:id="Oval" cx="1972.75" cy="3340.02" r="41.686" style="fill:#7f8ac8;"/><circle id="Oval2" serif:id="Oval" cx="1981.29" cy="3076.25" r="41.686" style="fill:#7f8ac8;"/><circle id="Oval3" serif:id="Oval" cx="1979.58" cy="2766.59" r="41.686" style="fill:#7f8ac8;"/><circle id="Oval4" serif:id="Oval" cx="1996.91" cy="2407.66" r="41.686" style="fill:#637c6c;"/><circle id="Oval5" serif:id="Oval" cx="1975.44" cy="2770.65" r="41.686" style="fill:#637c6c;"/><circle id="Oval6" serif:id="Oval" cx="1983.25" cy="3079.98" r="41.686" style="fill:#637c6c;"/><circle id="Oval7" serif:id="Oval" cx="1972.51" cy="3344.42" r="41.686" style="fill:#637c6c;"/><path id="Path14" serif:id="Path" d="M2270.38,1733.32c9.701,2.831 14.044,16.265 9.694,29.979c-4.35,13.715 -15.758,22.55 -25.458,19.718c-9.701,-2.833 -14.045,-16.266 -9.695,-29.979c4.35,-13.715 15.758,-22.55 25.459,-19.718Z" style="fill:#637c6c;"/><path id="Path15" serif:id="Path" d="M2109.47,2053.9c10.864,3.171 15.727,18.214 10.856,33.571c-4.871,15.357 -17.645,25.249 -28.508,22.079c-10.863,-3.171 -15.727,-18.214 -10.856,-33.571c4.872,-15.357 17.646,-25.251 28.508,-22.079Z" style="fill:#637c6c;"/></g><path id="Path16" serif:id="Path" d="M2430.39,3301.33c-0,0 -159.578,429.746 -205.72,461.101c-46.144,31.355 -159.578,40.577 -240.328,7.377c-80.75,-33.199 -26.916,-64.553 3.846,-114.352c30.762,-49.8 163.422,-256.373 190.338,-282.194c26.918,-25.822 74.983,-44.266 111.513,-44.266c36.529,0 140.351,-27.666 140.351,-27.666Z" style="fill:#fdd999;"/><path id="Path17" serif:id="Path" d="M2227.56,3397.7c-0,-0 -110.842,247.15 -227.2,285.422c-116.359,38.271 -280.866,7.838 -381.176,18.905c-100.31,11.066 -100.332,-5.583 -200.618,16.599c-49.316,10.908 -117.462,9.33 -102.662,-18.815c-46.97,14.57 -57.683,-7.025 -49.538,-20.09c-13.47,0.279 -39.334,-8.354 -20.333,-27.493c80.102,-80.682 168.52,-138.331 349.077,-188.129c180.556,-49.799 632.45,-66.399 632.45,-66.399Z" style="fill:#fcd8cd;"/><ellipse id="Oval8" serif:id="Oval" cx="2122.07" cy="3705.01" rx="49.812" ry="47.787" style="fill:#637c6c;"/><path id="Path18" serif:id="Path" d="M413.263,1920.79c0,0 -28.838,149.396 -11.536,206.573c17.304,57.177 28.84,55.333 65.37,77.465c36.53,22.133 342.226,64.554 438.357,-20.288c0,-0 74.982,-40.578 80.75,-73.776c5.768,-33.2 0,-44.266 -19.226,-77.466c-19.226,-33.199 -5.768,-25.821 -40.376,-64.553c-34.606,-38.733 -38.452,-42.422 -69.214,-49.8c-30.762,-7.377 -215.333,-16.599 -248.017,-16.599c-32.685,-0 -196.108,18.444 -196.108,18.444Z" style="fill:#fdd999;"/><path id="Path19" serif:id="Path" d="M502.233,1970.97c0,-0 202.379,68.81 294.602,58.98l23.057,-0c-0,-0 -20.495,-147.452 -23.057,-194.145c-2.561,-46.693 -110.155,-17.203 -148.582,-7.373c-38.426,9.831 -128.088,46.693 -128.088,46.693l-35.864,-2.457l17.932,98.302Z" style="fill:#f7c8ba;"/><path id="Path20" serif:id="Path" d="M731.088,1833.75c-0,0 141.751,-26.213 179.323,-132.707c37.573,-106.492 70.022,-208.07 93.932,-255.583c23.909,-47.512 46.111,-75.364 20.493,-91.748c-25.617,-16.384 -83.684,-3.277 -107.594,22.937c-23.91,26.214 -39.279,42.597 -47.819,93.387c-8.539,50.789 -35.865,78.641 -35.865,78.641l-64.897,-44.236c-0,0 -73.438,-142.537 -87.1,-190.05c-13.663,-47.512 -92.223,-416.143 -92.223,-416.143c0,0 -13.663,-52.427 -51.235,-47.512c-37.573,4.915 -42.696,50.789 -34.157,122.877c8.539,72.088 51.235,309.65 51.235,309.65c0,-0 -6.831,11.468 -23.91,13.107c-17.078,1.638 -47.819,-32.768 -73.437,-98.302c-25.617,-65.534 -146.874,-326.034 -146.874,-326.034c0,0 -40.988,-49.15 -75.145,-37.682c-34.156,11.469 -25.617,55.704 -15.37,86.833c10.247,31.129 160.536,401.398 160.536,401.398c0,0 17.079,34.406 -3.415,49.151c-20.494,14.745 -151.997,-81.918 -151.997,-81.918l-143.459,-95.025c0,0 -39.28,-11.468 -58.066,9.83c-18.786,21.299 5.123,70.45 35.864,93.387c30.741,22.937 211.772,155.644 211.772,155.644c-0,0 23.91,16.384 10.248,31.129c-13.664,14.745 -107.594,-26.214 -107.594,-26.214l-109.302,-55.704c-0,-0 -46.111,-9.83 -61.482,13.107c-15.371,22.937 22.201,54.066 54.65,75.364c32.449,21.299 184.447,85.195 215.188,122.877c30.741,37.682 76.853,132.706 107.593,180.219c30.742,47.512 70.022,70.449 105.887,81.918c35.864,11.468 109.302,21.298 143.458,1.638c34.157,-19.66 51.235,-47.512 51.235,-47.512l49.527,3.276Z" style="fill:#fcd8cd;"/><clipPath id="_clip1"><path id="Path21" serif:id="Path" d="M731.088,1833.75c-0,0 141.751,-26.213 179.323,-132.707c37.573,-106.492 70.022,-208.07 93.932,-255.583c23.909,-47.512 46.111,-75.364 20.493,-91.748c-25.617,-16.384 -83.684,-3.277 -107.594,22.937c-23.91,26.214 -39.279,42.597 -47.819,93.387c-8.539,50.789 -35.865,78.641 -35.865,78.641l-64.897,-44.236c-0,0 -73.438,-142.537 -87.1,-190.05c-13.663,-47.512 -92.223,-416.143 -92.223,-416.143c0,0 -13.663,-52.427 -51.235,-47.512c-37.573,4.915 -42.696,50.789 -34.157,122.877c8.539,72.088 51.235,309.65 51.235,309.65c0,-0 -6.831,11.468 -23.91,13.107c-17.078,1.638 -47.819,-32.768 -73.437,-98.302c-25.617,-65.534 -146.874,-326.034 -146.874,-326.034c0,0 -40.988,-49.15 -75.145,-37.682c-34.156,11.469 -25.617,55.704 -15.37,86.833c10.247,31.129 160.536,401.398 160.536,401.398c0,0 17.079,34.406 -3.415,49.151c-20.494,14.745 -151.997,-81.918 -151.997,-81.918l-143.459,-95.025c0,0 -39.28,-11.468 -58.066,9.83c-18.786,21.299 5.123,70.45 35.864,93.387c30.741,22.937 211.772,155.644 211.772,155.644c-0,0 23.91,16.384 10.248,31.129c-13.664,14.745 -107.594,-26.214 -107.594,-26.214l-109.302,-55.704c-0,-0 -46.111,-9.83 -61.482,13.107c-15.371,22.937 22.201,54.066 54.65,75.364c32.449,21.299 184.447,85.195 215.188,122.877c30.741,37.682 76.853,132.706 107.593,180.219c30.742,47.512 70.022,70.449 105.887,81.918c35.864,11.468 109.302,21.298 143.458,1.638c34.157,-19.66 51.235,-47.512 51.235,-47.512l49.527,3.276Z"/></clipPath><g clip-path="url(#_clip1)"><g id="Clipped"><path id="Path22" serif:id="Path" d="M820.745,1520.84c0,-0 -143.458,-14.746 -163.953,127.791c0,-0 40.989,-116.323 181.032,-109.769l-17.079,-18.022Z" style="fill:#f5b88c;"/></g></g><path id="Path23" serif:id="Path" d="M1946.31,1099.18c-0,-0 -24.766,148.49 95.968,228.675l4.798,-5.271c0,0 -52.937,-33.856 -74.762,-89.095c-21.825,-55.239 -21.361,-121.168 -19.504,-131.859c1.858,-10.692 -6.5,-2.45 -6.5,-2.45Z" style="fill:#666;"/><path id="Path24" serif:id="Path" d="M2089.34,1319.71c20.246,7.713 32.557,23.947 27.473,36.229c-5.084,12.282 -25.649,15.992 -45.895,8.279c-20.247,-7.712 -32.558,-23.946 -27.474,-36.228c5.084,-12.282 25.649,-15.992 45.896,-8.28Z" style="fill:#666;"/><path id="Path25" serif:id="Path" d="M2177.65,1251.2c0,-0 189.228,-11.137 347.112,-121.391c-0,0 20.895,204.917 -139.31,243.896c0,0 -118.412,35.638 -207.802,-122.505Z" style="fill:#955f5f;"/><clipPath id="_clip2"><path id="Path26" serif:id="Path" d="M2177.65,1251.2c0,-0 189.228,-11.137 347.112,-121.391c-0,0 20.895,204.917 -139.31,243.896c0,0 -118.412,35.638 -207.802,-122.505Z"/></clipPath><g clip-path="url(#_clip2)"><g id="Clipped1" serif:id="Clipped"><path id="Path27" serif:id="Path" d="M2421.42,1240.18c89.216,-28.963 174.321,-16.553 189.931,27.695c15.609,44.25 -44.15,103.688 -133.366,132.652c-89.216,28.964 -174.321,16.554 -189.931,-27.694c-15.609,-44.249 44.15,-103.688 133.366,-132.653Z" style="fill:#cd8281;"/></g></g><path id="Path28" serif:id="Path" d="M2233.66,818.14c-0,0 -12.798,64.969 -16.99,127.577c-2.077,31.024 -2.048,61.444 2.58,83.292c-5.542,4.023 -17.587,13.308 -23.994,22.37c-4.628,6.545 -6.282,13.112 -3.234,18.142c3.185,5.253 12.913,9.748 34.403,9.241c1.684,0 3.052,-1.368 3.052,-3.052c0,-1.685 -1.368,-3.052 -3.052,-3.052c-17.26,-0.408 -25.395,-2.623 -27.75,-6.959c-1.508,-2.773 0.657,-5.93 3.305,-9.324c8.246,-10.568 25.597,-20.992 25.597,-20.992c1.767,-1.129 2.643,-3.239 2.196,-5.288c-4.135,-21.359 -2.691,-51.966 0.875,-83.111c7.02,-61.296 22.596,-124.513 22.596,-124.513c1.195,-5.404 -2.222,-10.762 -7.627,-11.957c-5.405,-1.196 -10.763,2.222 -11.957,7.626Z" style="fill:#eaa692;"/><path id="Path29" serif:id="Path" d="M2408.57,671.973c-0,0 67.139,-16.566 134.358,-10.554c30.497,2.727 60.956,9.94 85.087,25.645c1.883,1.34 4.499,0.899 5.838,-0.985c1.34,-1.882 0.899,-4.498 -0.984,-5.838c-24.183,-18.757 -55.788,-29.147 -87.855,-34.715c-69.999,-12.154 -141.88,-0.522 -141.88,-0.522c-7.443,1.5 -12.267,8.76 -10.767,16.202c1.5,7.442 8.76,12.267 16.203,10.767Z" style="fill:#cf7c7d;"/><path id="Path30" serif:id="Path" d="M2162.01,668.903c0,-0 -54.889,-7.346 -108.36,2.563c-24.576,4.556 -48.761,12.543 -67.245,26.562c-1.913,1.293 -2.418,3.898 -1.123,5.813c1.294,1.913 3.898,2.418 5.812,1.124c18.432,-11.045 41.527,-15.886 64.615,-17.602c50.862,-3.783 101.294,8.592 101.294,8.592c7.466,1.382 14.648,-3.557 16.03,-11.022c1.382,-7.465 -3.557,-14.648 -11.023,-16.03Z" style="fill:#cf7c7d;"/><ellipse id="Oval9" serif:id="Oval" cx="2099.19" cy="853.716" rx="41.686" ry="77.134" style="fill:#6a6464;"/><ellipse id="Oval-Copy" cx="2502.94" cy="835.472" rx="41.686" ry="77.134" style="fill:#6a6464;"/></g></g></g></svg>