<?xml version="1.0" encoding="UTF-8" standalone="no"?><!DOCTYPE svg PUBLIC "-//W3C//DTD SVG 1.1//EN" "http://www.w3.org/Graphics/SVG/1.1/DTD/svg11.dtd"><svg width="100%" height="100%" viewBox="0 0 1437 1443" version="1.1" xmlns="http://www.w3.org/2000/svg" xmlns:xlink="http://www.w3.org/1999/xlink" xml:space="preserve" xmlns:serif="http://www.serif.com/" style="fill-rule:evenodd;clip-rule:evenodd;stroke-linecap:round;stroke-linejoin:round;stroke-miterlimit:1.5;"><g><circle id="Oval" cx="718.32" cy="718.32" r="718.32" style="fill:#ebf7ff;"/><g><path d="M975.011,642.671c0,-0 140.634,64.202 192.085,165.573c51.452,101.371 92.613,189.226 85.753,299.608c-6.861,110.382 -59.455,138.541 -70.889,149.805c-11.434,11.263 -78.892,-4.506 -113.193,-27.033c-34.301,-22.527 -26.297,-33.79 -37.731,-57.443c-11.433,-23.654 -61.741,-72.087 -61.741,-72.087l-48.022,-282.713l8.004,-101.371l27.441,-57.444l18.293,-16.895Z" style="fill:#f6995e;"/><g><path d="M602.648,321.168c-0,-0 4.257,103.022 29.801,157.033c25.545,54.012 110.444,85.947 107.251,135.957c-3.193,50.011 -21.508,43.862 -2.349,66.867c19.158,23.005 53.921,58.534 41.149,109.545c-12.772,51.011 -16.047,231.412 -70.329,242.414c-29.152,5.909 -150.464,-20.259 -133.812,-172.478c32.995,-199.043 -112.386,-108.25 -102.858,-234.995c2.952,-39.26 50.256,-134.307 36.419,-189.319c-13.836,-55.011 -69.182,-147.031 -21.287,-198.042c47.896,-51.01 70.248,-88.518 101.114,-115.524c30.866,-27.006 126.657,-35.508 171.36,-29.506c44.703,6.001 188.39,66.014 189.455,184.039c1.064,118.025 -67.055,118.025 -86.213,129.027c-19.158,11.002 -61.732,4.001 -61.732,4.001l-103.242,-1l-57.475,-17.004l-37.252,-71.015Z" style="fill:#e68182;"/><path d="M639.053,607.566c0,0 -164.644,37.545 -204.28,52.563c-39.637,15.018 -56.406,36.043 -56.406,36.043c-0,0 42.685,289.847 50.308,373.948c7.622,84.1 1.524,369.442 1.524,369.442l577.779,3.003c0,0 13.721,-268.821 10.672,-318.381c-3.049,-49.559 19.818,-96.115 12.196,-165.197c-7.623,-69.083 -48.784,-241.79 -48.784,-241.79l-9.147,-76.591c0,-0 -70.126,-33.04 -123.483,-31.538c-53.357,1.502 -210.379,-1.502 -210.379,-1.502Z" style="fill:#e9aa76;"/><path d="M279.466,754.93c-0,0 -19.437,3.379 -27.441,15.769c-8.003,12.39 -89.182,122.772 -101.759,139.667c-12.577,16.895 -99.473,157.689 -104.046,188.1c-4.574,30.412 1.143,103.624 18.294,128.404c17.15,24.779 60.598,19.148 93.755,21.4c33.158,2.253 82.323,-42.801 105.19,-77.718c22.867,-34.916 78.892,-50.685 96.042,-58.57c17.151,-7.884 82.322,-22.527 82.322,-22.527l-30.87,-263.565c-0,-0 -32.015,57.444 -58.312,43.927c-26.297,-13.516 -36.588,-33.79 -46.878,-50.685c-10.29,-16.895 -26.297,-64.202 -26.297,-64.202Z" style="fill:#ffb170;"/><path d="M269.176,780.836c-0,0 30.87,-27.032 37.731,-48.433c6.86,-21.401 13.72,-42.801 19.437,-57.444c5.717,-14.642 10.29,-39.422 8.003,-55.191c-2.286,-15.769 -11.433,-18.021 -2.286,-25.906c9.146,-7.884 19.437,-3.379 26.297,7.885c6.86,11.263 14.864,59.696 14.864,59.696l1.143,24.78c-0,-0 64.028,-10.137 93.756,-2.253c-0,0 19.437,4.505 14.863,24.78c0,-0 18.675,15.769 10.291,37.169c-0,0 14.101,19.899 -1.906,37.921c0,-0 5.717,16.144 -6.098,23.277c-11.815,7.134 -40.018,22.527 -50.689,33.791c-10.671,11.263 -11.434,14.267 -21.343,16.144c-9.909,1.877 -23.248,3.379 -23.248,3.379l-19.437,15.769l-18.294,10.513l-58.312,-25.531l-24.772,-80.346Z" style="fill:#fcd8cd;"/><path d="M221.726,807.681c0,-0 11.434,74.339 30.49,96.866c19.056,22.527 54.881,42.801 70.888,45.804c16.007,3.004 36.588,-6.007 36.588,-6.007c-0,0 10.671,-18.772 16.007,-27.783c5.336,-9.011 12.196,-20.274 6.098,-30.787c-6.098,-10.512 -16.77,-19.523 -16.77,-19.523c0,-0 -53.356,-51.812 -59.454,-61.574c-6.098,-9.762 -14.483,-28.534 -18.294,-36.043c-3.811,-7.509 -3.811,-20.274 -3.811,-20.274c-0,-0 -37.35,12.765 -61.742,59.321Z" style="fill:#fcd899;"/><path d="M755.676,720.201c0,-0 28.966,147.176 27.441,243.291c-1.524,96.115 -42.685,222.266 -44.21,277.833c-1.524,55.566 -10.671,196.735 -10.671,196.735l24.391,-0c0,-0 6.098,-166.699 12.196,-196.735c6.098,-30.036 44.21,-253.804 44.21,-279.335c0,-25.53 -24.391,-249.298 -24.391,-249.298l-28.966,7.509Z" style="fill:#fcd899;"/><path d="M917.961,344.173c0,-0 -32.994,84.018 -22.351,110.023c10.644,26.006 15.387,26.115 44.125,60.623c28.737,34.507 -30.4,101.443 -21.886,129.449c8.515,28.006 75.615,72.906 75.615,72.906c0,0 41.489,51.394 3.705,121.909c-37.785,70.514 -19.544,95.353 -45.681,94.715c-80.949,-1.978 -108.507,-99.268 -110.725,-106.582c-21.098,-69.578 -10.043,-143.53 -10.043,-143.53l-138.401,-115.966l28.205,-82.517l72.908,-139.03l54.814,-28.006l43.639,16.504l26.076,9.502Z" style="fill:#e68182;"/><path d="M807.628,660.495l9.819,19.839l-11.66,30.059l-29.567,18.129l-1.118,-67.425l-3.682,-28.255l12.888,-16.232c-0,0 10.432,4.809 18.41,21.642c7.978,16.833 4.91,22.243 4.91,22.243Z" style="fill:#deb875;"/><path d="M780.625,615.708c20.662,4.158 51.925,46.617 55.233,84.164l-6.342,28.455l-16.978,-35.669c-0,0 -7.398,-34.453 -11.865,-44.887c-5.319,-12.424 -20.048,-32.063 -20.048,-32.063Z" style="fill:#fcd899;"/><path d="M876.319,354.3c-23.13,0 -41.909,26.05 -41.909,58.137c-0,32.087 11.026,72.835 45.102,71.14c39.973,-1.988 38.715,-39.053 38.715,-71.14c0,-32.087 -18.778,-58.137 -41.908,-58.137Z" style="fill:#6a6464;"/><path d="M790.121,577.493c0,-0 -6.705,59.247 -6.118,77.697c0.803,25.22 -6.581,65.743 -6.712,66.095c-3.088,8.274 -22.379,2.407 -38.842,-5.678c-33.342,-16.374 -27.76,-14.705 -50.711,-40.914c-14.294,-16.323 -36.776,-45.884 -36.776,-45.884l18.789,-90.493l5.872,-31.452c0,0 4.11,-3.311 11.744,-0.552c7.633,2.759 102.754,71.181 102.754,71.181Z" style="fill:#f6bcaa;"/><path d="M750.722,695.046c-0,-0 7.403,19.439 26.569,26.239c-0,0 9.256,7.551 -5.989,8.302c-15.245,0.751 -51.832,-12.765 -51.832,-12.765l31.252,-21.776Z" style="fill:#deb875;"/><path d="M752.035,695.662l-37.669,42.579l-96.783,-99.763c-0,0 2.866,-21.472 9.405,-31.776c6.314,-9.95 34.401,-22.54 34.401,-22.54l90.646,111.5Z" style="fill:#fcd899;"/><path d="M737.554,176.512c-94.723,0 -160.285,174.112 -151.404,197.042c47.581,122.847 47.868,147.017 150.34,224.048c113.438,13.794 171.626,-101.874 171.626,-231.049c0,-129.176 -75.839,-190.041 -170.562,-190.041Z" style="fill:#fcd8cd;"/><path d="M609.806,379.722c-0,-0 -18.094,-92.02 11.707,-148.032c29.802,-56.011 118.143,-88.018 180.94,-82.017c62.797,6.001 112.821,37.008 112.821,37.008c0,-0 -10.643,-20.004 -21.287,-31.007c-10.643,-11.002 -38.316,-22.004 -38.316,-22.004c-0,-0 -112.822,-43.009 -195.841,12.002c-83.019,55.012 -89.405,113.024 -93.663,139.03c-4.257,26.005 9.579,93.019 9.579,93.019l34.06,2.001Z" style="fill:#6a6464;"/><path d="M684.603,220.272c-0,-0 13.57,92.269 -15.167,132.778c-28.738,40.508 -63.063,35.257 -63.063,35.257l-24.48,23.005c-0,0 -2.395,-193.791 78.762,-235.3c101.945,-52.141 158.056,-13.503 189.986,15.754c31.931,29.256 64.66,77.266 67.054,97.52c2.395,20.255 1.597,47.26 -7.184,60.763c-0,0 -14.369,-48.76 -55.878,-58.512c-41.51,-9.752 -121.336,-7.502 -170.03,-71.265Z" style="fill:#e68182;"/><path d="M590.008,349.299c-23.13,-0 -41.908,26.05 -41.908,58.137c-0,32.087 11.026,72.835 45.101,71.14c39.973,-1.988 38.716,-39.053 38.716,-71.14c0,-32.087 -18.778,-58.137 -41.909,-58.137Z" style="fill:#6a6464;"/><path d="M799.824,368.522c0,-0 5.477,21.19 8.011,41.768c1.284,10.417 1.858,20.656 0.489,27.816c-0.201,0.901 0.188,1.83 0.97,2.32c-0,0 5.925,3.416 8.742,6.912c0.804,0.998 1.593,1.873 1.119,2.692c-0.809,1.4 -3.537,2.057 -9.236,2.23c-0.73,-0 -1.323,0.592 -1.323,1.323c-0,0.73 0.593,1.323 1.323,1.323c7.477,0.226 10.897,-1.352 12.069,-3.122c1.204,-1.819 0.662,-4.233 -1.051,-6.643c-2.106,-2.965 -6.005,-6.012 -8.031,-7.491c1.582,-7.373 1.642,-17.543 0.997,-27.922c-1.316,-21.157 -5.598,-43.121 -5.598,-43.121c-0.528,-2.34 -2.857,-3.811 -5.197,-3.283c-2.341,0.528 -3.812,2.857 -3.284,5.198Z" style="fill:#eaa692;"/><path d="M752.541,306.511c-0,-0 -24.909,-0.514 -48.105,6.769c-10.653,3.346 -20.93,8.285 -28.291,15.665c-0.535,0.497 -0.566,1.335 -0.069,1.87c0.497,0.535 1.335,0.566 1.87,0.069c7.474,-6.432 17.534,-10.328 27.823,-12.717c22.61,-5.248 46.283,-2.976 46.283,-2.976c2.395,0.135 4.449,-1.7 4.584,-4.096c0.135,-2.395 -1.7,-4.449 -4.095,-4.584Z" style="fill:#e68182;"/><path d="M829.275,313.146c0,-0 19.771,-1.991 38.688,2.321c8.601,1.961 17.014,5.166 23.277,10.512c0.534,0.499 1.372,0.471 1.87,-0.062c0.499,-0.534 0.471,-1.371 -0.062,-1.87c-6.147,-6.295 -14.775,-10.544 -23.736,-13.463c-19.496,-6.35 -40.496,-6.121 -40.496,-6.121c-2.396,0.127 -4.238,2.176 -4.112,4.571c0.127,2.396 2.176,4.238 4.571,4.112Z" style="fill:#e68182;"/><path d="M833.754,314.675c0,0 39.084,1.375 55.917,18.767" style="fill:none;"/><g><path d="M822.766,492.178c0,0 -44.978,-2.17 -82.506,-23.656c-0,-0 -4.967,39.934 33.113,47.53c-0,-0 28.146,6.945 49.393,-23.874Z" style="fill:#be7877;"/><clipPath id="_clip1"><path d="M822.766,492.178c0,0 -44.978,-2.17 -82.506,-23.656c-0,-0 -4.967,39.934 33.113,47.53c-0,-0 28.146,6.945 49.393,-23.874Z"/></clipPath><g clip-path="url(#_clip1)"><path d="M764.823,490.028c-21.206,-5.644 -41.435,-3.226 -45.146,5.398c-3.71,8.623 10.494,20.206 31.701,25.851c21.206,5.644 41.435,3.226 45.145,-5.398c3.71,-8.623 -10.494,-20.206 -31.7,-25.851Z" style="fill:#e89392;"/></g><path d="M620.262,454.69l2.717,-5.312c0,0 62.492,37.527 104.293,45.067l-0.209,3.427c0,0 -18.392,-3.77 -43.473,-13.708c-25.08,-9.939 -63.328,-29.474 -63.328,-29.474Z" style="fill:#6a6464;"/><path d="M744.349,490.718c8.238,1.577 13.847,6.645 12.518,11.312c-1.328,4.666 -9.095,7.174 -17.333,5.598c-8.238,-1.577 -13.847,-6.646 -12.518,-11.312c1.328,-4.666 9.095,-7.175 17.333,-5.598Z" style="fill:#6a6464;"/></g><ellipse id="Oval1" serif:id="Oval" cx="734.623" cy="376.609" rx="12.224" ry="22.282" style="fill:#6a6464;"/><ellipse id="Oval2" serif:id="Oval" cx="849.644" cy="375.254" rx="12.224" ry="22.282" style="fill:#6a6464;"/></g><path d="M1148.99,845.976c0,0 -17.531,-42.801 -17.531,-57.068c-0,-14.267 -7.623,-42.801 -16.008,-57.068c-8.384,-14.267 -24.391,-72.086 -16.007,-95.364c8.385,-23.278 16.007,-29.285 9.91,-34.542c-6.098,-5.256 -35.064,-5.256 -45.735,34.542c-10.671,39.797 -6.86,55.566 -6.86,55.566c-0,0 -8.385,-2.252 -27.441,-6.007c-19.056,-3.754 -64.79,0.751 -64.79,0.751c-0,-0 -29.728,11.263 -22.105,29.285c-0,0 -22.105,22.527 -12.959,34.541c0,0 -18.293,26.282 0.763,39.047c-0,0 -9.909,24.029 16.007,33.04c25.916,9.01 49.546,11.263 62.504,24.028c12.958,12.766 11.433,15.018 19.818,15.769c8.385,0.751 22.867,12.015 22.867,12.015l6.098,19.523l91.469,-48.058Z" style="fill:#f8ccba;"/><path d="M1024.18,884.835c0,0 -6.86,3.004 -4.192,10.889c2.668,7.884 16.388,31.913 19.056,41.299c2.668,9.386 10.671,11.639 15.626,10.137c4.954,-1.502 144.445,-48.057 151.686,-66.83c7.241,-18.772 -8.385,-27.783 -10.672,-33.039c-2.286,-5.257 -13.339,-19.148 -16.007,-26.657c-2.667,-7.509 -6.098,-12.766 -8.765,-17.271c-2.668,-4.505 -61.361,35.292 -73.176,43.928c-11.814,8.635 -73.556,37.544 -73.556,37.544Z" style="fill:#f8cd8b;"/></g><path d="M942.426,716.071c-0,0 29.675,-3.388 51.038,1.103" style="fill:none;stroke:#e0b489;stroke-width:3.67px;"/><path d="M929.926,750.571c-0,0 29.675,-3.388 51.038,1.103" style="fill:none;stroke:#e0b489;stroke-width:3.67px;"/><path d="M931.926,790.321c-0,0 29.675,-3.388 51.038,1.103" style="fill:none;stroke:#e0b489;stroke-width:3.67px;"/><circle cx="778.464" cy="746.114" r="9.75" style="fill:#6a6464;"/><circle cx="791.464" cy="883.114" r="9.75" style="fill:#6a6464;"/><circle cx="784.464" cy="1072.11" r="9.75" style="fill:#6a6464;"/><circle cx="757.464" cy="1240.11" r="9.75" style="fill:#6a6464;"/><circle cx="746.464" cy="1415.11" r="9.75" style="fill:#6a6464;"/><path d="M483.244,708.374c0,-0 -34,-0.334 -48.333,0.333" style="fill:none;stroke:#e0b489;stroke-width:3.67px;"/><path d="M492.911,746.04c-0,0 -34,-0.333 -48.334,0.334" style="fill:none;stroke:#e0b489;stroke-width:3.67px;"/><path d="M491.244,784.04c0,0 -34,-0.333 -48.333,0.334" style="fill:none;stroke:#e0b489;stroke-width:3.67px;"/></g></svg>