<?xml version="1.0" encoding="UTF-8"?>
<svg width="83px" height="83px" viewBox="0 0 83 83" version="1.1" xmlns="http://www.w3.org/2000/svg" xmlns:xlink="http://www.w3.org/1999/xlink">
    <title>iconfinder__translation_2027603</title>
    <g id="Main-Site" stroke="none" stroke-width="1" fill="none" fill-rule="evenodd">
        <g id="Untuk-Individual" transform="translate(-498.000000, -1825.000000)" fill-rule="nonzero">
            <g id="Group-19" transform="translate(493.000000, 1500.000000)">
                <g id="Group-15" transform="translate(0.000000, 325.000000)">
                    <g id="Group" transform="translate(5.000000, 0.000000)">
                        <path d="M39.9190476,8.77604867e-16 C42.6857143,8.77604867e-16 44.6619048,1.97619048 44.6619048,4.74285714 L44.6619048,4.74285714 L44.6619048,39.9190476 C44.6619048,42.2904762 42.2904762,44.6619048 39.9190476,44.6619048 L39.9190476,44.6619048 L4.74285714,44.6619048 C1.97619048,44.6619048 0,42.6857143 0,39.9190476 L0,39.9190476 L0,4.74285714 C0,1.97619048 1.97619048,8.77604867e-16 4.74285714,8.77604867e-16 L4.74285714,8.77604867e-16 Z M22.5285714,5.53333333 C21.3428571,5.53333333 20.552381,6.32380952 20.552381,7.50952381 L20.552381,7.50952381 L20.552381,15.0190476 L9.88095238,15.0190476 C8.6952381,15.0190476 7.9047619,15.8095238 7.9047619,16.9952381 C7.9047619,17.7857143 8.6952381,18.5761905 9.48571429,18.5761905 L9.48571429,18.5761905 L13.0428571,18.5761905 C13.4380952,23.7142857 15.8095238,28.4571429 18.9714286,32.0142857 C16.2047619,33.5952381 13.0428571,34.7809524 9.48571429,34.7809524 C8.3,34.7809524 7.50952381,35.5714286 7.50952381,36.7571429 C7.50952381,37.9428571 8.3,38.7333333 9.48571429,38.7333333 C14.2285714,38.7333333 18.5761905,37.152381 22.1333333,34.7809524 C25.6904762,37.152381 30.0380952,38.7333333 34.7809524,38.7333333 C35.9666667,38.7333333 36.7571429,37.9428571 36.7571429,36.7571429 C36.7571429,35.5714286 35.9666667,34.7809524 34.7809524,34.7809524 C31.2238095,34.7809524 28.0619048,33.5952381 25.2952381,32.0142857 C28.4571429,28.4571429 30.8285714,23.7142857 31.2238095,18.5761905 L31.2238095,18.5761905 L35.1761905,18.5761905 C36.3619048,18.5761905 37.152381,17.7857143 37.152381,16.6 C37.152381,15.4142857 36.3619048,14.6238095 35.1761905,14.6238095 L35.1761905,14.6238095 L24.5047619,14.6238095 L24.5047619,7.50952381 C24.5047619,6.32380952 23.7142857,5.53333333 22.5285714,5.53333333 Z M27.2714286,18.5761905 C26.8761905,22.9238095 24.9,26.8761905 22.1333333,29.6428571 C19.3666667,26.8761905 17.3904762,22.9238095 16.9952381,18.5761905 L16.9952381,18.5761905 Z" id="Combined-Shape" fill="#00ACC1"></path>
                        <path d="M78.2571429,38.3380952 C81.0238095,38.3380952 83,40.7095238 83,43.0809524 L83,43.0809524 L83,78.2571429 C83,81.0238095 81.0238095,83 78.2571429,83 L78.2571429,83 L43.0809524,83 C40.3142857,83 38.3380952,81.0238095 38.3380952,78.2571429 L38.3380952,78.2571429 L38.3380952,48.2190476 L39.5238095,48.2190476 C44.2666667,48.2190476 48.2190476,44.2666667 48.2190476,39.5238095 L48.2190476,39.5238095 L48.2190476,38.3380952 Z M60.4714286,45.847619 C60.0761905,45.847619 59.2857143,46.2428571 58.8904762,47.0333333 L58.8904762,47.0333333 L49.4047619,73.1190476 C49.0095238,74.3047619 49.4047619,75.4904762 50.1952381,75.4904762 L50.1952381,75.4904762 L50.9857143,75.4904762 C51.7761905,75.4904762 52.5666667,75.0952381 52.9619048,74.3047619 L52.9619048,74.3047619 L55.3333333,67.9809524 L66.4,67.9809524 L68.7714286,74.3047619 C69.1666667,75.4904762 69.9571429,75.8857143 71.1428571,75.4904762 C71.9333333,75.4904762 72.7238095,74.3047619 71.9333333,73.1190476 L71.9333333,73.1190476 L62.447619,47.0333333 C62.052381,46.2428571 61.2619048,45.847619 60.4714286,45.847619 Z M60.8666667,53.3571429 L64.8190476,64.4238095 L56.9142857,64.4238095 L60.8666667,53.3571429 Z" id="Combined-Shape" fill="#008EA1"></path>
                    </g>
                </g>
            </g>
        </g>
    </g>
</svg>