<?xml version="1.0" encoding="UTF-8"?>
<svg width="88px" height="72px" viewBox="0 0 88 72" version="1.1" xmlns="http://www.w3.org/2000/svg" xmlns:xlink="http://www.w3.org/1999/xlink">
    <title>Group 13</title>
    <g id="Main-Site" stroke="none" stroke-width="1" fill="none" fill-rule="evenodd">
        <g id="Untuk-Individual" transform="translate(-1027.000000, -1517.000000)" fill-rule="nonzero">
            <g id="Group-19" transform="translate(493.000000, 1500.000000)">
                <g id="Group-13" transform="translate(534.000000, 17.000000)">
                    <path d="M24,63.9947698 L24,67.9940227 C24,71.1882075 20.4394181,73.0934172 17.7811992,71.3216022 L5.7811992,63.3230965 C3.40626692,61.7401043 3.40626692,58.2509301 5.7811992,56.6679375 L17.7811992,48.6694318 C20.4394181,46.8976168 24,48.8028265 24,51.9970113 L24,55.9962642 L60,55.9962642 C71.0456948,55.9962642 80,47.0436319 80,35.9999999 C80,33.6983479 79.6125936,31.4552402 78.863578,29.3358798 C78.1275752,27.2533396 79.2194748,24.9685703 81.3024044,24.2327049 C83.3853336,23.4968394 85.6705296,24.5885351 86.4065328,26.6710754 C87.4569964,29.6433915 88,32.7874177 88,35.9999999 C88,51.4610846 75.4639728,63.9947698 60,63.9947698 L24,63.9947698 Z" id="Path" fill="#0096A9"></path>
                    <path d="M64,8.00523011 L64,4.00597727 C64,0.811792461 67.560582,-1.09341716 70.2188008,0.678397742 L82.2188008,8.67690343 C84.5937332,10.2598959 84.5937332,13.74907 82.2188008,15.3320624 L70.2188008,23.3305681 C67.560582,25.1023831 64,23.1971734 64,20.0029886 L64,16.0037358 L28,16.0037358 C16.954305,16.0037358 8,24.9563682 8,36 C8,38.3030385 8.38787348,40.5474596 9.137771,42.6679362 C9.8741994,44.750326 8.7827666,47.0353183 6.69998764,47.7716091 C4.61720864,48.5079 2.33178948,47.416671 1.59536108,45.3342813 C0.5436598,42.3603981 6.19644476e-14,39.2145222 6.19644476e-14,36 C6.19644476e-14,20.5389155 12.536027,8.00523011 28,8.00523011 L64,8.00523011 Z" id="Path" fill="#00ACC1"></path>
                    <path d="M41.7888544,33.5781612 C39.8129404,34.5659339 37.4102484,33.7651859 36.4222912,31.7896409 C35.4343342,29.814096 36.2352316,27.4118527 38.2111456,26.4240803 L46.2111456,22.4248274 C48.87075,21.0952736 52,23.0288953 52,26.0018679 L52,45.998132 C52,48.2068586 50.2091388,49.9973849 48,49.9973849 C45.7908612,49.9973849 44,48.2068586 44,45.998132 L44,32.4727949 L41.7888544,33.5781612 Z" id="Path" fill="#00ACC1"></path>
                </g>
            </g>
        </g>
    </g>
</svg>