<?xml version="1.0" encoding="UTF-8"?>
<svg width="432px" height="336px" viewBox="0 0 432 336" version="1.1" xmlns="http://www.w3.org/2000/svg" xmlns:xlink="http://www.w3.org/1999/xlink">
    <title>undraw_Resume_folder_re_e0bi</title>
    <g id="Main-Site" stroke="none" stroke-width="1" fill="none" fill-rule="evenodd">
        <g id="Studi-Kasus" transform="translate(-360.000000, -801.000000)" fill-rule="nonzero">
            <g id="Group-17" transform="translate(360.000000, 646.000000)">
                <g id="undraw_Resume_folder_re_e0bi" transform="translate(0.000000, 155.000000)">
                    <path d="M79.2004317,220 C78.8200623,220 78.4420559,219.942456 78.0799063,219.830511 C77.1543048,219.549032 76.3842085,218.922801 75.9413274,218.09145 L72.4061427,211.492296 C71.4825455,209.763564 72.1873132,207.641514 73.9815057,206.74889 L131.130117,178.390892 C132.926356,177.501965 135.131256,178.180296 136.058735,179.907165 L139.593857,186.506319 C140.517472,188.23507 139.812658,190.357148 138.01841,191.249724 L80.8699872,219.607723 C80.3540387,219.865018 79.7815257,219.999536 79.2004317,220 L79.2004317,220 Z" id="Path" fill="#F2A8A6"></path>
                    <path d="M98.1900259,194.405069 C98.344699,194.602484 98.4762476,194.814564 98.5824522,195.037731 L104.683527,207.368762 C105.080684,208.198927 105.10498,209.141162 104.751062,209.987917 C104.397145,210.834671 103.694048,211.516484 102.796645,211.88317 L82.2765599,218.521114 C77.8592244,219.948315 72.9866942,218.091653 70.9355944,214.199677 L71.1728435,214.092679 L70.9358057,214.19954 C68.7815205,210.113048 70.4656568,205.180925 74.7660578,202.982352 L93.6871613,193.299613 C95.2819347,192.638597 97.1589495,193.099428 98.1900206,194.405123 L98.1900259,194.405069 Z" id="Path" fill="#80D4E1"></path>
                    <path d="M338,162 L239.618892,162 C237.379608,161.993566 235.218295,161.212154 233.533669,159.799919 L193.011033,125.587733 C191.619875,124.411509 189.82741,123.762859 187.971307,123.763975 L153,123.763975 L153,8.30124224 C153.00541,3.71873974 156.884774,0.0051791581 161.671875,0 L329.328125,0 C334.115228,0.00517639152 337.994592,3.71873859 338,8.30124224 L338,162 Z" id="Path" fill="#E6E6E6"></path>
                    <ellipse id="Oval" fill="#FFFFFF" cx="193.5" cy="36" rx="18.5" ry="18"></ellipse>
                    <path d="M264.689189,25 L231.310811,25 C230.034585,25 229,26.3431458 229,28 C229,29.6568542 230.034585,31 231.310811,31 L264.689189,31 C265.965415,31 267,29.6568542 267,28 C267,26.3431458 265.965415,25 264.689189,25 L264.689189,25 Z" id="Path" fill="#FFFFFF"></path>
                    <path d="M313.087573,39 L228.912432,39 C227.8563,39 227,40.3466667 227,42 C227,43.6533333 227.8563,45 228.912432,45 L313.087573,45 C314.143705,45 315,43.6533333 315,42 C315,40.3466667 314.143705,39 313.087573,39 Z" id="Path" fill="#FFFFFF"></path>
                    <path d="M308.170678,69 L183.829322,69 C182.820083,69 182,70.3466667 182,72 C182,73.6533333 182.820073,75 183.829322,75 L308.170678,75 C309.179917,75 310,73.6533333 310,72 C310,70.3466667 309.179901,69 308.170678,69 Z" id="Path" fill="#FFFFFF"></path>
                    <path d="M308.170678,84 L183.829322,84 C182.820083,84 182,85.3466667 182,87 C182,88.6533333 182.820073,90 183.829322,90 L308.170678,90 C309.179917,90 310,88.6533333 310,87 C310,85.3466667 309.179901,84 308.170678,84 Z" id="Path" fill="#FFFFFF"></path>
                    <path d="M308.170678,99 L183.829322,99 C182.820083,99 182,100.346667 182,102 C182,103.653333 182.820073,105 183.829322,105 L308.170678,105 C309.179917,105 310,103.653333 310,102 C310,100.346667 309.179901,99 308.170678,99 Z" id="Path" fill="#FFFFFF"></path>
                    <path d="M308.170678,113 L183.829322,113 C182.820083,113 182,114.346667 182,116 C182,117.653333 182.820073,119 183.829322,119 L308.170678,119 C309.179917,119 310,117.653333 310,116 C310,114.346667 309.179901,113 308.170678,113 Z" id="Path" fill="#FFFFFF"></path>
                    <path d="M419,162 L239.155875,162 C237.365502,162.002963 235.613705,161.503233 234.118305,160.562934 L234,160.488667 L234,43.2826078 C234.00541,38.710392 237.884772,35.0051675 242.671873,35 L410.328075,35 C415.115176,35.0051648 418.99454,38.7103909 419,43.2826078 L419,162 Z" id="Path" fill="#80D4E1"></path>
                    <ellipse id="Oval" fill="#FFFFFF" cx="274.5" cy="71" rx="18.5" ry="18"></ellipse>
                    <path d="M345.689189,60 L312.310811,60 C311.034585,60 310,61.3431458 310,63 C310,64.6568542 311.034585,66 312.310811,66 L345.689189,66 C346.965415,66 348,64.6568542 348,63 C348,61.3431458 346.965415,60 345.689189,60 L345.689189,60 Z" id="Path" fill="#FFFFFF"></path>
                    <path d="M396.087573,73 L311.912432,73 C310.8563,73 310,74.3466667 310,76 C310,77.6533333 310.8563,79 311.912432,79 L396.087573,79 C397.143705,79 398,77.6533333 398,76 C398,74.3466667 397.143705,73 396.087573,73 Z" id="Path" fill="#FFFFFF"></path>
                    <path d="M388.170678,104 L263.829322,104 C262.820083,104 262,105.346667 262,107 C262,108.653333 262.820073,110 263.829322,110 L388.170678,110 C389.179917,110 390,108.653333 390,107 C390,105.346667 389.179901,104 388.170678,104 Z" id="Path" fill="#FFFFFF"></path>
                    <path d="M388.170678,119 L263.829322,119 C262.820083,119 262,120.346667 262,122 C262,123.653333 262.820073,125 263.829322,125 L388.170678,125 C389.179917,125 390,123.653333 390,122 C390,120.346667 389.179901,119 388.170678,119 Z" id="Path" fill="#FFFFFF"></path>
                    <path d="M388.170678,135 L263.829322,135 C262.820083,135 262,136.346667 262,138 C262,139.653333 262.820073,141 263.829322,141 L388.170678,141 C389.179917,141 390,139.653333 390,138 C390,136.346667 389.179901,135 388.170678,135 Z" id="Path" fill="#FFFFFF"></path>
                    <path d="M388.170678,146 L263.829322,146 C262.820083,146 262,147.346667 262,149 C262,150.653333 262.820073,152 263.829322,152 L388.170678,152 C389.179917,152 390,150.653333 390,149 C390,147.346667 389.179901,146 388.170678,146 Z" id="Path" fill="#FFFFFF"></path>
                    <path d="M423.112281,161.089835 L239.246281,161.089835 C237.478942,161.091867 235.763095,160.519433 234.378916,159.466005 C234.269127,159.385816 234.164487,159.300615 234.060077,159.210402 L218.496112,146.054374 L193.746506,125.130024 C192.124167,123.756821 190.034269,123 187.870035,123 L142.887719,123 C137.982046,123.006656 134.006943,126.817336 134,131.520095 L134,326.479906 C134.006943,331.182665 137.982046,334.993345 142.887719,335 L423.112281,335 C428.017955,334.993348 431.99306,331.182666 432,326.479906 L432,169.60993 C431.99306,164.90717 428.017955,161.096488 423.112281,161.089835 Z M430.954386,326.479906 C430.94912,330.629741 427.441173,333.992588 423.112281,333.997636 L142.887719,333.997636 C138.558827,333.992588 135.05088,330.629741 135.045614,326.479906 L135.045614,131.520095 C135.05088,127.37026 138.558827,124.007413 142.887719,124.002362 L187.870035,124.002362 C189.780131,124.002362 191.624784,124.669433 193.056239,125.881797 L216.917224,146.054374 L233.364702,159.962175 C234.992731,161.329525 237.081816,162.086091 239.246281,162.092199 L423.112281,162.092199 C427.441173,162.097247 430.94912,165.460094 430.954386,169.60993 L430.954386,326.479906 Z" id="Shape" fill="#3F3D56"></path>
                    <ellipse id="Oval" fill="#F2A8A6" cx="54.5" cy="163.5" rx="28.5" ry="27.5"></ellipse>
                    <path d="M54.3490071,335 L46.6509929,335 C44.6355418,334.997819 43.0022593,333.420812 43,331.474805 L43,269.525195 C43.0022564,267.579187 44.6355406,266.002179 46.6509929,266 L54.3490071,266 C56.3644594,266.002179 57.9977436,267.579187 58,269.525195 L58,331.474805 C57.9977407,333.420812 56.3644582,334.997819 54.3490071,335 L54.3490071,335 Z" id="Path" fill="#F2A8A6"></path>
                    <path d="M69.3490071,335 L61.6509929,335 C59.6355418,334.997819 58.0022593,333.420812 58,331.474805 L58,269.525195 C58.0022564,267.579187 59.6355406,266.002179 61.6509929,266 L69.3490071,266 C71.3644594,266.002179 72.9977436,267.579187 73,269.525195 L73,331.474805 C72.9977407,333.420812 71.3644582,334.997819 69.3490071,335 L69.3490071,335 Z" id="Path" fill="#F2A8A6"></path>
                    <path d="M99,257.099341 C99,278.951322 77.4403192,286 54.5205049,286 C31.6006905,286 16,278.951322 16,257.099341 C16,235.247359 31.4282869,198 54.3481013,198 C77.2679156,198 99,235.247364 99,257.099341 Z" id="Path" fill="#80D4E1"></path>
                    <path d="M53.0281146,174 L53,173.001377 C54.8793729,172.949688 56.5362942,172.833149 57.7813062,171.933999 C58.4955282,171.388863 58.9345615,170.563592 58.9841513,169.672956 C59.0284926,169.127821 58.8131783,168.593417 58.4018422,168.227684 C57.5753616,167.53772 56.245516,167.761042 55.2762046,168.200377 L54.4403542,168.579249 L56.0432486,157 L57.0440992,157.135558 L55.6806939,166.985257 C56.9977349,166.602485 58.2180923,166.767298 59.0539478,167.465066 C59.7045248,168.026513 60.0521688,168.856329 59.9936343,169.708068 C59.9339391,170.905162 59.3423104,172.015042 58.3771725,172.740507 C56.7774906,173.896138 54.698588,173.953679 53.0281146,174 Z" id="Path" fill="#2F2E41"></path>
                    <rect id="Rectangle" fill="#2F2E41" x="64" y="159" width="5" height="1"></rect>
                    <rect id="Rectangle" fill="#2F2E41" x="45" y="159" width="5" height="1"></rect>
                    <path d="M363.222222,301 L210.777778,301 C206.484243,300.995218 203.004858,297.570198 203,293.34375 L203,210.65625 C203.004858,206.429802 206.484243,203.004782 210.777778,203 L363.222222,203 C367.515757,203.004782 370.995142,206.429802 371,210.65625 L371,293.34375 C370.995142,297.570198 367.515757,300.995218 363.222222,301 L363.222222,301 Z M210.777778,204.020833 C207.056734,204.025024 204.041295,206.993348 204.037037,210.65625 L204.037037,293.34375 C204.041295,297.006652 207.056734,299.974976 210.777778,299.979167 L363.222222,299.979167 C366.943267,299.974978 369.958708,297.006653 369.962963,293.34375 L369.962963,210.65625 C369.958708,206.993347 366.943267,204.025022 363.222222,204.020833 L210.777778,204.020833 Z" id="Shape" fill="#E6E6E6"></path>
                    <ellipse id="Oval" fill="#E6E6E6" cx="235.5" cy="234" rx="18.5" ry="18"></ellipse>
                    <path d="M307.689189,225 L274.310811,225 C273.034585,225 272,226.343146 272,228 C272,229.656854 273.034585,231 274.310811,231 L307.689189,231 C308.965415,231 310,229.656854 310,228 C310,226.343146 308.965415,225 307.689189,225 L307.689189,225 Z" id="Path" fill="#E6E6E6"></path>
                    <path d="M357.087573,239 L272.912432,239 C271.8563,239 271,240.346667 271,242 C271,243.653333 271.8563,245 272.912432,245 L357.087573,245 C358.143705,245 359,243.653333 359,242 C359,240.346667 358.143705,239 357.087573,239 Z" id="Path" fill="#E6E6E6"></path>
                    <path d="M350.170678,268 L225.829322,268 C224.820083,268 224,269.346667 224,271 C224,272.653333 224.820073,274 225.829322,274 L350.170678,274 C351.179917,274 352,272.653333 352,271 C352,269.346667 351.179901,268 350.170678,268 Z" id="Path" fill="#E6E6E6"></path>
                    <path d="M350.170678,282 L225.829322,282 C224.820083,282 224,283.346667 224,285 C224,286.653333 224.820073,288 225.829322,288 L350.170678,288 C351.179917,288 352,286.653333 352,285 C352,283.346667 351.179901,282 350.170678,282 Z" id="Path" fill="#E6E6E6"></path>
                    <path d="M32.0856334,156.82715 C34.2915995,153.655904 38.173168,152.311635 42.0008001,151.98463 C46.3091049,151.616557 50.4720356,152.409957 54.6784302,153.180798 C59.3077611,154.029144 64.2071816,154.822873 68.8717881,153.750303 C73.0527147,152.826673 76.5586126,150.121869 78.3829812,146.412407 C80.0908589,142.840425 80.458842,138.815781 79.4250587,135.015171 C78.3319863,130.97302 75.6187848,127.416305 72.329657,124.729923 C65.6165049,119.246988 56.5319475,116.782856 47.794131,117.01496 C39.0894254,117.22952 30.6761461,120.054678 23.7464112,125.090126 C16.8051138,130.307332 11.9205704,137.617493 9.89006889,145.827394 C7.76681251,153.969866 8.45848426,162.549814 11.8617935,170.285952 C13.7738739,174.521999 16.5392574,178.340923 18.6731247,182.470296 C20.6599008,186.315024 22.1899912,190.785113 20.9538024,195.073499 C19.869072,198.836491 16.6843824,202.17957 12.686308,203.201223 C8.87832227,204.174296 5.11835824,202.579297 3.03182891,199.437194 C1.03320773,196.427466 0.985387439,192.485343 3.98621026,190.055259 C5.51522266,188.796559 7.51814901,188.192301 9.52683705,188.38372 C11.5355251,188.575138 13.3739299,189.545458 14.6123534,191.067882 C15.8297714,192.577964 16.3747184,194.485526 16.1289982,196.376827 C15.9811702,197.332702 17.5129513,197.745209 17.6621519,196.780482 C18.4017188,192.649755 15.9030829,188.614521 11.7565878,187.243144 C7.61009272,185.871767 3.03343238,187.566976 0.939581077,191.249797 C-0.870069649,194.499166 0.10633776,198.418427 2.40352441,201.195949 C4.82425082,204.217595 8.8719532,205.607637 12.7532871,204.750214 C16.934799,203.827952 20.3554949,200.654048 21.9641499,196.924326 C23.7550552,192.77208 22.9345102,188.138478 21.1886588,184.109264 C19.3014398,179.753799 16.4989416,175.847592 14.282678,171.650411 C12.2759364,167.857478 10.9989552,163.751127 10.5125701,159.526985 C9.53911044,151.044479 11.5550071,142.494151 16.2413438,135.22867 C21.0179457,128.075965 28.3086946,122.784268 36.803837,120.304212 C45.1803965,117.793054 54.4189615,117.869962 62.6206745,120.956116 C70.6995801,123.996075 78.5007114,130.621078 78.4070371,139.518863 C78.3670234,143.319688 76.8895973,147.195806 73.8411026,149.730939 C70.1979255,152.760619 65.1252538,153.019609 60.5455027,152.546781 C55.9367033,152.070946 51.461152,150.785531 46.8324571,150.457625 C42.8064791,150.172417 38.4630576,150.468932 34.8683473,152.379143 C33.1943035,153.270667 31.7690969,154.533311 30.7127569,156.060737 C30.1449658,156.876979 31.5214249,157.638199 32.0856281,156.827104 L32.0856334,156.82715 Z" id="Path" fill="#2F2E41"></path>
                    <path d="M24.9204169,282 C24.7250387,282 24.5299461,281.98646 24.3368147,281.959667 L16.2824751,280.847983 C14.1740927,280.554744 12.7253211,278.769093 13.0439231,276.856378 L23.2617226,215.976932 C23.5850365,214.064867 25.5539838,212.750953 27.6631016,213.039813 L35.7175075,214.151742 C37.8258954,214.444793 39.274737,216.23042 38.9560595,218.143102 L28.7381937,279.022813 C28.4485586,280.732859 26.8281536,281.996487 24.9204169,282 L24.9204169,282 Z" id="Path" fill="#F2A8A6"></path>
                    <path d="M31.771626,241 C31.5125137,241 31.2541524,240.973102 31.0009012,240.920201 L16.8730505,238.175952 C15.9297712,237.980761 15.1055605,237.431595 14.5819702,236.649421 C14.0583798,235.867247 13.8783613,234.916228 14.081568,234.005849 L20.2300003,214.241676 C21.5550604,209.988114 25.9667327,207.363856 30.4983018,208.133636 L30.4532309,208.380373 L30.4983018,208.133882 C35.2567441,208.941616 38.5245459,213.207703 37.9303043,217.836297 L35.3238002,238.207039 C34.9707576,239.830527 33.4900264,240.994772 31.7716052,241 L31.771626,241 Z" id="Path" fill="#80D4E1"></path>
                    <path d="M98.4779874,336 L16.5220126,336 C16.233713,336 16,335.776142 16,335.5 C16,335.223858 16.233713,335 16.5220126,335 L98.4779874,335 C98.766287,335 99,335.223858 99,335.5 C99,335.776142 98.766287,336 98.4779874,336 Z" id="Path" fill="#3F3D56"></path>
                </g>
            </g>
        </g>
    </g>
</svg>