<?xml version="1.0" encoding="UTF-8" standalone="no"?><!DOCTYPE svg PUBLIC "-//W3C//DTD SVG 1.1//EN" "http://www.w3.org/Graphics/SVG/1.1/DTD/svg11.dtd"><svg width="100%" height="100%" viewBox="0 0 1336 1337" version="1.1" xmlns="http://www.w3.org/2000/svg" xmlns:xlink="http://www.w3.org/1999/xlink" xml:space="preserve" xmlns:serif="http://www.serif.com/" style="fill-rule:evenodd;clip-rule:evenodd;stroke-linejoin:round;stroke-miterlimit:2;"><g><circle id="Oval" cx="667.793" cy="667.793" r="667.793" style="fill:#ebf7ff;"/><path d="M1041.95,866.039c0,0 -11.333,-64 -14.666,-78c-3.334,-14 -3.334,-48 -3.334,-48l12,-19.333l9.334,-11.333c-0,-0 10.666,4 7.333,13.333c-3.333,9.333 -6,26 -2.667,34c3.334,8 16,20 16,20c0,-0 19.334,-11.333 22.667,-27.333c3.333,-16 6.667,-26 -0,-30c-6.667,-4 -27.333,-4.667 -27.333,-4.667c-0,-0 -7.303,1.74 -10.335,-1.38c-3.032,-3.12 -3.032,-10.52 1.968,-13.32c5,-2.8 34,-2.6 40.2,-2c6.2,0.6 8.6,0.2 12.6,5.6c4,5.4 8.8,12.6 8.8,12.6l2.6,3l27,-58c-0,-0 6.2,-17.6 12.6,-19.2c6.4,-1.6 11,0.4 11,0.4l-0.6,10.6l-0.8,6c-0,-0 11.6,-3.8 15.2,1.6c3.6,5.4 2,11.4 -3,26.2c-0,-0 7.6,-1.6 10.6,2c3,3.6 -1.8,19.4 -3.6,27.2c-1.8,7.8 -11.2,48.8 -11.6,53.2c-0.4,4.4 -10.4,23.8 -13.4,30c-3,6.2 -13.35,25.85 -17.35,38.35c-4,12.5 -6,20 -12,25c-6,5 -9,16 -9,16l-3,12.5l-77.217,-25.017Z" style="fill:#fcd8cd;"/><path d="M619.747,416.641c-0,-0 3.594,83.892 25.158,127.874c21.565,43.982 55.904,51.321 53.208,92.045c-2.695,40.724 -24.823,46.384 -8.65,65.117c16.173,18.733 26.854,56.999 16.071,98.538c-10.782,41.538 17.12,128.441 -28.704,137.401c-24.611,4.811 -124.356,-13.831 -110.298,-137.785c-22.813,-91.416 -65.543,-32.15 -57.499,-135.359c2.492,-31.971 42.426,-109.369 30.745,-154.165c-11.681,-44.797 -58.404,-119.73 -17.971,-161.269c40.434,-41.538 59.303,-72.082 85.36,-94.073c26.057,-21.991 106.925,-28.914 144.663,-24.027c37.738,4.887 159.039,53.756 159.937,149.865c0.899,96.11 -56.607,96.11 -72.78,105.069c-16.174,8.959 -52.115,3.258 -52.115,3.258l-87.157,-0.814l-48.52,-13.847l-31.448,-57.828Z" style="fill:#e68182;"/><path d="M944.118,751.326c-0,-0 57,32 75,80c18,48 19,41 19,41l20,11c-0,-0 54,26 68,25c-0,-0 3,29 1,59c-2,30 -5,76 -4,110c1,34 -5,145 -45,157c-40,12 -79,7 -98,-11c-19,-18 -34,-58 -34,-58l-68,-159l4,-133l37,-94l25,-28Z" style="fill:#f6995e;"/><path d="M753.451,666.477c0,0 138,32 160,50c22,18 30,131.515 30,168.515c0,37 -8,73 -16,106c-8,33 -21,93 -23,134c-2,41 17,132 17,132l15,80l-446,0c0,0 20,-65 8,-143c-12,-78 -5,-192 -5,-217c0,-25 -13,-208 -13,-208l18,-61c0,0 140,-39 157,-39c17,0 98,-2.515 98,-2.515Z" style="fill:#e9aa76;"/><path d="M612.951,733.087c0,-26.268 -21.326,-47.595 -47.594,-47.595l-295.478,0c-26.268,0 -47.594,21.327 -47.594,47.595l-0,450.025c-0,26.268 21.326,47.594 47.594,47.594l295.478,-0c26.268,-0 47.594,-21.326 47.594,-47.594l0,-450.025Z" style="fill:#8cdab1;"/><path d="M582.285,794.523c-0,-22.11 -17.951,-40.06 -40.061,-40.06l-248.706,-0c-22.11,-0 -40.06,17.95 -40.06,40.06l-0,378.789c-0,22.11 17.95,40.061 40.06,40.061l248.706,-0c22.11,-0 40.061,-17.951 40.061,-40.061l-0,-378.789Z" style="fill:#d7e8df;"/><path d="M1042.12,857.326c-0,-0 -11,15 -11,27c-0,12 97,48 97,48c-0,-0 8,-21 6,-32c-2,-11 -14,-16 -14,-16c-0,-0 -72,-19 -78,-27Z" style="fill:#fcd899;"/><path d="M885.935,435.374c-0,0 -27.855,68.417 -18.87,89.593c8.986,21.177 12.99,21.266 37.251,49.366c24.26,28.1 -25.664,82.607 -18.476,105.413c7.188,22.805 63.834,59.368 63.834,59.368c-0,0 35.025,41.85 3.127,99.272c-31.897,57.421 -16.498,77.647 -38.563,77.127c-68.337,-1.61 -91.602,-80.835 -93.474,-86.79c-17.812,-56.659 -8.479,-116.879 -8.479,-116.879l-116.838,-94.432l23.811,-67.195l61.549,-113.214l46.274,-22.806l36.84,13.439l22.014,7.738Z" style="fill:#e68182;"/><path d="M792.791,692.96l8.289,16.155l-9.843,24.477l-24.961,14.763l-0.943,-54.906l-3.109,-23.008l10.88,-13.218c-0,0 8.807,3.917 15.542,17.624c6.735,13.707 4.145,18.113 4.145,18.113Z" style="fill:#deb875;"/><path d="M769.995,656.489c17.443,3.385 43.835,37.96 46.628,68.536l-5.354,23.171l-14.333,-29.046c-0,0 -6.246,-28.056 -10.017,-36.552c-4.49,-10.117 -16.924,-26.109 -16.924,-26.109Z" style="fill:#fcd899;"/><path d="M757.118,742.326c-0,-0 34,171 10,266c-24,95 -33,214 -33,214l-4,113l15,-0c-0,-0 2,-95 5,-113c3,-18 24,-178 35,-210c11,-32 10,-219 -13,-269l-15,-1Z" style="fill:#fcd899;"/><path d="M850.78,443.621c-19.527,-0 -35.38,21.213 -35.38,47.342c0,26.128 9.309,59.31 38.075,57.93c33.745,-1.619 32.684,-31.802 32.684,-57.93c0,-26.129 -15.853,-47.342 -35.379,-47.342Z" style="fill:#6a6464;"/><path d="M778.012,625.37c-0,-0 -5.661,48.245 -5.165,63.27c0.678,20.536 -5.556,53.535 -5.667,53.822c-2.606,6.737 -18.892,1.959 -32.79,-4.624c-28.148,-13.334 -23.435,-11.975 -42.81,-33.317c-12.067,-13.292 -31.046,-37.364 -31.046,-37.364l15.862,-73.69l4.957,-25.611c-0,-0 3.469,-2.696 9.913,-0.45c6.444,2.247 86.746,57.964 86.746,57.964Z" style="fill:#f6bcaa;"/><path d="M744.751,721.095c-0,-0 6.249,15.829 22.429,21.367c0,-0 7.815,6.149 -5.055,6.76c-12.87,0.611 -43.757,-10.395 -43.757,-10.395l26.383,-17.732Z" style="fill:#deb875;"/><path d="M745.86,721.596l-31.8,34.673l-81.705,-81.238c-0,-0 2.42,-17.485 7.94,-25.876c5.33,-8.103 29.041,-18.355 29.041,-18.355l76.524,90.796Z" style="fill:#fcd899;"/><path d="M733.635,298.846c-79.966,-0 -135.313,141.781 -127.816,160.454c40.168,100.035 40.41,119.717 126.917,182.444c95.765,11.234 144.887,-82.957 144.887,-188.146c0,-105.189 -64.023,-154.752 -143.988,-154.752Z" style="fill:#fcd8cd;"/><path d="M625.789,464.322c0,-0 -15.275,-74.933 9.884,-120.544c25.159,-45.611 99.736,-71.675 152.749,-66.788c53.013,4.887 95.244,30.136 95.244,30.136c-0,0 -8.985,-16.29 -17.971,-25.249c-8.985,-8.959 -32.346,-17.919 -32.346,-17.919c-0,0 -95.244,-35.022 -165.329,9.774c-70.085,44.797 -75.476,92.037 -79.07,113.214c-3.594,21.176 8.087,75.747 8.087,75.747l28.752,1.629Z" style="fill:#6a6464;"/><path d="M688.933,334.48c-0,-0 11.456,75.136 -12.804,108.123c-24.26,32.986 -53.238,28.71 -53.238,28.71l-20.666,18.733c0,0 -2.021,-157.806 66.491,-191.607c86.063,-42.46 133.431,-10.996 160.387,12.828c26.956,23.823 54.585,62.919 56.607,79.412c2.022,16.493 1.348,38.485 -6.065,49.48c-0,0 -12.13,-39.706 -47.173,-47.647c-35.042,-7.942 -102.432,-6.109 -143.539,-58.032Z" style="fill:#e68182;"/><path d="M609.077,439.548c-19.527,0 -35.38,21.213 -35.38,47.342c0,26.129 9.308,59.311 38.075,57.931c33.745,-1.619 32.684,-31.802 32.684,-57.931c0,-26.129 -15.853,-47.342 -35.379,-47.342Z" style="fill:#6a6464;"/><path d="M785.55,455.413c0,-0 4.708,17.16 6.935,33.854c1.123,8.418 1.668,16.69 0.552,22.49c-0.213,0.924 0.191,1.88 1.003,2.371c-0,-0 4.974,2.703 7.333,5.5c0.364,0.431 0.681,0.842 0.838,1.26c0.07,0.186 0.193,0.356 0.09,0.514c-0.706,1.088 -2.96,1.573 -7.576,1.743c-0.73,-0 -1.323,0.593 -1.323,1.323c-0,0.73 0.593,1.323 1.323,1.323c6.294,0.232 9.24,-1.058 10.31,-2.466c1.217,-1.602 0.794,-3.774 -0.783,-5.95c-1.703,-2.35 -4.811,-4.773 -6.593,-6.061c1.319,-6.018 1.403,-14.238 0.908,-22.631c-1.02,-17.293 -4.551,-35.251 -4.551,-35.251c-0.547,-2.337 -2.887,-3.789 -5.224,-3.243c-2.336,0.547 -3.788,2.887 -3.242,5.224Z" style="fill:#eaa692;"/><path d="M746.316,403.899c-0,-0 -21.021,-0.257 -40.611,5.83c-9.062,2.816 -17.799,6.93 -24.035,13.049c-0.544,0.487 -0.59,1.324 -0.102,1.868c0.487,0.544 1.324,0.59 1.868,0.102c6.339,-5.183 14.854,-8.258 23.551,-10.118c19.025,-4.07 38.857,-2.05 38.857,-2.05c2.396,0.13 4.446,-1.709 4.577,-4.105c0.13,-2.395 -1.71,-4.446 -4.105,-4.576Z" style="fill:#e68182;"/><path d="M811.094,410.915c-0,-0 16.547,-1.794 32.461,1.519c7.267,1.514 14.385,4.023 19.698,8.32c0.543,0.489 1.38,0.446 1.869,-0.096c0.489,-0.542 0.446,-1.379 -0.096,-1.868c-5.206,-5.233 -12.544,-8.782 -20.172,-11.252c-16.472,-5.333 -34.204,-5.306 -34.204,-5.306c-2.396,0.122 -4.242,2.167 -4.12,4.563c0.123,2.396 2.167,4.242 4.564,4.12Z" style="fill:#e68182;"/><path d="M814.847,411.354c-0,-0 32.995,1.12 47.204,15.282" style="fill:none;"/><g><path d="M805.571,555.897c-0,-0 -37.971,-1.768 -69.652,-19.264c-0,-0 -4.193,32.519 27.954,38.704c-0,0 23.761,5.656 41.698,-19.44Z" style="fill:#be7877;"/><clipPath id="_clip1"><path d="M805.571,555.897c-0,-0 -37.971,-1.768 -69.652,-19.264c-0,-0 -4.193,32.519 27.954,38.704c-0,0 23.761,5.656 41.698,-19.44Z"/></clipPath><g clip-path="url(#_clip1)"><path d="M756.655,554.146c-17.902,-4.596 -34.98,-2.627 -38.112,4.395c-3.132,7.022 8.859,16.455 26.761,21.051c17.903,4.596 34.98,2.627 38.112,-4.395c3.132,-7.022 -8.859,-16.455 -26.761,-21.051Z" style="fill:#e89392;"/></g><path d="M634.617,525.37l2.293,-4.326c0,0 52.756,30.559 88.045,36.699l-0.177,2.79c0,0 -15.527,-3.069 -36.7,-11.163c-21.173,-8.093 -53.461,-24 -53.461,-24Z" style="fill:#6a6464;"/><path d="M739.371,554.708c6.954,1.284 11.689,5.411 10.568,9.211c-1.122,3.8 -7.679,5.842 -14.633,4.558c-6.954,-1.284 -11.689,-5.411 -10.568,-9.211c1.122,-3.8 7.679,-5.842 14.633,-4.558Z" style="fill:#6a6464;"/></g><ellipse id="Oval1" serif:id="Oval" cx="731.16" cy="461.787" rx="10.319" ry="18.145" style="fill:#6a6464;"/><ellipse id="Oval2" serif:id="Oval" cx="771.065" cy="756.583" rx="6.748" ry="8.349" style="fill:#6a6464;"/><ellipse id="Oval3" serif:id="Oval" cx="783.065" cy="885.25" rx="6.748" ry="8.349" style="fill:#6a6464;"/><ellipse id="Oval4" serif:id="Oval" cx="770.065" cy="1046.25" rx="6.748" ry="8.349" style="fill:#6a6464;"/><ellipse id="Oval5" serif:id="Oval" cx="747.065" cy="1201.25" rx="6.748" ry="8.349" style="fill:#6a6464;"/><ellipse id="Oval6" serif:id="Oval" cx="828.261" cy="460.684" rx="10.319" ry="18.145" style="fill:#6a6464;"/><path d="M412.035,664.123c-0,-0 -16.5,-7.5 -22,5.5c-5.5,13 -2,41 -0.5,46.5c1.5,5.5 5,8 11,7c6,-1 9,-13 9,-13c-0,-0 5.5,16 15,15c9.5,-1 10,-15 10,-15c-0,-0 5,14.5 14,13.5c9,-1 13,-4.5 14,-12c-0,-0 2,12 10.5,10.5c8.5,-1.5 10,-5.5 11,-12.5c1,-7 4.5,-39 4.5,-39c-0,-0 -0,-12 -8.5,-13c-8.5,-1 -13.5,7 -13.5,7c-0,-0 -3.5,-9 -14.5,-9.5c-11,-0.5 -17,11.5 -17,11.5c-0,-0 -3.5,-10 -10,-9.5c-6.5,0.5 -13,7 -13,7Z" style="fill:#fcd8cd;"/><clipPath id="_clip2"><path d="M412.035,664.123c-0,-0 -16.5,-7.5 -22,5.5c-5.5,13 -2,41 -0.5,46.5c1.5,5.5 5,8 11,7c6,-1 9,-13 9,-13c-0,-0 5.5,16 15,15c9.5,-1 10,-15 10,-15c-0,-0 5,14.5 14,13.5c9,-1 13,-4.5 14,-12c-0,-0 2,12 10.5,10.5c8.5,-1.5 10,-5.5 11,-12.5c1,-7 4.5,-39 4.5,-39c-0,-0 -0,-12 -8.5,-13c-8.5,-1 -13.5,7 -13.5,7c-0,-0 -3.5,-9 -14.5,-9.5c-11,-0.5 -17,11.5 -17,11.5c-0,-0 -3.5,-10 -10,-9.5c-6.5,0.5 -13,7 -13,7Z"/></clipPath><g clip-path="url(#_clip2)"><path d="M410.667,663.977c0,-0 -1.314,14.312 -1.887,27.66c-0.313,7.297 -0.405,14.304 0.054,18.551c0.036,0.387 0.379,0.671 0.766,0.635c0.387,-0.036 0.671,-0.379 0.635,-0.766c-0.331,-4.204 -0.033,-11.116 0.486,-18.308c0.958,-13.272 2.681,-27.481 2.681,-27.481c0.08,-0.755 -0.467,-1.432 -1.222,-1.513c-0.754,-0.08 -1.432,0.467 -1.513,1.222Z" style="fill:#e1976e;"/><path d="M433.163,666.456c-0,0 -0.132,14.372 0.395,27.722c0.288,7.298 0.773,14.289 1.58,18.483c0.068,0.383 0.434,0.638 0.816,0.57c0.382,-0.068 0.638,-0.433 0.57,-0.815c-0.676,-4.163 -0.948,-11.076 -1.022,-18.287c-0.138,-13.305 0.41,-27.608 0.41,-27.608c0.018,-0.758 -0.584,-1.389 -1.342,-1.407c-0.759,-0.018 -1.389,0.584 -1.407,1.342Z" style="fill:#e1976e;"/><path d="M465.407,663.954c0,-0 -1.912,14.776 -2.878,29.799c-0.457,7.123 -0.703,14.298 -0.432,19.987c0.013,0.389 0.339,0.693 0.727,0.68c0.388,-0.014 0.692,-0.339 0.679,-0.727c-0.116,-5.644 0.321,-12.745 0.965,-19.789c1.363,-14.916 3.662,-29.561 3.662,-29.561c0.107,-0.751 -0.416,-1.448 -1.167,-1.556c-0.751,-0.107 -1.448,0.416 -1.556,1.167Z" style="fill:#e1976e;"/></g><path d="M1165.51,659.266c-0,0 -8.693,22.593 -18.889,43.986c-5.013,10.517 -10.387,20.743 -15.266,27.821c-0.426,0.628 -0.261,1.484 0.368,1.909c0.628,0.426 1.484,0.261 1.909,-0.368c4.819,-7.251 10.094,-17.694 14.988,-28.43c9.859,-21.626 18.19,-44.43 18.19,-44.43c0.135,-0.359 -0.047,-0.759 -0.406,-0.894c-0.359,-0.135 -0.76,0.047 -0.894,0.406Z" style="fill:#e1976e;"/><path d="M1177.76,687.016c-0,0 -8.693,22.593 -18.889,43.986c-5.013,10.517 -10.387,20.743 -15.266,27.821c-0.426,0.628 -0.261,1.484 0.368,1.909c0.628,0.426 1.484,0.261 1.909,-0.368c4.819,-7.251 10.094,-17.694 14.988,-28.43c9.859,-21.626 18.19,-44.43 18.19,-44.43c0.135,-0.359 -0.047,-0.759 -0.406,-0.894c-0.359,-0.135 -0.76,0.047 -0.894,0.406Z" style="fill:#e1976e;"/><path d="M301.588,916.835c-4.095,4.923 -4.75,15 6,21.75c10.75,6.75 64.25,48.669 73.25,87.75c0,0 3,17.331 13.25,17.581c10.25,0.25 10.25,-6.5 16.5,-20.75c6.25,-14.25 18.75,-61.203 79.75,-104.75l53,-30.796c0,0 12.25,-7.5 6,-16.25c-6.25,-8.75 -12,-10.75 -29.5,-1.75c-17.5,9 -97.75,50.615 -124.75,124c0,0 -38.75,-58.115 -69.25,-74.365c0,0 -14.75,-13.84 -24.25,-2.42Z" style="fill:#8cdab1;"/></g></svg>