<?xml version="1.0" encoding="UTF-8" standalone="no"?><!DOCTYPE svg PUBLIC "-//W3C//DTD SVG 1.1//EN" "http://www.w3.org/Graphics/SVG/1.1/DTD/svg11.dtd"><svg width="100%" height="100%" viewBox="0 0 3477 3483" version="1.1" xmlns="http://www.w3.org/2000/svg" xmlns:xlink="http://www.w3.org/1999/xlink" xml:space="preserve" xmlns:serif="http://www.serif.com/" style="fill-rule:evenodd;clip-rule:evenodd;stroke-linecap:round;stroke-linejoin:round;stroke-miterlimit:1.5;"><g><circle cx="1738.27" cy="1738.27" r="1738.27" style="fill:#ebf7ff;"/><g><path d="M2015.63,1879.23c-0,0 -222.577,860.037 -254.177,1020.96c-0,-0 -431.414,199.18 -460.266,201.818c-28.853,2.638 -34.349,3.957 -42.592,15.829c-8.244,11.872 31.6,277.625 89.305,297.412c57.705,19.786 436.91,-32.977 436.91,-32.977l354.473,-30.339c0,0 49.462,-753.191 24.731,-832.336c-24.731,-79.144 -5.496,-381.212 -23.357,-453.761c-17.861,-72.549 -125.027,-186.61 -125.027,-186.61Z" style="fill:#ffb67b;"/><path d="M1232.95,3121.54c0,-0 21.983,230.838 68.696,282.282c46.714,51.443 30.227,29.019 52.21,31.657c21.983,2.639 35.722,-5.276 59.079,-5.276c23.357,0 42.592,9.234 67.322,6.595c24.731,-2.638 57.705,-10.552 59.079,-98.93c1.374,-88.378 -8.243,-150.375 -31.6,-189.947c-23.357,-39.572 -35.722,-67.273 -60.453,-84.421c-24.731,-17.147 -60.453,-1.319 -85.184,2.639c-24.73,3.957 -46.713,31.657 -75.566,34.296c-28.852,2.638 -53.583,21.105 -53.583,21.105Z" style="fill:#fcd899;"/><path d="M2024.62,959.339c-0,-0 73.868,184.35 50.04,241.411c-23.829,57.06 -77.443,29.627 -141.78,105.343c-64.337,75.715 5.957,158.014 -13.106,219.464c-19.063,61.45 -126.291,187.642 -126.291,187.642c0,0 -111.994,163.501 -27.403,318.224c84.592,154.722 183.48,221.659 183.48,221.659c-0,-0 337.173,-91.078 350.279,-102.051c13.106,-10.973 145.354,-314.932 145.354,-314.932l84.591,-386.257l-63.145,-181.058l-163.226,-305.056l-122.717,-61.45l-97.696,36.212l-58.38,20.849Z" style="fill:#e68182;"/><path d="M2327.97,1611.24c0,-0 -116.326,97.611 -156.627,134.545c-40.302,36.934 -168.078,317.457 -190.061,368.461c-21.982,51.005 -102.586,439.692 -87.931,511.801c14.655,72.11 60.453,219.846 87.931,306.025c27.479,86.18 111.747,348.236 109.915,411.552c-1.832,63.315 -20.151,77.385 -20.151,77.385l-23.815,56.281l1214.55,5.276c0,0 -40.302,-554.011 -43.965,-673.607c-3.664,-119.596 34.806,-365.823 47.629,-460.797c12.823,-94.973 42.134,-522.353 42.134,-522.353c-0,-0 -86.1,-86.18 -163.04,-117.837c-76.94,-31.658 -340.734,-167.083 -340.734,-167.083c-0,-0 -166.703,-45.728 -212.501,-42.21c-45.798,3.517 -263.337,112.561 -263.337,112.561Z" style="fill:#e9aa76;"/><path d="M2297.74,1762.23c0,-0 -150.216,601.498 -172.199,740.44c-21.983,138.943 54.957,555.77 87.931,668.331c32.975,112.561 53.126,205.776 47.63,265.574l-1.832,38.692l67.781,3.518c-0,-0 -20.151,-198.74 -54.958,-318.337c-34.806,-119.596 -108.082,-550.493 -84.267,-652.502c23.815,-102.008 120.906,-529.388 120.906,-529.388l25.646,-202.258l14.655,-28.14l-51.293,14.07Z" style="fill:#e9c688;"/><clipPath id="_clip1"><path d="M2297.74,1762.23c0,-0 -150.216,601.498 -172.199,740.44c-21.983,138.943 54.957,555.77 87.931,668.331c32.975,112.561 53.126,205.776 47.63,265.574l-1.832,38.692l67.781,3.518c-0,-0 -20.151,-198.74 -54.958,-318.337c-34.806,-119.596 -108.082,-550.493 -84.267,-652.502c23.815,-102.008 120.906,-529.388 120.906,-529.388l25.646,-202.258l14.655,-28.14l-51.293,14.07Z"/></clipPath><g clip-path="url(#_clip1)"><path d="M2290.59,3457.44c9.305,-0.512 17.41,8.302 18.089,19.671c0.679,11.369 -6.324,21.015 -15.628,21.527c-9.305,0.512 -17.41,-8.302 -18.089,-19.671c-0.679,-11.369 6.324,-21.015 15.628,-21.527Z" style="fill:#7a7cbb;"/></g><path d="M2271.64,1653.41l-21.982,43.53l26.104,65.953l50.836,23.304l17.861,-131.468l8.243,-61.996l-28.852,-35.615c-0,-0 -23.357,10.553 -41.218,47.487c-17.861,36.934 -10.992,48.805 -10.992,48.805Z" style="fill:#deb875;"/><path d="M2273.6,1943.61c9.095,1.949 14.383,12.554 11.8,23.668c-2.583,11.115 -12.064,18.556 -21.16,16.608c-9.096,-1.948 -14.384,-12.554 -11.801,-23.668c2.583,-11.115 12.065,-18.556 21.161,-16.608Z" style="fill:#6a6464;"/><path d="M2201.24,2246.99c9.096,1.949 14.384,12.554 11.801,23.668c-2.583,11.115 -12.065,18.556 -21.161,16.608c-9.095,-1.948 -14.383,-12.554 -11.8,-23.668c2.583,-11.115 12.064,-18.556 21.16,-16.608Z" style="fill:#6a6464;"/><path d="M2145.87,2542c9.304,-0.513 17.409,8.302 18.088,19.671c0.679,11.369 -6.324,21.015 -15.628,21.527c-9.304,0.512 -17.409,-8.302 -18.088,-19.671c-0.679,-11.369 6.323,-21.015 15.628,-21.527Z" style="fill:#6a6464;"/><path d="M2269.52,3255.18c9.305,-0.512 17.41,8.302 18.089,19.671c0.679,11.369 -6.324,21.015 -15.628,21.527c-9.305,0.512 -17.41,-8.302 -18.089,-19.671c-0.679,-11.369 6.324,-21.015 15.628,-21.527Z" style="fill:#6a6464;"/><path d="M2332.09,1555.14c-46.257,9.123 -116.248,102.285 -123.653,184.671l14.197,62.436l38.012,-78.265c-0,-0 16.562,-75.597 26.563,-98.491c11.907,-27.261 44.881,-70.351 44.881,-70.351Z" style="fill:#fcd899;"/><path d="M2308.83,1783.96c6.91,1.224 10.833,11.001 8.755,21.82c-2.077,10.819 -9.374,18.61 -16.284,17.387c-6.91,-1.223 -10.833,-11 -8.755,-21.819c2.078,-10.82 9.374,-18.611 16.284,-17.388Z" style="fill:#6a6464;"/><g><path d="M2117.85,981.559c51.783,0 93.825,57.16 93.825,127.564c-0,70.405 -24.686,159.813 -100.974,156.094c-89.49,-4.362 -86.676,-85.689 -86.676,-156.094c0,-70.404 42.042,-127.564 93.825,-127.564Z" style="fill:#6a6464;"/><path d="M2310.83,1471.29c-0,-0 15.012,129.998 13.697,170.482c-1.798,55.337 -2.465,165.008 -2.17,165.781c6.912,18.154 9.278,-91.266 46.136,-109.006c74.646,-35.928 68.974,-52.036 140.834,-83.182c44.694,-19.371 113.051,-31.478 113.051,-31.478l-42.066,-198.559l-13.145,-69.011c-0,0 -9.202,-7.264 -26.291,-1.21c-17.089,6.053 -230.046,156.183 -230.046,156.183Z" style="fill:#f6bcaa;"/><path d="M2730.54,908.862c0,-0 -9.531,226.048 -66.72,344.559c-57.188,118.511 -81.016,164.599 -73.868,274.331c7.149,109.732 40.509,175.571 -2.383,226.048c-42.891,50.477 -59.571,122.9 -30.977,234.827c28.594,111.927 73.869,127.29 61.954,197.518c-11.914,70.229 -102.462,302.861 19.063,327.002c121.525,24.142 650.518,-166.793 576.65,-603.527c-73.868,-436.734 -138.205,-390.647 -207.308,-445.513c-69.103,-54.866 -95.314,-182.155 -64.337,-302.861c30.977,-120.705 154.885,-322.613 47.657,-434.54c-107.228,-111.927 -157.268,-194.226 -226.371,-253.481c-69.102,-59.256 -283.559,-77.91 -383.639,-64.742c-100.08,13.168 -421.764,144.846 -424.147,403.814c-2.383,258.969 150.119,258.969 193.011,283.11c42.891,24.141 138.205,8.778 138.205,8.778l231.137,-2.194l128.673,-37.309l83.4,-155.82Z" style="fill:#e68182;"/><path d="M2428.52,591.461c212.065,0 358.844,382.032 338.961,432.345c-106.524,269.548 -126.274,466.485 -336.578,491.601c-303.209,36.212 -384.235,-223.529 -384.235,-506.963c0,-283.434 169.787,-416.983 381.852,-416.983Z" style="fill:#fcd8cd;"/><path d="M2714.52,1037.34c0,0 40.509,-201.907 -26.211,-324.807c-66.72,-122.9 -264.497,-193.129 -405.085,-179.961c-140.588,13.168 -252.582,81.202 -252.582,81.202c-0,-0 23.828,-43.893 47.657,-68.034c23.828,-24.141 85.783,-48.282 85.783,-48.282c-0,-0 252.582,-94.37 438.444,26.335c185.862,120.706 200.16,247.995 209.691,305.056c9.531,57.061 -21.446,204.102 -21.446,204.102l-76.251,4.389Z" style="fill:#6a6464;"/><path d="M2547.07,687.477c-0,0 -30.382,202.456 33.955,291.339c64.337,88.883 141.184,77.361 141.184,77.361l54.806,50.477c-0,0 5.361,-425.212 -176.331,-516.29c-228.235,-114.408 -353.853,-29.628 -425.339,34.566c-71.485,64.193 -144.758,169.536 -150.12,213.978c-5.361,44.441 -3.574,103.697 16.085,133.324c-0,0 32.168,-106.989 125.099,-128.387c92.932,-21.397 271.645,-16.459 380.661,-156.368Z" style="fill:#e68182;"/><path d="M2758.84,970.586c51.783,0 93.824,57.16 93.824,127.564c0,70.404 -24.685,159.813 -100.973,156.094c-89.49,-4.362 -86.676,-85.69 -86.676,-156.094c-0,-70.404 42.041,-127.564 93.825,-127.564Z" style="fill:#6a6464;"/><path d="M2444.11,1009.71c0,-12.822 -10.41,-23.232 -23.232,-23.232c-12.823,-0 -23.233,10.41 -23.233,23.232l-0,40.772c-0,12.823 10.41,23.233 23.233,23.233c12.822,-0 23.232,-10.41 23.232,-23.233l0,-40.772Z" style="fill:#359a79;"/><path d="M2269.6,1008.36c0,0 -9.522,48.261 -12.398,94.744c-1.405,22.716 -1.246,44.972 2.272,61.166c-4.612,3.331 -13.171,9.966 -17.815,16.41c-3.976,5.517 -5.146,11.038 -2.21,15.154c2.723,3.818 10.433,7.24 27.061,6.7c1.726,0 3.128,-1.401 3.128,-3.128c-0,-1.726 -1.402,-3.128 -3.128,-3.128c-12.556,-0.407 -18.627,-1.805 -20.492,-4.815c-0.364,-0.588 -0.088,-1.244 0.17,-1.938c0.44,-1.18 1.296,-2.357 2.302,-3.577c6.286,-7.628 19.534,-15.055 19.534,-15.055c1.888,-1.159 2.828,-3.392 2.337,-5.552c-3.032,-15.681 -1.699,-38.085 1.205,-60.879c5.742,-45.088 18.065,-91.488 18.065,-91.488c1.273,-5.528 -2.181,-11.05 -7.709,-12.323c-5.527,-1.273 -11.049,2.181 -12.322,7.709Z" style="fill:#eaa692;"/><path d="M2382.37,900.231c0,0 51.873,-8.797 102.883,-0.99c23.138,3.542 46.033,10.28 63.732,23.015c1.843,1.487 4.546,1.198 6.033,-0.645c1.487,-1.843 1.198,-4.547 -0.645,-6.033c-17.513,-15.8 -41.287,-25.849 -65.744,-32.412c-53.233,-14.285 -109.344,-10.96 -109.344,-10.96c-7.733,0.851 -13.321,7.821 -12.47,15.555c0.852,7.734 7.822,13.321 15.555,12.47Z" style="fill:#e68182;"/><path d="M2192.36,872.931c-0,-0 -42.454,5.759 -80.691,23.846c-17.629,8.339 -34.312,18.994 -45.579,32.96c-1.616,1.73 -1.524,4.447 0.206,6.064c1.73,1.617 4.448,1.525 6.064,-0.206c11.936,-11.045 28.334,-18.334 45.237,-23.499c37.265,-11.387 76.722,-11.039 76.722,-11.039c7.762,-0.541 13.624,-7.281 13.083,-15.043c-0.54,-7.761 -7.281,-13.624 -15.042,-13.083Z" style="fill:#e68182;"/></g><path d="M3310.79,1824.71c-0,-0 111.288,180.713 5.496,433.975c-105.793,253.262 -170.368,321.854 -170.368,321.854l-269.29,415.508c0,0 -147.01,306.026 -469.884,308.664c-322.873,2.638 -276.159,-262.496 -285.777,-284.92c-9.617,-22.424 -5.496,-328.45 30.227,-485.419c35.722,-156.97 46.713,-273.049 46.713,-273.049l53.583,-245.348c0,0 333.865,-129.709 361.344,-102.008c27.478,27.701 46.255,84.421 46.255,84.421c0,-0 -3.205,58.918 -5.953,97.172c-2.748,38.253 -9.16,94.533 -5.038,189.507c4.122,94.973 18.777,243.589 18.777,243.589c0,-0 142.431,-457.279 186.396,-536.424c43.966,-79.144 141.515,-208.414 201.968,-220.285c60.453,-11.872 131.897,-51.444 255.551,52.763Z" style="fill:#ffb67b;"/><path d="M2329.34,1297.74l177.695,-50.125c0,-0 -23.815,84.42 -81.52,99.37c-57.705,14.949 -96.175,-49.245 -96.175,-49.245Z" style="fill:#ce7b67;"/><path d="M2703.45,1193.52c-0,0 17.772,3.039 12.624,10.393c-5.148,7.354 -173.457,86.432 -221.491,104.886l-5.883,-11.662c0,0 183.504,-71.521 214.75,-103.617Z" style="fill:#6a6464;stroke:#6a6464;stroke-width:1px;"/><path d="M2307.36,1723.98l22.898,83.541l261.047,-126.631l16.487,-112.561l-53.125,-39.572l-247.307,195.223Z" style="fill:#fcd899;"/><path d="M2448.92,1284.99c22.872,-5.949 44.983,1.771 49.345,17.23c4.363,15.459 -10.664,32.84 -33.537,38.79c-22.872,5.949 -44.983,-1.772 -49.345,-17.231c-4.363,-15.459 10.665,-32.84 33.537,-38.789Z" style="fill:#6a6464;"/><path d="M2291.42,2022.57c0,-0 10.767,-127.861 5.183,-184.287c-5.585,-56.426 23.548,-86.325 59.289,-138.326c35.74,-52 123.974,-179.235 123.974,-179.235c0,-0 -21.221,-12.171 -35.74,-28.767c-14.52,-16.595 -18.987,-19.915 -18.987,-19.915c-0,0 -29.039,39.831 -56.962,33.192c-27.922,-6.638 -40.207,-19.915 -40.207,-19.915l93.818,-90.724c0,-0 25.688,-11.064 35.74,-3.319c0,-0 1.117,-26.554 16.754,-33.192c15.636,-6.638 42.442,-7.745 42.442,-7.745c-0,0 -2.234,-17.702 22.337,-25.447c24.572,-7.744 33.507,-5.532 43.559,-3.319l27.922,1.106l-31.273,-24.34c0,-0 -26.805,-8.851 -33.506,-29.873c-6.702,-21.021 7.818,-35.404 7.818,-35.404l60.312,35.404c-0,0 50.26,28.766 71.481,36.511c21.22,7.745 39.091,5.532 35.74,55.32c-3.351,49.787 16.753,205.789 7.818,231.236c-8.935,25.447 -52.494,65.277 -52.494,65.277l-117.805,179.178c-0,0 -30.782,21.418 -21.847,87.802c8.935,66.383 19.211,88.511 19.211,88.511l-264.577,10.271Z" style="fill:#fcd8cd;stroke:#e6a18c;stroke-width:5.28px;"/><path d="M2212.1,2129.85c0,0 408.057,-75.187 438.284,-80.463c30.226,-5.276 16.487,-134.546 -27.479,-180.713c-43.965,-46.168 -101.67,2.638 -101.67,2.638l-229.447,76.506c0,0 -74.192,43.53 -82.435,65.954c-8.244,22.424 2.747,116.078 2.747,116.078Z" style="fill:#fcd899;"/><ellipse cx="2262.94" cy="2048.47" rx="25.647" ry="24.623" style="fill:#6a6464;"/><path d="M1294.77,3130.33c-0,-0 122.28,14.509 126.401,129.269c4.122,114.759 -43.965,123.993 -43.965,123.993l-134.645,-1.319c-0,-0 -12.366,3.957 -30.227,21.105c-17.861,17.148 -107.166,38.253 -126.401,42.21c-19.235,3.958 -219.829,9.234 -219.829,9.234c-0,-0 -12.365,13.191 -37.096,6.595c-24.731,-6.595 -56.331,-23.743 -70.071,-39.572c-13.739,-15.829 -12.365,-13.191 -8.243,-27.701c4.122,-14.509 12.365,-5.276 21.983,-7.914c9.617,-2.638 -27.479,-7.914 -23.357,-35.615c4.122,-27.701 17.861,-29.02 17.861,-29.02c0,0 -21.983,-13.19 -23.357,-30.338c-1.374,-17.148 -1.374,-25.063 15.113,-34.296c0,-0 -10.991,-3.958 -10.991,-22.425c0,-18.467 53.583,-52.763 76.94,-63.315c23.357,-10.553 34.348,-3.957 65.949,-5.276c31.6,-1.319 67.322,2.638 67.322,2.638c0,-0 -78.314,-27.701 -89.305,-51.444c-10.992,-23.743 -8.244,-34.296 10.991,-47.487c0,0 64.575,42.211 104.419,52.763c39.844,10.553 93.427,14.51 127.775,35.615c34.348,21.105 75.566,1.319 75.566,1.319l107.167,-29.019Z" style="fill:#fcd8cd;"/><path d="M857.864,3477.03c0,0 -20.151,-66.833 76.94,-63.315c97.091,3.517 1212.72,3.517 1212.72,3.517l141.057,0c-0,0 71.444,11.432 71.444,64.195l-1502.16,-4.397Z" style="fill:#cdd8d1;"/><path d="M2463.99,3479.89c0,0 85.184,-130.588 233.568,-122.674c148.385,7.915 229.447,121.355 229.447,121.355l-463.015,1.319Z" style="fill:#cdd8d1;"/><path d="M71.061,1277.69l25.647,1549.47c-0,0 -9.16,59.798 87.931,80.904c97.091,21.105 1220.05,276.126 1220.05,276.126c0,-0 78.772,8.794 73.276,-70.351c-5.495,-79.144 -62.284,-2142.18 -62.284,-2142.18c-0,-0 14.655,-124.872 -188.687,-77.386c-203.341,47.487 -1102.81,291.955 -1102.81,291.955c0,0 -51.293,-1.758 -53.125,91.456Z" style="fill:#a3d6b6;"/><path d="M16.104,1288.24l25.647,1549.47c-0,0 -9.16,59.798 87.931,80.903c97.091,21.105 1220.05,276.126 1220.05,276.126c0,0 78.772,8.794 73.276,-70.35c-5.495,-79.145 -62.285,-2142.18 -62.285,-2142.18c0,0 14.656,-124.872 -188.686,-77.385c-203.341,47.486 -1102.81,291.955 -1102.81,291.955c0,-0 -51.293,-1.759 -53.125,91.456Z" style="fill:#cdd8d1;"/><path d="M564.033,1743.4c106.626,-7.593 205.216,141.853 220.024,333.523c14.809,191.67 -59.735,353.447 -166.361,361.04c-106.627,7.593 -205.216,-141.853 -220.025,-333.523c-14.809,-191.67 59.736,-353.447 166.362,-361.04Z" style="fill:#85ad94;"/><path d="M548.272,2351.86l162.124,1118.58l109.914,7.914l-170.367,-1126.49l-101.671,0Z" style="fill:#85ad94;"/><path d="M450.723,3479.66l653.991,0c-0,0 -109.915,-253.262 -346.23,-253.262c-236.316,0 -307.761,253.262 -307.761,253.262Z" style="fill:#85ad94;"/><path d="M686.599,2060.26c-0,-19.975 -16.218,-36.193 -36.193,-36.193l-172.65,0c-19.975,0 -36.192,16.218 -36.192,36.193c-0,19.975 16.217,36.192 36.192,36.192l172.65,0c19.975,0 36.193,-16.217 36.193,-36.192Z" style="fill:#bccdc2;"/><ellipse cx="485.53" cy="2059.02" rx="16.945" ry="16.269" style="fill:#6bb085;"/><ellipse cx="562.928" cy="2059.46" rx="16.945" ry="16.269" style="fill:#6bb085;"/><ellipse cx="636.204" cy="2059.9" rx="16.945" ry="16.269" style="fill:#6bb085;"/></g><path d="M2998.97,1362.93c-0,-0 41.333,23.333 47.333,32.666c6,9.334 31.333,38 31.333,38" style="fill:none;stroke:#e6a18c;stroke-width:5.28px;"/><path d="M2876.97,1401.6c-0,0 67.333,27.334 91.333,43.334c24,16 41.333,24 50.667,42c9.333,18 12.666,24.666 12.666,24.666" style="fill:none;stroke:#e6a18c;stroke-width:5.28px;"/><path d="M2800.3,1455.6c0,0 108.667,62 124.667,68.667c16,6.667 26,3.333 26,3.333" style="fill:none;stroke:#e6a18c;stroke-width:5.28px;"/><ellipse id="Oval" cx="2421.48" cy="1030.27" rx="26.249" ry="48.57" style="fill:#6a6464;"/><ellipse id="Oval1" serif:id="Oval" cx="2158.15" cy="1030.27" rx="26.249" ry="48.57" style="fill:#6a6464;"/></g></svg>