<?xml version="1.0" encoding="UTF-8"?>
<svg width="48px" height="48px" viewBox="0 0 48 48" version="1.1" xmlns="http://www.w3.org/2000/svg" xmlns:xlink="http://www.w3.org/1999/xlink">
    <title>icon/-pop-up</title>
    <g id="icon/-pop-up" stroke="none" stroke-width="1" fill="none" fill-rule="evenodd">
        <path d="M21.8209909,15.1980576 L18.2695164,18.6168563 L14.2115338,18.6168563 C12.9878668,18.6168563 11.9926019,19.5752596 11.9926019,20.7536056 L11.9926019,20.7536056 L11.9926019,33.574101 C11.9926019,34.752447 12.9878668,35.7108502 14.2115338,35.7108502 L14.2115338,35.7108502 L27.5251252,35.7108502 C28.7487921,35.7108502 29.7440571,34.752447 29.7440571,33.574101 L29.7440571,33.574101 L29.7440571,29.7382088 L33.2943481,26.3182704 L33.2943481,33.574101 C33.2943481,36.6430427 30.7121031,39.129649 27.5251252,39.129649 L27.5251252,39.129649 L14.2115338,39.129649 C11.0245558,39.129649 8.44231083,36.6430427 8.44231083,33.574101 L8.44231083,33.574101 L8.44231083,20.7536056 C8.44231083,17.6846639 11.0245558,15.1980576 14.2115338,15.1980576 L14.2115338,15.1980576 L21.8209909,15.1980576 Z M35.8185574,9.50040798 C39.2366514,9.50933826 39.2103834,9.70125267 39.2114998,13.3963506 L39.2114998,13.3963506 L39.2103164,25.0863632 C39.2103164,27.235648 38.7298437,27.2025997 37.4268869,25.9490401 L37.4268869,25.9490401 L33.687247,22.3479054 L27.1547115,28.6384951 C25.8008671,29.9410575 23.6091541,29.9399179 22.2553098,28.6396347 L22.2553098,28.6396347 L19.4032427,25.8920601 C18.0493984,24.5894978 18.0482149,22.4766802 19.4032427,21.1729782 L19.4032427,21.1729782 L25.9357782,14.8835281 L22.1251325,11.2140174 C20.9476193,10.0812554 20.7925899,9.50233879 23.0245395,9.50005959 L23.0245395,9.50005959 Z" id="icon" fill="#000000"></path>
    </g>
</svg>