<?xml version="1.0" encoding="UTF-8"?>
<svg width="97px" height="89px" viewBox="0 0 97 89" version="1.1" xmlns="http://www.w3.org/2000/svg" xmlns:xlink="http://www.w3.org/1999/xlink">
    <title>Group 7</title>
    <g id="Main-Site" stroke="none" stroke-width="1" fill="none" fill-rule="evenodd">
        <g id="Untuk-Korporat" transform="translate(-353.000000, -2809.000000)">
            <g id="Group-13" transform="translate(353.000000, 2698.000000)">
                <g id="Group-7" transform="translate(0.000000, 111.000000)">
                    <circle id="Oval" fill="#ECC3C3" cx="57" cy="40" r="40"></circle>
                    <g id="iconfinder_icon-privacy-and-security-protection-shield-2_4676872" transform="translate(0.000000, 13.000000)" fill-rule="nonzero">
                        <path d="M3.495492,10.6235247 L8.38921475,10.6172158 C13.4579709,10.6106812 18.3650108,8.83096435 22.2613662,5.58597438 L27.0227325,1.62058009 C29.617237,-0.540193364 33.3827631,-0.540193364 35.9772676,1.62058009 L40.7386336,5.58597438 C44.6349894,8.83096435 49.5420292,10.6106812 54.6107852,10.6172158 L59.504508,10.6235247 C61.4357429,10.6260144 63,12.1937186 63,14.1267194 L63,44.1141079 C63,55.1955302 56.4764508,65.2363711 46.3566971,69.7309551 L32.919587,75.6989083 C32.0156921,76.1003639 30.9843079,76.1003639 30.080413,75.6989083 L16.643303,69.7309551 C6.52354906,65.2363711 0,55.1955302 0,44.1141079 L0,14.1267194 C0,12.1937186 1.56425721,10.6260144 3.495492,10.6235247 Z M7,17.6254078 L7,44.1141079 C7,52.4251745 11.8926618,59.9558051 19.4824773,63.3267434 L31.5,68.6642016 L43.5175227,63.3267434 C51.1073381,59.9558051 56,52.4251745 56,44.1141079 L56,17.6254078 L54.6017693,17.6236052 C47.9003553,17.6149659 41.4127465,15.2619982 36.2613664,10.9717895 L31.5,7.00639526 L26.7386336,10.9717895 C21.5872533,15.2619982 15.0996448,17.6149659 8.39823075,17.6236052 L7,17.6254078 Z" id="Shape" fill="#0096A9"></path>
                        <path d="M39.1844834,28.3773807 C40.3327666,26.8209933 42.5241838,26.4910099 44.0791505,27.6403421 C45.6341175,28.7896744 45.9637997,30.9830936 44.8155165,32.5394809 L31.8924396,50.0554691 C30.5872588,51.8245163 27.9953705,51.966491 26.5051111,50.3505683 L18.428188,41.5925742 C17.1170748,40.1709041 17.2056471,37.9545742 18.6260196,36.6422634 C20.0463922,35.3299523 22.2606989,35.4186056 23.571812,36.8402757 L28.7767305,42.4840889 L39.1844834,28.3773807 Z" id="Path" fill="#00ACC1"></path>
                    </g>
                </g>
            </g>
        </g>
    </g>
</svg>